<svg viewBox="0 0 24 24" xmlns="http://www.w3.org/2000/svg"><path d="m7.13128 4.0835v2.93457h-1.53222v3.4043h1.53222v.25h-1.53222v3.40527h1.53222v.25h-1.53222v3.4043h1.53222v2.93457h11.97608v-16.58301zm-.78222 5.58887v-1.9043h.78222v1.9043zm0 3.65527v-1.90527h.78222v1.90527zm0 3.6543v-1.9043h.78222v1.9043zm12.0083 2.93457h-10.47608v-15.08301h10.47608z"/><path d="m9.94036 14.37451a1.825 1.825 0 0 1 1.82325-1.82324h2.7705a1.825 1.825 0 0 1 1.82325 1.82324v3.92676h.75v-3.92676a2.57609 2.57609 0 0 0 -2.57325-2.57324h-2.7705a2.57609 2.57609 0 0 0 -2.57325 2.57324v3.92676h.75z"/><path d="m13.14886 11.67627a2.875 2.875 0 1 0 -2.875-2.875 2.87835 2.87835 0 0 0 2.875 2.875zm0-5a2.125 2.125 0 1 1 -2.125 2.125 2.12722 2.12722 0 0 1 2.125-2.125z"/></svg>
