<svg viewBox="0 0 24 24" xmlns="http://www.w3.org/2000/svg"><path d="m12.31683 8.76123a2.91378 2.91378 0 0 1 2.91064 2.91016h.75a3.66065 3.66065 0 0 0 -7.32129 0h.75a2.91379 2.91379 0 0 1 2.91065-2.91016z"/><path d="m12.32708 6.58057a5.298 5.298 0 0 0 -5.292 5.292h.75a4.542 4.542 0 0 1 9.084 0 5.1005 5.1005 0 0 1 -.72706 1.99121 5.6242 5.6242 0 0 0 -.8208 2.376 2.9144 2.9144 0 0 1 -2.91113 2.91113v.75a3.66553 3.66553 0 0 0 3.66113-3.66113 5.16023 5.16023 0 0 1 .7378-2.03321 5.54355 5.54355 0 0 0 .81006-2.334 5.298 5.298 0 0 0 -5.292-5.292z"/><path d="m16.22308 4.70166v.75a2.914 2.914 0 0 1 2.91064 2.91113h.75a3.66512 3.66512 0 0 0 -3.66064-3.66113z"/><path d="m16.22308 6.09619v.75a1.54363 1.54363 0 0 1 1.542 1.542h.75a2.29476 2.29476 0 0 0 -2.292-2.292z"/><path d="m12.00193 11.99565h.74992v.74992h-.74992z" transform="matrix(.70710678 -.70710678 .70710678 .70710678 -5.12223 12.37505)"/><path d="m10.27829 13.71928h.74992v.74992h-.74992z" transform="matrix(.70710678 -.70710678 .70710678 .70710678 -6.84587 11.6611)"/><path d="m6.83152 17.16655h.74992v.74992h-.74992z" transform="matrix(.70710678 -.70710678 .70710678 .70710678 -10.29299 10.23354)"/><path d="m5.09958 18.88139h.74992v.74992h-.74992z" transform="matrix(.70710678 -.70710678 .70710678 .70710678 -12.01284 9.51114)"/><path d="m8.55491 14.69282h.74992v2.2501h-.74992z" transform="matrix(.70699829 -.70721525 .70721525 .70699829 -8.57018 10.95)"/></svg>
