<svg viewBox="0 0 24 24" xmlns="http://www.w3.org/2000/svg"><path d="m16.10791 10.17432-.26514-.10449-.17138.22754a3.50035 3.50035 0 0 1 -2.19336.99218l5.08935-5.11035-1.63916-1.63281-6.21822 6.24414a3.11042 3.11042 0 0 0 -.46112.24219 2.55487 2.55487 0 0 1 -1.17023-.73535l-.17138-.22754-.26514.10449c-2.33936.91992-3.79248 2.65332-3.79248 4.52246 0 2.86914 3.376 5.2041 7.52539 5.2041a9.974 9.974 0 0 0 4.32031-.9375c2.00684-.96973 3.20508-2.56445 3.20508-4.2666-.00004-1.86914-1.45316-3.60254-3.79252-4.52246zm.82227-4.56738.57666.57421-5.47754 5.501-.57666-.57422zm-6.09082 5.94824.82666.82324a1.04017 1.04017 0 0 1 -.27686.77148 2.46349 2.46349 0 0 1 -1.4458.6045 2.54413 2.54413 0 0 0 .1499-.88868 1.22033 1.22033 0 0 1 .7461-1.31054zm5.52978 6.7334a9.23526 9.23526 0 0 1 -3.99414.8623c-3.73584 0-6.77539-1.998-6.77539-4.4541 0-1.49219 1.17139-2.90234 3.07568-3.72559a3.2567 3.2567 0 0 0 .98078.63477 2.32643 2.32643 0 0 0 -.31232 1.22754c-.02246.52539-.05273.78808-.48193 1.00488l.15576.709c.06445.00292.13867.0039.2207.0039a3.81536 3.81536 0 0 0 2.69922-.89062 1.79429 1.79429 0 0 0 .478-1.30371l.23846-.23926a5.31553 5.31553 0 0 0 3.42023-1.14649c1.9043.82227 3.07617 2.2334 3.07617 3.72559.00003 1.40721-1.03952 2.74999-2.78122 3.59179z"/><path d="m10.377 15.811h-.002a1.11768 1.11768 0 0 0 -.002 2.23535h.002a1.11768 1.11768 0 0 0 .002-2.23535zm-.002 1.48535a.3895.3895 0 0 1 -.26074-.1084.36718.36718 0 0 1 .26074-.627h.00049a.36768.36768 0 0 1 -.00049.73535z"/><path d="m14.18066 15.81787h-.00195a1.11768 1.11768 0 0 0 -.00244 2.23535h.00293a1.11768 1.11768 0 0 0 .00146-2.23535zm.25733 1.37891a.36661.36661 0 0 1 -.25879.10644h-.00147a.36768.36768 0 0 1 .001-.73535.38878.38878 0 0 1 .26074.1084.36838.36838 0 0 1 -.00146.52051z"/><path d="m16.81445 13.98291h-.002a1.11768 1.11768 0 0 0 -.002 2.23535h.00255a1.11768 1.11768 0 0 0 .00146-2.23535zm.25782 1.37793a.3646.3646 0 0 1 -.25928.10742h-.00147a.36989.36989 0 0 1 -.25976-.10839.36771.36771 0 0 1 .26074-.627.38466.38466 0 0 1 .26074.10742.369.369 0 0 1 -.001.52051z"/><path d="m7.78809 13.96436h-.002a1.11817 1.11817 0 0 0 -.00195 2.23633h.00195a1.11817 1.11817 0 0 0 .002-2.23633zm-.002 1.48633a.34234.34234 0 0 1 -.26074-.1084.36817.36817 0 0 1 .26074-.62793h.00049a.36817.36817 0 0 1 -.00049.73633z"/></svg>
