<svg viewBox="0 0 24 24" xmlns="http://www.w3.org/2000/svg"><path d="m16.2724 9.17529-.59668.45411a4.5438 4.5438 0 0 1 .001 5.49121l.59766.45312a5.2934 5.2934 0 0 0 -.00195-6.39844z"/><path d="m17.92279 9.17627-.59668.45313a4.54284 4.54284 0 0 1 .00048 5.49121l.59766.45312a5.291 5.291 0 0 0 -.00146-6.39746z"/><path d="m19.57318 9.17627-.59668.45313a4.54474 4.54474 0 0 1 .00049 5.49121l.59765.45312a5.29478 5.29478 0 0 0 -.00146-6.39746z"/><path d="m6.53265 9.186-2.57617 6.39847h.918l.63476-1.6748h2.82712l.64356 1.6748h.91308l-2.581-6.39847zm-.75488 4.03418 1.14453-2.99313 1.14941 2.99317z"/><path d="m13.69085 9.55518a3.19877 3.19877 0 0 0 -1.55761-.36918h-1.9043v6.39843h1.86816a3.4046 3.4046 0 0 0 1.5918-.374 2.5255 2.5255 0 0 0 1.05176-1.0459 3.2876 3.2876 0 0 0 .36816-1.58593v-.40918a3.26614 3.26614 0 0 0 -.373-1.56446 2.55265 2.55265 0 0 0 -1.04497-1.04978zm.53809 3.0039a2.42469 2.42469 0 0 1 -.57324 1.72852 2.09332 2.09332 0 0 1 -1.60059.60644h-.93652v-5.01855h1.03808a1.97589 1.97589 0 0 1 1.53223.61328 2.46327 2.46327 0 0 1 .54 1.69629z"/></svg>
