<svg viewBox="0 0 24 24" xmlns="http://www.w3.org/2000/svg"><path d="m4.41198 11.94223h15.89221v.74934h-15.89221z" transform="matrix(.86283798 -.50548059 .50548059 .86283798 -4.53089 7.93618)"/><path d="m15.50183 11.78858-.16388.46-.02149.126a2.292 2.292 0 1 0 4.584 0l-.9223-2.62207-.64936.38086.82068 2.30274a1.54225 1.54225 0 0 1 -3.082 0l.44067-1.23633z"/><path d="m6.37817 14.52588 1.1181-.6543a1.57134 1.57134 0 0 1 -.35461.04493 1.54341 1.54341 0 0 1 -1.541-1.48047l1.541-4.32422 1.54 4.32422a1.53188 1.53188 0 0 1 -.41577.98437l1.12786-.66113a2.26906 2.26906 0 0 0 .03888-.38477l-1.75972-5.00586h2.41309a2.29881 2.29881 0 0 0 1.88671 1.88575v1.99414l.75-.43848v-1.55566a2.29879 2.29879 0 0 0 1.88672-1.88575h2.46778l-.40088 1.125 1.54138-.90332-.078-.22168h.26757v-.75h-3.79785a2.29272 2.29272 0 0 0 -4.52344 0h-3.74316v.75h.26758l-1.73926 4.87989-.02148.126a2.28822 2.28822 0 0 0 1.5285 2.15134zm5.96954-9.07422a1.542 1.542 0 1 1 -1.542 1.542 1.54395 1.54395 0 0 1 1.542-1.542z"/><path d="m12.723 13.417-.75.439v5.295h-6.765v.75h14.301v-.75h-6.786z"/></svg>
