<svg viewBox="0 0 24 24" xmlns="http://www.w3.org/2000/svg"><path d="m12.72259 9.24756a2.28693 2.28693 0 0 0 1.87909-1.87891h2.4754l-1.73828 4.87989-.02148.126a2.29151 2.29151 0 1 0 4.583 0l-1.76074-5.00589h.26758v-.75h-3.80548a2.28373 2.28373 0 0 0 -4.50818 0h-3.75079v.75h.26758l-1.73929 4.87989-.02149.126a2.292 2.292 0 1 0 4.584 0l-1.76072-5.00589h2.42071a2.28694 2.28694 0 0 0 1.87909 1.87891v9.90332h-6.76465v.75h14.30078v-.75h-6.78613zm6.42676 3.18844a1.54175 1.54175 0 0 1 -3.08106 0l1.54-4.32422zm-10.4668 0a1.54225 1.54225 0 0 1 -3.082 0l1.541-4.3252zm2.123-5.44239a1.542 1.542 0 1 1 1.542 1.542 1.54394 1.54394 0 0 1 -1.54195-1.54196z"/></svg>
