<svg viewBox="0 0 24 24" xmlns="http://www.w3.org/2000/svg"><path d="m16.008 11.489-.75.439v1.483l1.764 3.699h-9.348l.505-1.035-1.168.684-.537 1.101h11.748l-2.214-4.536z"/><path d="m9.43719 10.12451a2.904 2.904 0 0 1 5.7135-.74121l.66486-.38965a3.65925 3.65925 0 0 0 -3.05512-2.50586v-2.03027h-.75v2.02248a3.66551 3.66551 0 0 0 -3.32324 3.64453v3.04493l.72107-.42286z"/><path d="m12.34784 19.91651a1.54364 1.54364 0 0 1 -1.542-1.542h-.75a2.292 2.292 0 1 0 4.584 0h-.75a1.54364 1.54364 0 0 1 -1.542 1.542z"/><path d="m4.96962 11.94223h14.79843v.74934h-14.79843z" transform="matrix(.86283198 -.50549083 .50549083 .86283198 -4.52947 7.94182)"/></svg>
