<svg viewBox="0 0 24 24" xmlns="http://www.w3.org/2000/svg"><path d="m17.2334 7.45166h-9.75v3.75h9.75zm-.75 3h-8.25v-2.25h8.25z"/><path d="m18.75928 6.00049a.58487.58487 0 1 1 0-1.167h.34326v-.75h-12.11182a1.3658 1.3658 0 0 0 -1.35449 1.10351l-.021 13.249h.00049a2.25519 2.25519 0 0 0 2.27491 2.23047h11.24365v-14.66598zm-11.76856-1.16699h10.53228a1.29695 1.29695 0 0 0 0 1.167h-10.53228a.58487.58487 0 1 1 0-1.167zm11.39356 15.083h-10.49365a1.50485 1.50485 0 0 1 -1.52491-1.4805h-.00049v-11.832a1.396 1.396 0 0 0 .62549.14648h11.39356z"/></svg>
