<svg viewBox="0 0 24 24" xmlns="http://www.w3.org/2000/svg"><circle cx="5.71868" cy="8.37158" r="1.625"/><path d="m5.71868 10.74658a1.625 1.625 0 1 0 1.625 1.625 1.6272 1.6272 0 0 0 -1.625-1.625zm0 2.5a.875.875 0 1 1 .875-.875.87606.87606 0 0 1 -.875.875z"/><path d="m5.71868 14.74658a1.625 1.625 0 1 0 1.625 1.625 1.6272 1.6272 0 0 0 -1.625-1.625zm0 2.5a.875.875 0 1 1 .875-.875.87606.87606 0 0 1 -.875.875z"/><path d="m9.71868 14.74658a1.625 1.625 0 1 0 1.625 1.625 1.6272 1.6272 0 0 0 -1.625-1.625zm0 2.5a.875.875 0 1 1 .875-.875.87606.87606 0 0 1 -.875.875z"/><path d="m9.71868 10.74658a1.625 1.625 0 1 0 1.625 1.625 1.6272 1.6272 0 0 0 -1.625-1.625zm0 2.5a.875.875 0 1 1 .875-.875.87606.87606 0 0 1 -.875.875z"/><circle cx="9.71868" cy="8.37158" r="1.625"/><circle cx="15.05218" cy="8.37158" r="1.625"/><circle cx="15.05218" cy="12.37158" r="1.625"/><path d="m15.05218 14.74658a1.625 1.625 0 1 0 1.625 1.625 1.6272 1.6272 0 0 0 -1.625-1.625zm0 2.5a.875.875 0 1 1 .875-.875.87606.87606 0 0 1 -.875.875z"/><path d="m19.05218 14.74658a1.625 1.625 0 1 0 1.62451 1.625 1.6272 1.6272 0 0 0 -1.62451-1.625zm0 2.5a.875.875 0 1 1 .875-.875.87606.87606 0 0 1 -.875.875z"/><path d="m19.05218 10.74658a1.625 1.625 0 1 0 1.62451 1.625 1.6272 1.6272 0 0 0 -1.62451-1.625z"/><path d="m19.05218 9.99658a1.625 1.625 0 1 0 -1.625-1.625 1.62614 1.62614 0 0 0 1.625 1.625zm0-2.5a.875.875 0 1 1 -.875.875.87606.87606 0 0 1 .875-.875z"/></svg>
