<svg viewBox="0 0 24 24" xmlns="http://www.w3.org/2000/svg"><path d="m5.52393 19.90568c-.124 0-.23-.00268-.313-.00561l.01367-.74976c.22314 0 .68555-.79614.6875-1.28906a5.74034 5.74034 0 0 0 .041-.57691c.03417-.90649.07617-2.03247 2.07031-2.94043l9.77059-9.79809 2.27441 2.28564-9.69482 9.72339a2.633 2.633 0 0 1 -.70606 2.0127c-1.11382 1.18872-3.18023 1.33813-4.1436 1.33813zm2.63623-4.79687a2.09865 2.09865 0 0 0 -1.45752 2.20361 5.76591 5.76591 0 0 1 -.04444.60449 2.631 2.631 0 0 1 -.39257 1.20948 4.52412 4.52412 0 0 0 2.855-1.07178 1.89131 1.89131 0 0 0 .50291-1.47561zm.60937-.45093 1.2168 1.22266 9.02344-9.04954-1.21677-1.22268z"/></svg>
