<svg viewBox="0 0 24 24" xmlns="http://www.w3.org/2000/svg"><path d="m16.95111 9.35791a4.57785 4.57785 0 0 0 -1.50635-3.38281 1.537 1.537 0 0 1 1.46924-1.15039v-.75a2.30341 2.30341 0 0 0 -2.1045 1.40723 4.52625 4.52625 0 0 0 -4.913-.00586 2.27242 2.27242 0 0 0 -2.105-1.40137v.75a1.53933 1.53933 0 0 1 1.4675 1.14355 4.57713 4.57713 0 0 0 -1.51444 3.38965v.375h9.20655zm-8.43848-.375a3.85349 3.85349 0 0 1 7.67041 0z"/><path d="m18.8095 15.606v-.75h-1.126v-3.89555l.95117-.95117-.53024-.53028-.95118.95117h-9.52294l-.95166-.95117-.53028.53027.95163.95118v3.89555h-1.126v.75h1.14935a5.23992 5.23992 0 0 0 1.21252 3.127l-.81006.80957.53028.53028.79391-.79404a5.21595 5.21595 0 0 0 7.10218-.01562l.80993.80957.53028-.53028-.82935-.8291a5.23287 5.23287 0 0 0 1.19717-3.10738zm-1.876-.23145a4.53369 4.53369 0 0 1 -4.167 4.50489v-8.38676h-.75v8.38672a4.53332 4.53332 0 0 1 -4.1665-4.50489v-4.19433h9.0835z"/></svg>
