<svg viewBox="0 0 24 24" xmlns="http://www.w3.org/2000/svg"><path d="m5.61572 4.0835v16.583h13.51856v-16.583zm12.76856 15.833h-4.5091v-1.58007h-3v1.58008h-4.50946v-15.08301h12.01856z"/><path d="m7.74365 11.11768h.75v1.31738h-.75z"/><path d="m9.87207 11.11768h.75v1.31738h-.75z"/><path d="m12 11.11768h.75v1.31738h-.75z"/><path d="m14.12793 11.11768h.75v1.31738h-.75z"/><path d="m16.25635 11.11768h.75v1.31738h-.75z"/><path d="m7.74365 8.36768h.75v1.31738h-.75z"/><path d="m9.87207 8.36768h.75v1.31738h-.75z"/><path d="m12 8.36768h.75v1.31738h-.75z"/><path d="m14.12793 8.36768h.75v1.31738h-.75z"/><path d="m16.25635 8.36768h.75v1.31738h-.75z"/><path d="m7.74365 16.36671h.75v1.31836h-.75z"/><path d="m9.87207 16.36671h.75v1.31836h-.75z"/><path d="m12 16.36671h.75v1.31836h-.75z"/><path d="m14.12793 16.36671h.75v1.31836h-.75z"/><path d="m16.25635 16.36671h.75v1.31836h-.75z"/><path d="m7.74365 13.61671h.75v1.31836h-.75z"/><path d="m9.87207 13.61671h.75v1.31836h-.75z"/><path d="m12 13.61671h.75v1.31836h-.75z"/><path d="m14.12793 13.61671h.75v1.31836h-.75z"/><path d="m16.25635 13.61671h.75v1.31836h-.75z"/><path d="m7.74365 5.61768h.75v1.31738h-.75z"/><path d="m9.87207 5.61768h.75v1.31738h-.75z"/><path d="m12 5.61768h.75v1.31738h-.75z"/><path d="m14.12793 5.61768h.75v1.31738h-.75z"/><path d="m16.25635 5.61768h.75v1.31738h-.75z"/></svg>
