<svg viewBox="0 0 24 24" xmlns="http://www.w3.org/2000/svg"><path d="m17.73333 5.52979h-10.75v3.52636h10.75zm-.75 2.77636h-9.25v-2.02636h9.25z"/><path d="m5.58245 4.0835v16.583h13.51905v-16.583zm12.76905 15.833h-12.01905v-15.083h12.01905z"/><path d="m8.98968 10.59424a.875.875 0 1 0 .875.875.87606.87606 0 0 0 -.875-.875zm-.125.875a.125.125 0 0 1 .25 0c0 .1377-.25.1377-.25 0z"/><path d="m12.33148 10.59424a.875.875 0 1 0 .875.875.87606.87606 0 0 0 -.875-.875zm-.125.875a.125.125 0 0 1 .25 0c0 .1377-.25.1377-.25 0z"/><path d="m15.67327 10.59424a.875.875 0 1 0 .875.875.87606.87606 0 0 0 -.875-.875zm-.125.875a.125.125 0 0 1 .25 0c0 .1377-.25.1377-.25 0z"/><path d="m8.98968 13.61377a.875.875 0 1 0 .875.875.87606.87606 0 0 0 -.875-.875zm-.125.875a.125.125 0 0 1 .25 0c0 .1377-.25.1377-.25 0z"/><path d="m12.33148 13.61377a.875.875 0 1 0 .875.875.87606.87606 0 0 0 -.875-.875zm-.125.875a.125.125 0 0 1 .25 0c0 .1377-.25.1377-.25 0z"/><path d="m15.67327 13.61377a.875.875 0 1 0 .875.875.87606.87606 0 0 0 -.875-.875zm-.125.875a.125.125 0 0 1 .25 0c0 .1377-.25.1377-.25 0z"/><path d="m8.98968 16.63428a.875.875 0 1 0 .875.875.87606.87606 0 0 0 -.875-.875zm-.125.875a.125.125 0 0 1 .25 0c0 .13772-.25.13772-.25 0z"/><path d="m12.33148 16.63428a.875.875 0 1 0 .875.875.87606.87606 0 0 0 -.875-.875zm-.125.875a.125.125 0 0 1 .25 0c0 .13772-.25.13772-.25 0z"/><path d="m15.67327 16.63428a.875.875 0 1 0 .875.875.87606.87606 0 0 0 -.875-.875zm-.125.875a.125.125 0 0 1 .25 0c0 .13772-.25.13772-.25 0z"/></svg>
