<svg viewBox="0 0 24 24" xmlns="http://www.w3.org/2000/svg"><path d="m15.202 5.61572-.99756-1.167a1.04457 1.04457 0 0 0 -.794-.36523h-2.03751a1.04634 1.04634 0 0 0 -.79444.36523l-.99731 1.167h-5.4978v13.51856h16.58349v-13.51856zm-4.05368-.67872a.29707.29707 0 0 1 .22461-.10351h2.03759a.29532.29532 0 0 1 .22413.10351l.58056.67871h-3.647zm8.76855 13.44727h-15.08349v-12.01855h15.08349z"/><path d="m12.37488 8.71436a3.66065 3.66065 0 1 0 3.66064 3.66113 3.66512 3.66512 0 0 0 -3.66064-3.66113zm0 6.57129a2.91065 2.91065 0 1 1 2.91064-2.91016 2.91378 2.91378 0 0 1 -2.91064 2.91016z"/><path d="m6.08338 6.688a.92383.92383 0 1 0 .92382.92383.92482.92482 0 0 0 -.92382-.92383zm-.17432.92383a.17407.17407 0 0 1 .34814 0c0 .19237-.34814.19042-.34814-.00001z"/></svg>
