<svg viewBox="0 0 24 24" xmlns="http://www.w3.org/2000/svg"><path d="m20.64935 10.62158h-1.19226l-1.78675-5.00586h-10.62548l-1.90107 5.00586h-1.07745v6.48731h2.01266v1.65039a.37509.37509 0 0 0 .375.375h1.69681a.3751.3751 0 0 0 .375-.375v-1.65039h7.65625v1.65039a.3751.3751 0 0 0 .375.375h1.69678a.3751.3751 0 0 0 .375-.375v-1.65039h2.02051zm-13.08692-4.25586h9.57957l1.51807 4.25391-12.6948-.04785zm.21338 12.01856h-.94681v-1.27539h.94677zm10.103 0h-.94678v-1.27539h.94678zm2.021-2.02539h-15.08347v-4.98731h14.38825l.52093.002-.00067-.002h.175z"/><path d="m7.2564 12.01514a1.00312 1.00312 0 1 0 1.02283 1.00293 1.01394 1.01394 0 0 0 -1.02283-1.00293zm-.193 1.00293a.19277.19277 0 0 1 .38544 0c.00001.20898-.38543.20703-.38543 0z"/><path d="m17.35931 12.01514a1.00312 1.00312 0 1 0 1.02283 1.00293 1.01395 1.01395 0 0 0 -1.02283-1.00293zm-.193 1.00293a.19276.19276 0 0 1 .38543 0c.00001.20898-.38542.20703-.38542 0z"/><path d="m8.51995 15.27393h7.71338v.75h-7.71338z"/><path d="m9.60003 14.18799h5.55322v.75h-5.55322z"/></svg>
