<svg viewBox="0 0 48 24" xmlns="http://www.w3.org/2000/svg"><path d="m7.2666 9.96143a2.04093 2.04093 0 0 1 1.71973-.79981 1.98023 1.98023 0 0 1 2.06445 1.93457h.78613a2.64545 2.64545 0 0 0 -.84375-1.90719 2.85749 2.85749 0 0 0 -2.00683-.72461 3.03168 3.03168 0 0 0 -1.6709.458 2.94868 2.94868 0 0 0 -1.09766 1.29882 4.63109 4.63109 0 0 0 -.38277 1.93455v.2461a4.08324 4.08324 0 0 0 .85156 2.7207 2.85409 2.85409 0 0 0 2.30664 1.01172 3.12185 3.12185 0 0 0 1.38477-.31445 2.65685 2.65685 0 0 0 1.03516-.8711 2.314 2.314 0 0 0 .42382-1.23437h-.78613a1.69586 1.69586 0 0 1 -.626 1.248 2.15841 2.15841 0 0 1 -1.43164.48145 2.0528 2.0528 0 0 1 -1.72656-.793 3.5415 3.5415 0 0 1 -.61133-2.208v-.23925a3.62426 3.62426 0 0 1 .61131-2.24213z"/><path d="m14.48828 8.92237a2.94859 2.94859 0 0 0 -1.09765 1.29882 4.63094 4.63094 0 0 0 -.38282 1.93457v.2461a4.08324 4.08324 0 0 0 .85157 2.7207 2.85406 2.85406 0 0 0 2.30662 1.01172 3.12184 3.12184 0 0 0 1.38476-.31445 2.65685 2.65685 0 0 0 1.03516-.8711 2.31408 2.31408 0 0 0 .42383-1.23437h-.78614a1.69585 1.69585 0 0 1 -.626 1.248 2.15845 2.15845 0 0 1 -1.43164.48145 2.05282 2.05282 0 0 1 -1.72657-.793 3.5415 3.5415 0 0 1 -.61132-2.208v-.23925a3.62426 3.62426 0 0 1 .61132-2.24219 2.04094 2.04094 0 0 1 1.71973-.79981 1.98022 1.98022 0 0 1 2.06445 1.93457h.78614a2.64548 2.64548 0 0 0 -.84372-1.90713 2.85754 2.85754 0 0 0 -2.00684-.72461 3.03168 3.03168 0 0 0 -1.67088.45798z"/><path d="m12.38525 4.0835a8.29151 8.29151 0 1 0 8.29151 8.291 8.30111 8.30111 0 0 0 -8.29151-8.291zm0 15.833a7.54151 7.54151 0 1 1 7.542-7.542 7.5502 7.5502 0 0 1 -7.542 7.54201z"/><path d="m36.38184 7.24463a2.629 2.629 0 0 0 -2.27637 1.08008 5.40542 5.40542 0 0 0 -.7793 3.17871v1.78418a5.30042 5.30042 0 0 0 .80664 3.11328 2.63827 2.63827 0 0 0 2.2627 1.07031 2.6113 2.6113 0 0 0 2.27637-1.09082 5.15505 5.15505 0 0 0 .77246-3.09277v-1.78418a5.722 5.722 0 0 0 -.80664-3.2168 2.64285 2.64285 0 0 0 -2.25586-1.04199zm-2.00153 7.85254a6.12252 6.12252 0 0 1 -.24066-1.80957v-1.78418a5.43956 5.43956 0 0 1 .57422-2.707 2.05295 2.05295 0 0 1 3.31726-.02246zm4.24369-1.80957a4.97064 4.97064 0 0 1 -.57129 2.61133 1.84178 1.84178 0 0 1 -1.65722.88183 1.86821 1.86821 0 0 1 -1.6322-.8457l3.64154-6.30762a7.24589 7.24589 0 0 1 .21917 1.876z"/><path d="m36.38574 4.0835a8.29151 8.29151 0 1 0 8.291 8.291 8.30111 8.30111 0 0 0 -8.291-8.291zm0 15.833a7.54151 7.54151 0 1 1 7.541-7.542 7.55051 7.55051 0 0 1 -7.541 7.54201z"/></svg>
