<svg viewBox="0 0 72 24" xmlns="http://www.w3.org/2000/svg"><path d="m7.2666 9.96143a2.04093 2.04093 0 0 1 1.71973-.79981 1.98023 1.98023 0 0 1 2.06445 1.93457h.78613a2.64545 2.64545 0 0 0 -.84375-1.90719 2.85749 2.85749 0 0 0 -2.00683-.72461 3.03168 3.03168 0 0 0 -1.6709.458 2.94868 2.94868 0 0 0 -1.09766 1.29882 4.63109 4.63109 0 0 0 -.38277 1.93455v.2461a4.08324 4.08324 0 0 0 .85156 2.7207 2.85409 2.85409 0 0 0 2.30664 1.01172 3.12185 3.12185 0 0 0 1.38477-.31445 2.65685 2.65685 0 0 0 1.03516-.8711 2.31681 2.31681 0 0 0 .42382-1.23437h-.78613a1.69586 1.69586 0 0 1 -.626 1.248 2.15841 2.15841 0 0 1 -1.43164.48145 2.0528 2.0528 0 0 1 -1.72656-.793 3.5415 3.5415 0 0 1 -.61133-2.208v-.23925a3.62426 3.62426 0 0 1 .61131-2.24213z"/><path d="m14.48828 8.92237a2.94859 2.94859 0 0 0 -1.09765 1.29882 4.63094 4.63094 0 0 0 -.38282 1.93457v.2461a4.08324 4.08324 0 0 0 .85157 2.7207 2.85406 2.85406 0 0 0 2.30662 1.01172 3.12184 3.12184 0 0 0 1.38476-.31445 2.65685 2.65685 0 0 0 1.03516-.8711 2.3169 2.3169 0 0 0 .42383-1.23437h-.78614a1.69585 1.69585 0 0 1 -.626 1.248 2.15845 2.15845 0 0 1 -1.43164.48145 2.05282 2.05282 0 0 1 -1.72657-.793 3.5415 3.5415 0 0 1 -.61132-2.208v-.23925a3.62426 3.62426 0 0 1 .61132-2.24219 2.04094 2.04094 0 0 1 1.71973-.79981 1.98022 1.98022 0 0 1 2.06445 1.93457h.78614a2.64548 2.64548 0 0 0 -.84372-1.90713 2.85754 2.85754 0 0 0 -2.00684-.72461 3.03168 3.03168 0 0 0 -1.67088.45798z"/><path d="m12.38525 4.0835a8.29151 8.29151 0 1 0 8.29151 8.292 8.30132 8.30132 0 0 0 -8.29151-8.292zm0 15.833a7.54151 7.54151 0 1 1 7.542-7.541 7.55 7.55 0 0 1 -7.542 7.54101z"/><path d="m36.38477 5.49951a3.81547 3.81547 0 0 0 -3.81934 3.708 3.81564 3.81564 0 0 0 3.81934 3.709 3.7085 3.7085 0 1 0 0-7.417zm0 6.667a3.05617 3.05617 0 0 1 -3.06934-2.959 3.05535 3.05535 0 0 1 3.06934-2.958 2.9585 2.9585 0 1 1 0 5.917z"/><path d="m36.38574 4.0835a8.35752 8.35752 0 0 0 -8.40332 8.292 8.35733 8.35733 0 0 0 8.40332 8.291 8.29227 8.29227 0 0 0 0-16.583zm-4.51465 14.36719v-1.8125a2.64875 2.64875 0 0 1 2.667-2.55567h3.69433a2.47523 2.47523 0 0 1 2.44434 2.55567v1.92481a7.37854 7.37854 0 0 1 -4.291 1.35352 7.67764 7.67764 0 0 1 -4.51467-1.46583zm9.55567-.502v-1.3105a3.217 3.217 0 0 0 -3.19434-3.30567h-3.69433a3.40747 3.40747 0 0 0 -3.417 3.30567v1.19628a7.46313 7.46313 0 0 1 -2.38867-5.459 7.60676 7.60676 0 0 1 7.65332-7.542 7.40671 7.40671 0 0 1 7.42969 7.542 7.54777 7.54777 0 0 1 -2.38867 5.57326z"/><path d="m60.38574 4.0835a8.29151 8.29151 0 1 0 8.291 8.292 8.30132 8.30132 0 0 0 -8.291-8.292zm0 15.833a7.54151 7.54151 0 1 1 7.541-7.541 7.5503 7.5503 0 0 1 -7.541 7.54101z"/><path d="m57.50488 10.61963h5.76074v.75h-5.76074z"/><path d="m57.50488 13.38037h5.76074v.75h-5.76074z"/></svg>
