<svg viewBox="0 0 24 24" xmlns="http://www.w3.org/2000/svg"><path d="m10.45801 12.00049h6.82324v.75h-6.82324z"/><path d="m5.73877 14.20752 1.80322-1.041 1.79639 1.03711v-3.85939a2.29206 2.29206 0 1 0 -3.59961 0zm1.80323-1.90723-1.05322.6084v-1.9414a2.20024 2.20024 0 0 0 2.09961 0v1.9375zm-.00343-4.89941a1.53979 1.53979 0 0 1 1.08381 2.63574h-.034v.02832a1.52478 1.52478 0 0 1 -2.09961 0v-.02832h-.034a1.53979 1.53979 0 0 1 1.0838-2.63574z"/><path d="m10.45801 9.54151h6.82324v.75h-6.82324z"/><path d="m10.45801 14.4585h6.82324v.75h-6.82324z"/><path d="m4.0835 5.61572v13.51856h16.5825v-13.51856zm15.833 12.76856h-15.083v-12.01856h15.083z"/></svg>
