<svg viewBox="0 0 24 24" xmlns="http://www.w3.org/2000/svg"><path d="m4.833 18.384v-12.393h-.75v13.143h16.209v-.75z"/><path d="m8.04053 13.59522 1.35449.78125.1875-.10743c.0249-.01464.44434-.3125.98633-.70019.71924-.51465 1.84228-1.31836 2.28222-1.623.49854.28809 1.8086 1.05176 2.47071 1.43653l.60449.35058 3.6416-2.58008-.43359-.6123-3.249 2.30273-.186-.10839c-.80908-.47168-2.5791-1.502-2.6836-1.5586l-.18457-.10058-.18212.10546c-.14307.082-.95948.66309-2.51661 1.77735-.31689.22754-.58984.42285-.75586.541l-1.33599-.77055-2.60645 1.50489.375.64941z"/></svg>
