<svg viewBox="0 0 24 24" xmlns="http://www.w3.org/2000/svg"><path d="m10.772 16.443-3.303-3.302.531-.531 2.772 2.773 6.382-6.383.531.531z"/><path d="m12.3752 4.0835c-1.6401-.0002-3.24336.48595-4.6071 1.39696-1.36375.91102-2.42671 2.20598-3.05446 3.72113-.62776 1.51511-.79211 3.18241-.47228 4.79101.31984 1.6085 1.1095 3.0861 2.26911 4.2459 1.15962 1.1597 2.63711 1.9496 4.24563 2.2696 1.6085.32 3.2758.1559 4.791-.4717 1.5153-.6276 2.8104-1.6904 3.7215-3.054.9112-1.3636 1.3976-2.9669 1.3976-4.6069-.0025-2.1982-.8768-4.30577-2.4311-5.86026-1.5543-1.55448-3.6617-2.42901-5.8599-2.43174zm0 15.834c-1.4917.0001-2.94995-.4422-4.19029-1.2708-1.24034-.8287-2.2071-2.0065-2.77801-3.3847-.57091-1.3781-.72034-2.8945-.42939-4.3576.29096-1.46301 1.00922-2.80691 2.06397-3.86173 1.05475-1.05481 2.3986-1.77317 3.86162-2.06422 1.463-.29105 2.9795-.14172 4.3576.4291 1.3782.57082 2.5561 1.5375 3.3849 2.77778.8287 1.24029 1.2711 2.69847 1.2711 4.19017-.0024 1.9995-.7977 3.9164-2.2115 5.3302-1.4137 1.4139-3.3306 2.2093-5.33 2.2118z"/></svg>
