<svg viewBox="0 0 24 24" xmlns="http://www.w3.org/2000/svg"><path d="m17.20547 17.405h-9.66064a3.45526 3.45526 0 0 1 -.74073-6.83154 5.65883 5.65883 0 0 1 10.18262-.07862 2.08229 2.08229 0 0 1 .21875-.0122 3.46118 3.46118 0 1 1 0 6.92236zm-5.29053-9.31011a4.91521 4.91521 0 0 0 -4.50683 2.96045l-.082.189-.20362.03222a2.70532 2.70532 0 0 0 .42234 5.37844h9.66064a2.71118 2.71118 0 1 0 0-5.42236 2.39627 2.39627 0 0 0 -.34766.03466l-.2832.04151-.15527-.25684a4.9154 4.9154 0 0 0 -4.5044-2.95708z"/></svg>
