<svg viewBox="0 0 24 24" xmlns="http://www.w3.org/2000/svg"><path d="m17.20547 10.48291a2.08038 2.08038 0 0 0 -.21875.01172 5.659 5.659 0 0 0 -10.18262.0791 3.455 3.455 0 0 0 .74073 6.83106h9.66064a3.46094 3.46094 0 1 0 0-6.92188zm0 6.17188h-9.66064a2.70506 2.70506 0 0 1 -.42237-5.37793l.20362-.03223.082-.18945a4.91014 4.91014 0 0 1 9.01123-.00293l.15527.25683.2832-.042a2.39624 2.39624 0 0 1 .34766-.03418 2.71094 2.71094 0 1 1 0 5.42188z"/><path d="m8.301 11.375.375.649 2.866-1.654v5.16h.75v-5.16l2.865 1.654.375-.649-3.615-2.088z"/></svg>
