<svg viewBox="0 0 24 24" xmlns="http://www.w3.org/2000/svg"><path d="m20.625 9.356a2.96841 2.96841 0 0 0 -2.227-2.93359v-.80669h-14.38042v4.76661a7.19392 7.19392 0 0 0 4.19042 6.52636v.66407h6v-.66407a7.21362 7.21362 0 0 0 3.91351-4.57422 3.03215 3.03215 0 0 0 2.50349-2.97847zm-9.417 7.4668a6.44741 6.44741 0 0 1 -6.44043-6.44043v-4.01665h12.88043v4.01661a6.44731 6.44731 0 0 1 -6.44 6.44043zm7.09186-5.3086a7.166 7.166 0 0 0 .09808-1.13183v-3.17583a2.23606 2.23606 0 0 1 1.47706 2.14946 2.27646 2.27646 0 0 1 -1.57513 2.15816z"/><path d="m4.83545 18.38428h12.64844v.75h-12.64844z"/></svg>
