<svg viewBox="0 0 24 24" xmlns="http://www.w3.org/2000/svg"><path d="m12.44775 8.7251a3.66065 3.66065 0 1 0 3.66114 3.66016 3.66428 3.66428 0 0 0 -3.66114-3.66016zm0 6.57129a2.91065 2.91065 0 1 1 2.91114-2.91113 2.914 2.914 0 0 1 -2.91114 2.91113z"/><path d="m18.75488 10.04346a6.65485 6.65485 0 0 0 -1.22363-2.05859l.96436-1.66993-3.94336-2.27636-.98243 1.71289a6.61215 6.61215 0 0 0 -2.35156.02246l-.98047-1.71093-3.95019 2.28124 1.00976 1.72168a6.63933 6.63933 0 0 0 -1.17675 2.02832h-1.96436v4.54976h1.95117a6.65166 6.65166 0 0 0 1.1919 2.06348l-.96143 1.665 3.94043 2.27552.95117-1.64746a6.59338 6.59338 0 0 0 2.43262.001l.93652 1.62109 3.93994-2.27441-.94482-1.63672a6.78525 6.78525 0 0 0 1.21-2.11719h1.87305v-4.55085zm1.17237 3.80078h-1.67481l-.08008.2666a5.91532 5.91532 0 0 1 -1.31445 2.30176l-.18506.20312.84131 1.458-2.64111 1.52442-.835-1.44532-.269.06055a5.85029 5.85029 0 0 1 -2.64648-.001l-.269-.06054-.84961 1.47168-2.64166-1.52536.85791-1.48633-.18505-.20215a5.92661 5.92661 0 0 1 -1.29932-2.25195l-.082-.26368h-1.74759v-3.0498l1.75684.00293.083-.26367a5.92885 5.92885 0 0 1 1.28858-2.22168l.18652-.2041-.9043-1.542 2.64454-1.52734.87988 1.53516.27051-.06153a5.90168 5.90168 0 0 1 2.57324-.02539l.2666.05567.87695-1.52829 2.64258 1.52539-.86572 1.498.1914.20313a5.94115 5.94115 0 0 1 1.335 2.24414l.084.25879h1.71143z"/></svg>
