<svg viewBox="0 0 24 24" xmlns="http://www.w3.org/2000/svg"><path d="m12.35833 4.083c-3.27685 0-6.75927.96045-6.75927 2.73975v11.1045c0 1.77929 3.48242 2.73926 6.75927 2.73926s6.75928-.96 6.75928-2.73926v-11.10449c0-1.7793-3.48242-2.73976-6.75928-2.73976zm0 .75c3.43946 0 6.00928 1.05029 6.00928 1.98975 0 .939-2.56982 1.98925-6.00928 1.98925s-6.00927-1.05028-6.00927-1.98924c0-.93946 2.56982-1.98976 6.00927-1.98976zm0 15.0835c-3.43945 0-6.00927-1.0503-6.00927-1.98926v-2.40136c1.19769.94043 3.653 1.43945 6.00927 1.43945s4.81159-.499 6.00928-1.43945v2.40137c0 .93896-2.56982 1.98926-6.00928 1.98926zm0-3.70118c-3.43945 0-6.00927-1.05029-6.00927-1.98974v-2.40136c1.19769.94043 3.653 1.43945 6.00927 1.43945s4.81159-.499 6.00928-1.43945v2.40137c0 .93941-2.56982 1.98974-6.00928 1.98974zm0-3.70166c-3.43945 0-6.00927-1.05029-6.00927-1.98974v-2.40092c1.19769.94043 3.653 1.439 6.00927 1.439s4.81159-.49853 6.00928-1.439v2.40088c0 .9395-2.56982 1.98979-6.00928 1.98979z"/><path d="m7.82952 16.83838a.875.875 0 1 0 .875.875.87606.87606 0 0 0 -.875-.875zm-.125.875a.125.125 0 0 1 .25 0c0 .1377-.25.1377-.25 0z"/><path d="m7.82952 13.11572a.875.875 0 1 0 .875.875.87606.87606 0 0 0 -.875-.875zm-.125.875a.125.125 0 0 1 .25 0c0 .1377-.25.1377-.25 0z"/><path d="m7.82952 9.41406a.875.875 0 1 0 .875.875.87606.87606 0 0 0 -.875-.875zm-.125.875a.125.125 0 0 1 .25 0c0 .1377-.25.1377-.25 0z"/></svg>
