<svg viewBox="0 0 24 24" xmlns="http://www.w3.org/2000/svg"><path d="m15.65618 10.49317h.75a4.15381 4.15381 0 0 0 -8.30761 0h.75a3.40381 3.40381 0 0 1 6.80761 0z"/><path d="m12.26409 4.69483a6.03594 6.03594 0 0 0 -6.02929 6.02929h.75a5.27954 5.27954 0 0 1 10.55908 0 5.89622 5.89622 0 0 1 -.84229 2.31641 6.4263 6.4263 0 0 0 -.938 2.706 3.40755 3.40755 0 0 1 -3.40381 3.40381v.75a4.15837 4.15837 0 0 0 4.15381-4.15381 5.96424 5.96424 0 0 1 .855-2.36328 6.34259 6.34259 0 0 0 .92529-2.65918 6.03636 6.03636 0 0 0 -6.02979-6.02924z"/><path d="m16.76674 5.09257h1.10554v.74992h-1.10554z" transform="matrix(.70710678 -.70710678 .70710678 .70710678 1.20664 13.84815)"/><path d="m5.96587 13.27031h6.33668v.74992h-6.33668z" transform="matrix(.70710678 -.70710678 .70710678 .70710678 -6.97331 10.45547)"/></svg>
