<svg viewBox="0 0 24 24" xmlns="http://www.w3.org/2000/svg"><path d="m7.92806 4.0835a2.29175 2.29175 0 1 0 2.292 2.292 2.29434 2.29434 0 0 0 -2.292-2.292zm0 3.83349a1.54175 1.54175 0 1 1 1.542-1.5415 1.5431 1.5431 0 0 1 -1.542 1.54151z"/><path d="m7.92806 10.0835a2.29175 2.29175 0 1 0 2.292 2.2915 2.29392 2.29392 0 0 0 -2.292-2.2915zm0 3.83349a1.54175 1.54175 0 1 1 1.542-1.542 1.54352 1.54352 0 0 1 -1.542 1.54201z"/><path d="m7.92806 16.083a2.292 2.292 0 1 0 2.292 2.292 2.29434 2.29434 0 0 0 -2.292-2.292zm0 3.834a1.542 1.542 0 1 1 1.542-1.542 1.54352 1.54352 0 0 1 -1.542 1.542z"/><path d="m16.86361 8.667a2.29175 2.29175 0 1 0 -2.292-2.2915 2.29392 2.29392 0 0 0 2.292 2.2915zm0-3.83349a1.54175 1.54175 0 1 1 -1.542 1.542 1.54352 1.54352 0 0 1 1.542-1.54201z"/><path d="m16.86361 10.0835a2.29175 2.29175 0 1 0 2.2915 2.2915 2.29435 2.29435 0 0 0 -2.2915-2.2915zm0 3.83349a1.54175 1.54175 0 1 1 1.5415-1.542 1.54395 1.54395 0 0 1 -1.5415 1.54201z"/><path d="m16.86361 16.083a2.292 2.292 0 1 0 2.2915 2.292 2.29476 2.29476 0 0 0 -2.2915-2.292zm0 3.834a1.542 1.542 0 1 1 1.5415-1.542 1.54395 1.54395 0 0 1 -1.5415 1.542z"/></svg>
