<svg viewBox="0 0 24 24" xmlns="http://www.w3.org/2000/svg">
<path d="M18.2 15C18.2 14.4 17.7 13.9 17.1 13.9H15.5C15.6 13.4 15.6 12.8 15.5 12.3C15.5 11.5 14.9 10.8 14.1 10.8C14 10.8 13.9 10.8 13.8 10.8H13.6C13.5 10.8 13.4 10.9 13.4 11V12.5L11.7 15H8.09999L7.99999 15.2C7.39999 16.6 7.39999 18.2 8.09999 19.5L8.19999 19.7H11.9C12.6 20.1 13.5 20.3 14.3 20.4H15.8C16.2 20.4 16.7 20.2 16.9 19.8C17 19.6 17 19.3 16.9 19.1C17.3 19 17.5 18.6 17.5 18.2V18C17.5 17.8 17.4 17.6 17.2 17.5C17.6 17.4 17.8 17 17.8 16.7V16.5C17.8 16.2 17.6 16 17.4 15.9C17.9 15.7 18.2 15.4 18.2 15ZM17.5 15C17.5 15.2 17.3 15.4 17.1 15.4H15.2C15 15.4 14.8 15.2 14.8 14.9C14.8 14.7 15 14.5 15.2 14.5H17C17.3 14.5 17.5 14.7 17.5 15ZM17.2 16.6C17.2 16.8 17 17 16.8 17H16.5H15.2C15 17 14.9 16.8 14.9 16.6V16.4C14.9 16.2 15.1 16 15.3 16H16.9C17.1 16 17.3 16.2 17.3 16.4L17.2 16.6ZM16.9 18V18.1C16.9 18.3 16.8 18.4 16.6 18.4H15.2C15 18.4 14.9 18.3 14.9 18.1V18C14.9 17.8 15 17.7 15.2 17.7H15.3H16.6C16.8 17.7 16.9 17.8 16.9 18ZM16.3 19.4C16.2 19.5 16.1 19.6 15.9 19.6H14.4C13.6 19.6 12.9 19.4 12.2 19H12.1H8.59999C8.19999 17.9 8.19999 16.8 8.59999 15.7H12.1L14.1 12.7V11.5C14.6 11.6 14.7 11.9 14.8 12.3C14.8 12.8 14.8 13.4 14.7 13.9C14.3 14.1 14 14.5 14 15C14 15.4 14.3 15.7 14.6 15.8C14.3 15.9 14.1 16.2 14.2 16.5V16.6C14.2 16.9 14.3 17.1 14.6 17.3C14.4 17.4 14.2 17.7 14.2 18V18.1C14.2 18.6 14.6 19.1 15.2 19.1H16.2C16.3 19.2 16.3 19.3 16.3 19.4Z" />
<path d="M12 6.1L4.19995 4.3V15.9L6.99995 16.6L7.19995 15.9L4.89995 15.4V5.2L11.6 6.7V13.2H12.3V6.7L19 5.2V15.3L18.4 15.4L18.6 16.1L19.7 15.9V4.4L12 6.1Z" />
<path d="M5.8999 7.30001L6.0999 6.60001L10.6999 7.70001L10.4999 8.40001L5.8999 7.30001Z" />
<path d="M5.8999 9.1L6.0999 8.4L10.6999 9.5L10.4999 10.2L5.8999 9.1Z" />
<path d="M5.8999 10.8L6.0999 10.1L10.6999 11.2L10.4999 11.9L5.8999 10.8Z" />
<path d="M5.8999 12.5L6.0999 11.8L10.6999 12.9L10.4999 13.6L5.8999 12.5Z" />
</svg>
