<svg viewBox="0 0 24 24" xmlns="http://www.w3.org/2000/svg"><path d="m12.375 10.00034a2.29175 2.29175 0 1 0 2.2915 2.2915 2.29434 2.29434 0 0 0 -2.2915-2.2915zm0 3.83349a1.54175 1.54175 0 1 1 1.5415-1.542 1.54394 1.54394 0 0 1 -1.5415 1.542z"/><path d="m20.05078 12.23325a8.26586 8.26586 0 0 0 -7.67395-5.1499h-.00183a8.26639 8.26639 0 0 0 -7.67578 5.1499l-.05811.14209.05811.14209a8.26594 8.26594 0 0 0 7.67578 5.14941h.00049l.00134-.00049a8.26572 8.26572 0 0 0 7.674-5.14892l.05811-.14209zm-3.13379.14209a4.54585 4.54585 0 0 1 -4.54022 4.541l-.00146.00049a4.54175 4.54175 0 1 1 0-9.08349h.00146a4.54668 4.54668 0 0 1 4.54023 4.542zm-11.46386 0a7.523 7.523 0 0 1 2.86639-3.35791 5.17868 5.17868 0 0 0 -.00006 6.71533 7.52157 7.52157 0 0 1 -2.86633-3.35742zm10.97869 3.35644a5.17911 5.17911 0 0 0 -.00012-6.71386 7.52109 7.52109 0 0 1 2.86518 3.35742 7.51866 7.51866 0 0 1 -2.86506 3.35644z"/></svg>
