<svg viewBox="0 0 24 24" xmlns="http://www.w3.org/2000/svg"><path d="m19.18123 5.577a2.49493 2.49493 0 0 0 -3.52423 0l-2.086 2.086-.83832-.83832-2.08224 2.08219 1.20678 1.20678-5.297 5.2975-1.33576 3.12126 1.04823 1.04859 2.95011-1.29812 5.42174-5.38188 1.16377 1.16377 2.08226-2.08226-.79532-.79532 2.086-2.086a2.49493 2.49493 0 0 0 -.00002-3.52419zm-10.35661 11.9902-2.84307 1.2508 1.21209-2.88713 5.24015-5.24069 1.63421 1.63421zm6.98369-4.65562-4.00472-4.00471.92911-.9291 4.00471 4.00471zm2.79634-4.387-2.086 2.086-2.37105-2.37107 2.086-2.086a1.67661 1.67661 0 0 1 2.37108 2.37108z"/></svg>
