<svg viewBox="0 0 24 24" xmlns="http://www.w3.org/2000/svg"><path d="m19.55054 11.00733v-6.15821h-9.52832v6.15821h-1.52734v-2.40528h-3.63477v11.27195h15.06641v-8.8667zm-8.77832-5.40821h8.02878v5.40821h-8.02878zm-5.16211 13.52488v-9.772h2.13477v9.772zm13.56641 0h-10.68164v-7.3667h10.68164z"/><path d="m11.40601 8.60205h6.76123v.75h-6.76123z"/><path d="m11.40601 6.91162h6.76123v.75h-6.76123z"/><path d="m12.29468 14.20264a.69507.69507 0 1 0 -.69482-.69531.6958.6958 0 0 0 .69482.69531z"/><path d="m14.43335 14.20264a.69507.69507 0 1 0 -.69482-.69531.69622.69622 0 0 0 .69482.69531z"/><path d="m16.57251 14.20264a.69507.69507 0 1 0 -.69531-.69531.69581.69581 0 0 0 .69531.69531z"/><path d="m12.29468 16.13574a.69507.69507 0 1 0 -.69482-.69531.6958.6958 0 0 0 .69482.69531z"/><path d="m14.43335 16.13574a.69507.69507 0 1 0 -.69482-.69531.69622.69622 0 0 0 .69482.69531z"/><path d="m16.57251 16.13574a.69507.69507 0 1 0 -.69531-.69531.69581.69581 0 0 0 .69531.69531z"/><path d="m12.29468 16.67871a.69507.69507 0 1 0 .69482.69483.69539.69539 0 0 0 -.69482-.69483z"/><path d="m14.43335 18.06885a.69507.69507 0 1 0 -.69482-.69531.69622.69622 0 0 0 .69482.69531z"/><path d="m16.57251 18.06885a.69507.69507 0 1 0 -.69531-.69531.69581.69581 0 0 0 .69531.69531z"/></svg>
