<svg viewBox="0 0 24 24" xmlns="http://www.w3.org/2000/svg"><path d="m8.80884 14.701a1.69068 1.69068 0 1 0 -1.69043-1.69043 1.69242 1.69242 0 0 0 1.69043 1.69043zm0-2.63135a.94068.94068 0 1 1 -.94043.94092.9417.9417 0 0 1 .94043-.94091z"/><path d="m19.13452 15.70394v-11.59034h-9.36425v.01709l-4.13127 5.68604h-.0235v10.88037h13.52v-4.99219zm-8.61425-10.84034h7.86425v10.26368l-3.14452-2.417-4.94433 3.80127-2.04249-1.57031-1.8877 1.45117v-5.82568h4.15479zm-.75.54248v4.41065h-3.20484zm-3.40137 14.54102v-2.61133l1.88428-1.44824 2.04248 1.57031 4.94434-3.80127 3.14453 2.41651v3.874z"/></svg>
