<svg viewBox="0 0 24 24" xmlns="http://www.w3.org/2000/svg"><path d="m9.77027 4.0835v.01709l-4.13127 5.68603h-.0235v10.88038h13.519v-16.5835zm0 1.29248v4.41064h-3.20484zm8.61425 14.541h-12.01904v-9.38036h4.15479v-5.70312h7.86425z"/><path d="m11.01929 15.11817-2.49463 3.874h2.41895l1.37207-2.22949 1.37207 2.22949h2.55664l-2.57129-3.80125 2.36963-3.72949h-2.43946l-1.21289 2.07177-1.24658-2.07177h-2.48144zm1.37988-.11524 1.63379-2.7915h.64453l-1.90088 2.99219 2.05469 3.03857h-.72461l-1.791-2.91016-1.791 2.91016h-.625l2.01221-3.124-1.87354-2.90674h.68164z"/></svg>
