<svg viewBox="0 0 24 24" xmlns="http://www.w3.org/2000/svg"><path d="m9.77027 4.11312v.01806l-4.13127 5.68506h-.0235v10.88037h13.519v-16.58349zm.75.75h7.86425v6.36718h-12.01904v-.66406h4.15479zm-4.0608 7.11718h.65953v.72559h-.65953zm1.596 0h.65949v.72559h-.65954zm1.596 0h.65948v.72559h-.65958zm1.596 0h.65948v.72559h-.65948zm1.59594 0h.65949v.72559h-.65949zm1.59595 0h.65942v.72559h-.65942zm1.59589 0h.65948v.72559h-.65963zm1.59594 0h.65949v.72559h-.65968zm.65949 7.96631h-.65968v-.73h.65949zm-1.596 0h-.65958v-.73h.65948zm-1.59595 0h-.65942v-.73h.65942zm-1.59588 0h-.65949v-.73h.65949zm-1.596 0h-.65948v-.73h.65948zm-1.596 0h-.65948v-.73h.65948zm-1.59594 0h-.65949v-.73h.65949zm-1.59595 0h-.65949v-.73h.65953zm-.75348-1.22461v-5.51709h12.019v5.51709zm3.40479-13.31592v4.41016h-3.20484z"/><path d="m11.47486 13.42659v5.07324l2.543-2.53662zm.75 1.80762.731.729-.73095.729z"/></svg>
