<svg viewBox="0 0 24 24" xmlns="http://www.w3.org/2000/svg"><path d="m9.77027 4.0835v.01709l-4.13127 5.68603h-.0235v10.88038h13.519v-16.5835zm0 1.29248v4.41064h-3.20484zm8.61425 14.541h-12.01904v-9.38036h4.15479v-5.70312h7.86425z"/><path d="m9.489 11.46143h-2.1826l1.91015 7.53076h2.22364l.937-3.647.93262 3.647h2.22319l1.91065-7.53076h-2.18265l-.91553 3.89209-1.00831-3.87252h-1.94434l-.99707 3.83252zm1.39794 5.102c.0376-.228.084-.43067.12208-.59717l.96388-3.73526h.78418l.92774 3.5708c.03711.1665.08642.38574.1372.67334l.05567.31738.938-.02148.09326-.44287c.06445-.30469.11377-.53907.144-.709l.80176-3.40771h.625l-1.53028 6.03076h-1.05758l-.84473-3.30225c-.0376-.11181-.09131-.373-.166-.7456l-.03125-.15576a4.8813 4.8813 0 0 1 -.1001-.60754l-.74707.00011c-.01905.15186-.05713.418-.1333.7793-.07764.36865-.13526.62158-.17383.7749l-.8374 3.25684h-1.05812l-1.52978-6.03079h.625l.80127 3.40478c.07763.34033.14306.66309.19677.95215l.05615.30518.88477.00537z"/></svg>
