<svg viewBox="0 0 24 24" xmlns="http://www.w3.org/2000/svg"><path d="m16.65967 18.14383h-1.67041a1.70212 1.70212 0 0 0 -1.7002 1.7002v2.10449h.75v-2.10452a.951.951 0 0 1 .9502-.9502h1.67041a.951.951 0 0 1 .95019.9502v2.10449h.75v-2.10449a1.70211 1.70211 0 0 0 -1.70019-1.70017z"/><path d="m17.70654 16.221a1.88233 1.88233 0 1 0 -1.88232 1.88281 1.88382 1.88382 0 0 0 1.88232-1.88281zm-3.01465 0a1.13233 1.13233 0 1 1 1.13233 1.13281 1.13333 1.13333 0 0 1 -1.13233-1.13281z"/><path d="m9.76025 4.07352-4.13232 5.70312-.02246 10.87989h5.85107v-.75h-5.10107v-9.37989h4.15478v-5.70312h7.86375v8.13769h.75v-8.88769zm0 5.70312h-3.20507l3.20507-4.41113z"/></svg>
