<svg viewBox="0 0 24 24" xmlns="http://www.w3.org/2000/svg"><path d="m9.7431 4.0835v.0166l-4.13165 5.68652h-.02314v10.87989h13.51905v-16.58301zm0 1.293v4.41012h-3.20447zm8.61426 14.54h-12.01905v-9.37988h4.15479v-5.70312h7.86426z"/><path d="m13.48919 16.42822h-.7666v-.375h-.75v.375h-.76611v3.40528h2.28271zm-.75 2.65528h-.78271v-1.90528h.78271z"/><path d="m11.97259 5.55322h.75v.75h-.75z"/><path d="m11.97259 7.05322h.75v.75h-.75z"/><path d="m11.97259 8.55322h.75v.75h-.75z"/><path d="m11.97259 10.05322h.75v.75h-.75z"/><path d="m11.97259 11.55322h.75v.75h-.75z"/><path d="m11.97259 13.05322h.75v.75h-.75z"/><path d="m11.97259 14.55322h.75v.75h-.75z"/></svg>
