<svg viewBox="0 0 24 24" xmlns="http://www.w3.org/2000/svg"><path d="m9.77027 4.06641v.01759l-4.13127 5.68553h-.0235v10.88037h13.519v-16.58349zm0 1.29248v4.41064h-3.20484zm8.61425 14.541h-12.01904v-9.38036h4.15479v-5.70312h7.86425z"/><path d="m8.89142 15.55518 3.2511 3.251a.46482.46482 0 0 0 .65753 0l2.92236-2.92187a.93041.93041 0 0 0 0-1.31543l-3.25109 3.251-2.59351-2.59332 2.59351-2.59326.96789.96778-1.48584 1.48584.65747.65771 1.81464-1.81494a.46494.46494 0 0 0 0-.65772l-1.62548-1.62548a.46562.46562 0 0 0 -.65747 0l-3.25111 3.25151a.46468.46468 0 0 0 0 .65718z"/></svg>
