<svg viewBox="0 0 24 24" xmlns="http://www.w3.org/2000/svg"><path d="m13.28857 15.81641v5.082c0 .957 1.6587 1.457 3.29688 1.457s3.29687-.5 3.29687-1.457v-5.082c0-1.91406-6.59375-1.91406-6.59375 0zm3.29688-.707c1.6543 0 2.54687.502 2.54687.707s-.89257.707-2.54687.707-2.54688-.502-2.54688-.707.89258-.70703 2.54688-.70703zm-2.54688 1.666a6.81674 6.81674 0 0 0 5.09375 0v.73438c0 .20508-.89257.707-2.54687.707s-2.54688-.502-2.54688-.707zm0 1.69336a6.81684 6.81684 0 0 0 5.09375 0v.73535c0 .20508-.89257.707-2.54687.707s-2.54688-.502-2.54688-.707zm2.54688 3.13672c-1.6543 0-2.54688-.502-2.54688-.707v-.73535a6.81684 6.81684 0 0 0 5.09375 0v.73535c0 .20503-.89257.70698-2.54687.70698z"/><path d="m6.35547 10.54688h4.15478v-5.70313h7.86375v8.1377h.75v-8.8877h-9.36375l-4.13232 5.70313-.02246 10.87988h5.85107v-.75h-5.10107zm3.40478-5.16114v4.41114h-3.20507z"/></svg>
