<svg viewBox="0 0 24 24" xmlns="http://www.w3.org/2000/svg"><path d="m16.854 20.43129a2.67676 2.67676 0 0 1 -2.40356-1.51367l.60474-.00684-.00782-.75-1.39941.01465-.686 1.22071.65332.36718.22736-.40332a3.41013 3.41013 0 0 0 6.35175-.874l-.7334-.1582a2.67876 2.67876 0 0 1 -2.60698 2.10349z"/><path d="m16.854 14.34926a3.43452 3.43452 0 0 0 -3.33935 2.69043l.7334.1582a2.66683 2.66683 0 0 1 5.00622-.59326l-.57214.00635.00879.75 1.39892-.0166.68653-1.21973-.65381-.36719-.2442.43409a3.433 3.433 0 0 0 -3.02436-1.84229z"/><path d="m6.35547 10.53676h4.15478v-5.70312h7.86375v8.13769h.75v-8.88769h-9.36375l-4.13232 5.70312-.02246 10.87988h5.85107v-.75h-5.10107zm3.40478-5.16113v4.41113h-3.20507z"/></svg>
