<svg viewBox="0 0 24 24" xmlns="http://www.w3.org/2000/svg"><path d="m9.77027 4.0835v.01709l-4.13127 5.68603h-.0235v10.88038h13.519v-16.5835zm0 1.29248v4.41064h-3.20484zm8.61425 14.541h-12.01904v-9.38036h4.15479v-5.70312h7.86425z"/><path d="m13.156 15.0874a1.432 1.432 0 0 0 .06933-2.03955 1.60165 1.60165 0 0 0 -1.08886-.32373h-1.00488v2.69629h.833a1.8253 1.8253 0 0 0 1.19141-.33301zm-1.27442-1.61328h.25489a.89486.89486 0 0 1 .59082.13428.59534.59534 0 0 1 .14111.44482.53131.53131 0 0 1 -.187.45411 1.13633 1.13633 0 0 1 -.7168.16308h-.083z"/><path d="m9.73853 18.87451h2.14306v-2.32812h.2168a3.10048 3.10048 0 0 0 2.11621-.64551 2.4027 2.4027 0 0 0 .79688-1.90527 2.21932 2.21932 0 0 0 -.76758-1.81641 3.12283 3.12283 0 0 0 -2.05029-.6001h-2.45508zm.75-6.54541h1.70508a2.42319 2.42319 0 0 1 1.57568.43067 1.5084 1.5084 0 0 1 .49219 1.23584 1.66483 1.66483 0 0 1 -.53907 1.33935 2.40394 2.40394 0 0 1 -1.624.46143h-.9668v2.32812h-.64306z"/></svg>
