<svg viewBox="0 0 24 24" xmlns="http://www.w3.org/2000/svg"><path d="m9.77027 4.1136v.01709l-4.13127 5.68604h-.0235v10.88037h13.519v-16.5835zm0 1.29248v4.41065h-3.20484zm8.61425 14.541h-12.01904v-9.38035h4.15479v-5.70313h7.86425z"/><path d="m15.63648 17.72444a3.57062 3.57062 0 0 0 0-5.0498l-.53028.53027a2.82089 2.82089 0 0 1 0 3.98926z"/><path d="m14.25757 16.34554a1.61968 1.61968 0 0 0 0-2.292l-.53027.53027a.87.87 0 0 1 0 1.23144z"/><path d="m8.06763 13.63118v3.24219h2.70544l2.48645 2.48975v-8.2129l-2.47766 2.481zm2.4917 2.49219h-1.7417v-1.74219h1.7417zm1.95019 1.42773-1.20019-1.2021v-2.1851l1.20019-1.20118z"/></svg>
