<svg viewBox="0 0 24 24" xmlns="http://www.w3.org/2000/svg"><path d="m6.35547 10.54706h4.15478v-5.70313h7.86375v8.1377h.75v-8.8877h-9.36375l-4.13232 5.70313-.02246 10.87988h5.85107v-.75h-5.10107zm3.40478-5.16113v4.41113h-3.20507z"/><path d="m20.81934 17.21405h-7.90577v2.27539h7.90577zm-.75 1.52539h-6.40577v-.77539h6.40577z"/><path d="m19.61224 18.65167a.30035.30035 0 1 0 -.31329-.3.30709.30709 0 0 0 .31329.3zm0-.3565a.05788.05788 0 0 1 .059.05646c0 .0625-.118.06182-.118 0a.05791.05791 0 0 1 .059-.05646z"/><path d="m12.91357 16.635h7.90577v-2.27544h-7.90577zm.75-1.52539h6.40577v.77539h-6.40577z"/><path d="m19.61224 15.1969a.30035.30035 0 1 0 .31318.30011.30716.30716 0 0 0 -.31318-.30011zm-.05908.30011a.05908.05908 0 0 1 .118 0c.00004.0625-.118.06183-.118-.00001z"/><path d="m12.91846 20.06854v2.27539h7.90576v-2.27539zm7.15576 1.52539h-6.40576v-.77539h6.40576z"/><path d="m19.61707 21.50629a.30036.30036 0 1 0 -.3133-.3.30709.30709 0 0 0 .3133.3zm0-.35651a.05784.05784 0 0 1 .059.05646c0 .0625-.11805.06183-.11805 0a.05788.05788 0 0 1 .05905-.05646z"/></svg>
