<svg viewBox="0 0 24 24" xmlns="http://www.w3.org/2000/svg"><path d="m12.35833 12.00049a5.298 5.298 0 0 0 -5.292 5.292h.75a4.54175 4.54175 0 1 1 9.0835 0h.75a5.29763 5.29763 0 0 0 -5.2915-5.292z"/><path d="m9.15521 11.44385a2.292 2.292 0 1 0 -2.292-2.292 2.29434 2.29434 0 0 0 2.292 2.292zm0-3.834a1.542 1.542 0 1 1 -1.542 1.542 1.5432 1.5432 0 0 1 1.542-1.54198z"/><path d="m12.35833 4.0835a8.292 8.292 0 1 0 8.291 8.292 8.30132 8.30132 0 0 0 -8.291-8.292zm0 15.834a7.542 7.542 0 1 1 7.54151-7.542 7.55082 7.55082 0 0 1 -7.54151 7.54198z"/><path d="m15.60833 6.85987a2.292 2.292 0 1 0 2.29151 2.292 2.29476 2.29476 0 0 0 -2.29151-2.292zm0 3.834a1.542 1.542 0 1 1 1.54151-1.542 1.54364 1.54364 0 0 1 -1.54151 1.54198z"/></svg>
