<svg viewBox="0 0 24 24" xmlns="http://www.w3.org/2000/svg"><path d="m12.35809 4.0835a8.292 8.292 0 1 0 8.2915 8.292 8.30132 8.30132 0 0 0 -8.2915-8.292zm7.523 7.917h-3.23644a10.6381 10.6381 0 0 0 -.943-4.0376 8.26506 8.26506 0 0 0 1.80414-1.084 7.51275 7.51275 0 0 1 2.37531 5.12159zm-7.148-6.76709a8.35364 8.35364 0 0 1 1.92053 2.32373 7.52065 7.52065 0 0 1 -1.92053.34424zm.81109-.29736a7.49383 7.49383 0 0 1 3.37782 1.44921 7.53935 7.53935 0 0 1 -1.55823.90722 9.25541 9.25541 0 0 0 -1.81959-2.35648zm-1.56109.3247v2.63915a7.542 7.542 0 0 1 -1.88617-.34228 8.36322 8.36322 0 0 1 1.88617-2.29688zm-2.59558 2.03173a7.5023 7.5023 0 0 1 -1.5755-.9209 7.49329 7.49329 0 0 1 3.39575-1.44091 9.26262 9.26262 0 0 0 -1.82025 2.36181zm2.59558 1.35742v3.35059h-3.12809a9.89077 9.89077 0 0 1 .8906-3.76949 8.27315 8.27315 0 0 0 2.23749.4189zm0 4.10059v3.34912a8.28136 8.28136 0 0 0 -2.24445.41309 9.89154 9.89154 0 0 1 -.88422-3.76221zm0 4.09912v2.64939a8.364 8.364 0 0 1 -1.89509-2.3115 7.52085 7.52085 0 0 1 1.89509-.33789zm-.78522 2.96875a7.48853 7.48853 0 0 1 -3.40033-1.45068 7.53581 7.53581 0 0 1 1.5799-.917 9.26 9.26 0 0 0 1.82043 2.36768zm1.53522-.2915v-2.67627a7.54581 7.54581 0 0 1 1.9209.35107 8.35058 8.35058 0 0 1 -1.9209 2.3252zm2.62927-2.05811a7.50112 7.50112 0 0 1 1.54578.90723 7.49788 7.49788 0 0 1 -3.352 1.437 9.2738 9.2738 0 0 0 1.80622-2.34423zm-2.62927-1.36816v-3.3501h3.16235a9.88744 9.88744 0 0 1 -.89075 3.77734 8.272 8.272 0 0 0 -2.2716-.42724zm0-4.1001v-3.34912a8.286 8.286 0 0 0 2.27124-.41992 9.88615 9.88615 0 0 1 .8905 3.769zm-5.507-5.13574a8.26465 8.26465 0 0 0 1.82243 1.09765 10.64458 10.64458 0 0 0 -.94336 4.03809h-3.27008a7.51176 7.51176 0 0 1 2.39099-5.13574zm-2.391 5.88574h3.26952a10.64524 10.64524 0 0 0 .93616 4.0293 8.26443 8.26443 0 0 0 -1.82734 1.09472 7.5125 7.5125 0 0 1 -2.37835-5.12402zm12.65869 5.13232a8.27636 8.27636 0 0 0 -1.79285-1.084 10.64179 10.64179 0 0 0 .94434-4.04834h3.23583a7.51232 7.51232 0 0 1 -2.38733 5.13234z"/></svg>
