<svg viewBox="0 0 24 24" xmlns="http://www.w3.org/2000/svg"><path d="m19.87457 12.30225-.00012-.001h.00927a7.52575 7.52575 0 1 0 -15.05078 0h.00928c-.00079.0249-.00928.04883-.00928.07422a2.29435 2.29435 0 0 0 2.29151 2.292h.375v-4.584h-.375a2.28838 2.28838 0 0 0 -1.23877.36328c-.02063.01318-.03534.03223-.05542.0459a6.74741 6.74741 0 0 1 13.05615 0c-.02008-.01367-.03479-.03272-.05542-.0459a2.28838 2.28838 0 0 0 -1.23877-.36328h-.375v4.584h.375a2.27567 2.27567 0 0 0 1.5387-.60547l-.007 4.3877h-5.04635v-.7666h-3.40478v2.28222h3.40478v-.76562h5.79543l.01062-6.82324.00012-.001-.00012-.001.00012-.07226zm-13.58313-1.22461h.00049a1.524 1.524 0 0 1 .45752-.19824v2.99218a1.54278 1.54278 0 0 1 -.458-2.79394zm7.03613 8.13769h-1.90478v-.78222h1.90478zm4.63965-5.34375v-2.99218a1.524 1.524 0 0 1 .45752.19824h.00049a1.53634 1.53634 0 0 1 .70837 1.29687v.00149a1.54546 1.54546 0 0 1 -1.16638 1.49558z"/></svg>
