<svg viewBox="0 0 24 24" xmlns="http://www.w3.org/2000/svg"><path d="m12.40935 7.41553a2.89708 2.89708 0 0 0 -1.98291.668 2.257 2.257 0 0 0 -.77491 1.7539h1.24121a1.22514 1.22514 0 0 1 .416-.97265 1.61737 1.61737 0 0 1 1.10059-.36231 1.39186 1.39186 0 0 1 1.07373.39844 1.55856 1.55856 0 0 1 .36914 1.10156 2.02877 2.02877 0 0 1 -.564 1.36621l-.8789.9043a3.2279 3.2279 0 0 0 -.68457 1.02442 4.00564 4.00564 0 0 0 -.18116 1.25976h1.2417a2.25075 2.25075 0 0 1 .48975-1.56055l.73144-.72363a3.3739 3.3739 0 0 0 1.08692-2.31152 2.46584 2.46584 0 0 0 -.708-1.86621 2.7364 2.7364 0 0 0 -1.97603-.67972z"/><path d="m12.22136 15.97119a.69508.69508 0 0 0 -.54688.20606.74216.74216 0 0 0 -.18457.51172.735.735 0 1 0 1.46973 0 .73563.73563 0 0 0 -.188-.51172.70632.70632 0 0 0 -.55028-.20606z"/><path d="m12.37517 4.0835a8.292 8.292 0 1 0 8.291 8.292 8.30132 8.30132 0 0 0 -8.291-8.292zm0 15.834a7.542 7.542 0 1 1 7.5415-7.542 7.55083 7.55083 0 0 1 -7.5415 7.54198z"/></svg>
