<svg viewBox="0 0 24 24" xmlns="http://www.w3.org/2000/svg"><path d="m12.72347 5.61572v-1.05078h-.75v1.05078h-7.89063v13.51856h16.58252v-13.51856zm7.19238 12.76856h-15.08301v-12.01856h15.083z"/><path d="m9.23177 15.99365a1.7689 1.7689 0 0 1 1.7666-1.7666h2.69971a1.7689 1.7689 0 0 1 1.7666 1.7666v1.05372h.75v-1.05372a2.51941 2.51941 0 0 0 -2.5166-2.5166h-2.69971a2.5194 2.5194 0 0 0 -2.5166 2.5166v1.05372h.75z"/><path d="m12.348 12.94971a2.811 2.811 0 1 0 -2.811-2.81055 2.81406 2.81406 0 0 0 2.811 2.81055zm0-4.87207a2.061 2.061 0 1 1 -2.061 2.06152 2.06376 2.06376 0 0 1 2.061-2.06152z"/></svg>
