<svg width="24" height="24" viewBox="0 0 24 24" fill="none" xmlns="http://www.w3.org/2000/svg">
<path fill-rule="evenodd" clip-rule="evenodd" d="M15.4003 5.83004L15.4003 5.83004C16.1463 5.86406 16.5163 5.98516 16.7411 6.07255C17.0421 6.18952 17.2369 6.3167 17.4598 6.53963C17.6827 6.76259 17.8099 6.95736 17.9269 7.25835C18.0143 7.48319 18.1354 7.85311 18.1694 8.59916L18.1694 8.59918C18.2095 9.47811 18.2182 9.73335 18.2182 11.9997C18.2182 14.2661 18.2095 14.5213 18.1694 15.4003L18.1694 15.4003C18.1354 16.1463 18.0143 16.5163 17.9269 16.7411L18.626 17.0128L17.9269 16.7411C17.8099 17.0421 17.6828 17.2368 17.4598 17.4598L17.4598 17.4598C17.2368 17.6828 17.0421 17.8099 16.7411 17.9269L16.7411 17.9269C16.5163 18.0143 16.1463 18.1354 15.4003 18.1694L15.4003 18.1694C14.5215 18.2095 14.2663 18.2182 11.9997 18.2182C9.73318 18.2182 9.47801 18.2095 8.59918 18.1694L8.59915 18.1694C7.8531 18.1354 7.48318 18.0143 7.25835 17.9269L7.25834 17.9269C6.95736 17.8099 6.76261 17.6828 6.53968 17.4598L6.53966 17.4598C6.3167 17.2368 6.18951 17.0421 6.07255 16.7411L6.07254 16.7411C5.98517 16.5163 5.86407 16.1463 5.83003 15.4003C5.78992 14.5213 5.78125 14.2661 5.78125 11.9997C5.78125 9.73335 5.78992 9.4781 5.83003 8.59918C5.86407 7.8531 5.98517 7.48318 6.07254 7.25835L6.07255 7.25834C6.18952 6.95737 6.3167 6.7626 6.53964 6.53966L6.53965 6.53965C6.7626 6.31669 6.95736 6.18952 7.25834 6.07255L6.98666 5.37348L7.25835 6.07255C7.48319 5.98516 7.85311 5.86406 8.59916 5.83004L8.59918 5.83004C9.47811 5.78993 9.73335 5.78125 11.9997 5.78125C14.2661 5.78125 14.5213 5.78993 15.4003 5.83004ZM6.98666 5.37348C6.5899 5.52768 6.30676 5.71187 6.00931 6.00933C5.71188 6.30675 5.52768 6.58991 5.37348 6.98666C5.25708 7.28618 5.11862 7.73625 5.08081 8.56499C5.03991 9.46128 5.03125 9.73013 5.03125 11.9997C5.03125 14.2693 5.03991 14.5382 5.08081 15.4345C5.11862 16.2632 5.25708 16.7133 5.37348 17.0128C5.52768 17.4095 5.71189 17.6927 6.00933 17.9901C6.30676 18.2876 6.5899 18.4718 6.98666 18.626C7.28618 18.7424 7.73625 18.8808 8.56499 18.9186C9.46118 18.9595 9.72996 18.9682 11.9997 18.9682C14.2695 18.9682 14.5383 18.9595 15.4345 18.9186C16.2632 18.8808 16.7133 18.7424 17.0128 18.626C17.4095 18.4718 17.6927 18.2876 17.9901 17.9901C18.2876 17.6927 18.4718 17.4095 18.626 17.0128C18.7424 16.7133 18.8808 16.2632 18.9186 15.4345C18.9595 14.5382 18.9682 14.2693 18.9682 11.9997C18.9682 9.73013 18.9595 9.46128 18.9186 8.56499C18.8808 7.73625 18.7424 7.28618 18.626 6.98666C18.4718 6.58991 18.2876 6.30675 17.9901 6.0093C17.6927 5.71187 17.4095 5.52768 17.0128 5.37348C16.7133 5.25708 16.2632 5.1186 15.4345 5.08082C14.5382 5.03992 14.2693 5.03125 11.9997 5.03125C9.73013 5.03125 9.46128 5.03992 8.56499 5.08082C7.73625 5.1186 7.28618 5.25708 6.98666 5.37348ZM16.3447 7.82223C16.3447 7.97132 16.2238 8.09221 16.0747 8.09221C15.9256 8.09221 15.8047 7.97134 15.8047 7.82223C15.8047 7.67309 15.9256 7.55221 16.0747 7.55221C16.2238 7.55221 16.3447 7.67311 16.3447 7.82223ZM16.0747 8.84221C16.638 8.84221 17.0947 8.38557 17.0947 7.82223C17.0947 7.25889 16.638 6.80221 16.0747 6.80221C15.5114 6.80221 15.0547 7.25889 15.0547 7.82223C15.0547 8.38557 15.5114 8.84221 16.0747 8.84221ZM12.2795 15.5375C14.0951 15.5375 15.567 14.0658 15.567 12.2502C15.567 10.4346 14.0951 8.96274 12.2795 8.96274C10.4641 8.96274 8.99219 10.4346 8.99219 12.2502C8.99219 14.0658 10.464 15.5375 12.2795 15.5375ZM16.317 12.2502C16.317 14.48 14.5093 16.2875 12.2795 16.2875C10.0498 16.2875 8.24219 14.48 8.24219 12.2502C8.24219 10.0204 10.0498 8.21274 12.2795 8.21274C14.5093 8.21274 16.317 10.0204 16.317 12.2502Z" fill="black"/>
</svg>
