<svg viewBox="0 0 24 24" xmlns="http://www.w3.org/2000/svg"><path d="m4.095 8.06006v9.04785h16.584v-9.04785zm15.834 8.29785h-15.084v-7.54785h15.084z"/><path d="m16.418 15.25v-.75h-8.092v.76h7.717z"/><path d="m5.43386 9.93799h.75v.69727h-.75z"/><path d="m7.07839 9.93799h.75v.69727h-.75z"/><path d="m8.72292 9.93799h.75v.69727h-.75z"/><path d="m10.36746 9.93799h.75v.69727h-.75z"/><path d="m12.01199 9.93799h.75v.69727h-.75z"/><path d="m13.65652 9.93799h.75v.69727h-.75z"/><path d="m15.30105 9.93799h.75v.69727h-.75z"/><path d="m16.94558 9.93799h.75v.69727h-.75z"/><path d="m18.59011 9.93799h.75v.69727h-.75z"/><path d="m5.43386 11.46924h.75v.69727h-.75z"/><path d="m7.07839 11.46924h.75v.69727h-.75z"/><path d="m8.72292 11.46924h.75v.69727h-.75z"/><path d="m10.36746 11.46924h.75v.69727h-.75z"/><path d="m12.01199 11.46924h.75v.69727h-.75z"/><path d="m13.65652 11.46924h.75v.69727h-.75z"/><path d="m15.30105 11.46924h.75v.69727h-.75z"/><path d="m16.94558 11.46924h.75v.69727h-.75z"/><path d="m18.59011 11.46924h.75v.69727h-.75z"/><path d="m5.43386 13.00049h.75v.69727h-.75z"/><path d="m7.07839 13.00049h.75v.69727h-.75z"/><path d="m8.72292 13.00049h.75v.69727h-.75z"/><path d="m10.36746 13.00049h.75v.69727h-.75z"/><path d="m12.01199 13.00049h.75v.69727h-.75z"/><path d="m13.65652 13.00049h.75v.69727h-.75z"/><path d="m15.30105 13.00049h.75v.69727h-.75z"/><path d="m16.94558 13.00049h.75v.69727h-.75z"/><path d="m18.59011 13.00049h.75v.69727h-.75z"/></svg>
