<svg viewBox="0 0 24 24" xmlns="http://www.w3.org/2000/svg"><path d="m19.06158 17.23535a8.23209 8.23209 0 0 0 .00067-9.71923l-.091-.12183a8.34568 8.34568 0 0 0 -1.637-1.636l-.07153-.05371a8.28984 8.28984 0 1 0 1.791 11.541l.00921-.009zm-9.61438-4.8601a2.91089 2.91089 0 1 1 2.91113 2.91113 2.91441 2.91441 0 0 1 -2.91113-2.91113zm10.45264 0a7.49228 7.49228 0 0 1 -1.38526 4.34106l-2.88318-2.73437a3.523 3.523 0 0 0 -.00476-3.22217l2.88764-2.72632a7.49317 7.49317 0 0 1 1.38556 4.3418zm-3.156-6.1233-2.72851 2.8772a3.52116 3.52116 0 0 0 -3.25275-.03345l-2.729-2.88964a7.493 7.493 0 0 1 8.71027.04589zm-10.49799 1.72291 2.87542 2.7268a3.51537 3.51537 0 0 0 -.01568 3.31834l-2.88416 2.7229a7.4892 7.4892 0 0 1 .02442-8.76806zm1.75592 10.54565 2.73242-2.88135a3.51661 3.51661 0 0 0 3.28821-.02173l2.72088 2.8816a7.49032 7.49032 0 0 1 -8.74151.02148z"/></svg>
