<svg viewBox="0 0 24 24" xmlns="http://www.w3.org/2000/svg"><path fill-rule="evenodd" clip-rule="evenodd" d="M4.91501 5.61207C4.91501 5.22712 5.22714 4.915 5.61208 4.915H18.3879C18.7729 4.915 19.085 5.22712 19.085 5.61207V18.3879C19.085 18.7729 18.7729 19.085 18.3879 19.085H5.61208C5.22714 19.085 4.91501 18.7729 4.91501 18.3879V5.61207ZM5.61208 4.265C4.86815 4.265 4.26501 4.86814 4.26501 5.61207V18.3879C4.26501 19.1319 4.86815 19.735 5.61208 19.735H18.3879C19.1319 19.735 19.735 19.1319 19.735 18.3879V5.61207C19.735 4.86814 19.1319 4.265 18.3879 4.265H5.61208ZM7.59958 8.10703C7.48767 8.22131 7.41501 8.3898 7.41501 8.60123C7.41501 9.003 7.67493 9.2863 8.08123 9.2863H8.09388C8.32456 9.2863 8.49106 9.20558 8.60045 9.09188C8.71111 8.97686 8.78163 8.80882 8.78243 8.60361C8.7769 8.38622 8.70405 8.21645 8.59628 8.10356C8.49046 7.99271 8.33071 7.915 8.10547 7.915C7.87806 7.915 7.71038 7.9939 7.59958 8.10703ZM7.13519 7.65224C7.37855 7.40374 7.7186 7.265 8.10547 7.265C8.49263 7.265 8.82754 7.40447 9.06644 7.65473C9.3028 7.90232 9.42453 8.23633 9.43236 8.59293L9.43252 8.60007H9.43244C9.43244 8.9573 9.30835 9.29361 9.06886 9.54253C8.82747 9.79343 8.48719 9.9363 8.09388 9.9363H8.08123C7.28424 9.9363 6.76501 9.32944 6.76501 8.60123C6.76501 8.23671 6.89294 7.89959 7.13519 7.65224ZM13.1842 11.8012C13.3958 11.5538 13.5542 11.405 13.7613 11.3074C13.971 11.2086 14.2639 11.1471 14.7655 11.1471C15.3467 11.1471 15.8369 11.3319 16.1825 11.6898C16.5283 12.0478 16.7655 12.6168 16.7655 13.4547V16.3571H15.3382V13.6779C15.3382 13.2474 15.2504 12.8388 15.0236 12.5298C14.7854 12.2052 14.4234 12.0307 13.9742 12.0307C13.2489 12.0307 12.8522 12.5219 12.6817 12.9418C12.6341 13.0553 12.6203 13.1732 12.6151 13.2671C12.611 13.3395 12.6115 13.4189 12.612 13.4863L12.6122 13.5411V16.3571H11.2056L11.2078 15.8445C11.2099 15.3381 11.2124 14.6576 11.2141 13.9621C11.2167 12.8923 11.2174 11.7721 11.2111 11.2026H12.6122V11.59C12.6122 11.7261 12.697 11.8477 12.8246 11.8949C12.9523 11.942 13.0958 11.9046 13.1842 11.8012ZM10.6487 16.9114C10.5877 16.8501 10.5536 16.767 10.5541 16.6805L10.5578 15.8419C10.5599 15.3356 10.5624 14.6556 10.5641 13.9605C10.5675 12.5612 10.5673 11.1251 10.5546 10.8955C10.5496 10.8063 10.5816 10.7191 10.643 10.6542C10.7044 10.5893 10.7898 10.5526 10.8791 10.5526H12.9372C13.1057 10.5526 13.2443 10.6809 13.2606 10.8451C13.3301 10.7992 13.4042 10.7571 13.4842 10.7194C13.8167 10.5627 14.2184 10.4971 14.7655 10.4971C15.4863 10.4971 16.1586 10.7294 16.65 11.2382C17.1412 11.7468 17.4155 12.4941 17.4155 13.4547V16.6821C17.4155 16.8616 17.27 17.0071 17.0905 17.0071H15.0132C14.8337 17.0071 14.6882 16.8616 14.6882 16.6821V13.6779C14.6882 13.3223 14.6137 13.0698 14.4996 12.9143C14.3968 12.7743 14.2394 12.6807 13.9742 12.6807C13.6071 12.6807 13.3951 12.9116 13.2834 13.1878L13.2812 13.193C13.2763 13.2047 13.2678 13.2357 13.2641 13.3033C13.2612 13.3537 13.2615 13.4044 13.2619 13.4667V13.4667C13.262 13.4898 13.2622 13.5144 13.2622 13.5411V16.6821C13.2622 16.8616 13.1167 17.0071 12.9372 17.0071H10.8791C10.7926 17.0071 10.7097 16.9727 10.6487 16.9114ZM7.15642 10.5527C6.97693 10.5527 6.83142 10.6982 6.83142 10.8777V16.682C6.83142 16.8615 6.97693 17.007 7.15642 17.007H8.98792C9.16741 17.007 9.31292 16.8615 9.31292 16.682V10.8777C9.31292 10.6982 9.16741 10.5527 8.98792 10.5527H7.15642ZM7.48142 16.357V11.2027H8.66292V16.357H7.48142Z"/></svg>
