<svg viewBox="0 0 24 24" fill="none" xmlns="http://www.w3.org/2000/svg">
<path fill-rule="evenodd" clip-rule="evenodd" d="M4.91501 5.4763C4.91501 5.09135 5.22714 4.77923 5.61208 4.77923H18.3879C18.7729 4.77923 19.085 5.09135 19.085 5.4763V18.2522C19.085 18.6371 18.7729 18.9492 18.3879 18.9492H5.61208C5.22714 18.9492 4.91501 18.6371 4.91501 18.2522V5.4763ZM5.61208 4.12923C4.86815 4.12923 4.26501 4.73237 4.26501 5.4763V18.2522C4.26501 18.9961 4.86815 19.5992 5.61208 19.5992H18.3879C19.1319 19.5992 19.735 18.9961 19.735 18.2522V5.4763C19.735 4.73237 19.1319 4.12923 18.3879 4.12923H5.61208ZM7.56379 7.93627C7.44185 8.06078 7.36494 8.24225 7.36494 8.46546C7.36494 8.89233 7.64481 9.20053 8.08116 9.20053H8.09381C8.337 9.20053 8.51686 9.11502 8.63641 8.99077C8.75701 8.86541 8.83168 8.68435 8.83236 8.46729C8.82671 8.23902 8.75006 8.05653 8.63237 7.93325C8.51632 7.81168 8.34309 7.72922 8.1054 7.72922C7.86572 7.72922 7.68478 7.81272 7.56379 7.93627ZM7.17084 7.55145C7.404 7.31336 7.73079 7.17922 8.1054 7.17922C8.48011 7.17922 8.80154 7.31394 9.0302 7.55347C9.25672 7.79075 9.3747 8.11222 9.3823 8.45825L9.38243 8.46429H9.38237C9.38237 8.80995 9.26238 9.13342 9.03276 9.37209C8.80152 9.61244 8.4746 9.75053 8.09381 9.75053H8.08116C7.31422 9.75053 6.81494 9.16855 6.81494 8.46546C6.81494 8.11271 6.93862 7.78856 7.17084 7.55145ZM13.1461 11.6329C13.3589 11.3841 13.523 11.2287 13.74 11.1264C13.9591 11.0231 14.2603 10.9613 14.7654 10.9613C15.3574 10.9613 15.8616 11.1498 16.2184 11.5193C16.5754 11.8889 16.8154 12.4716 16.8154 13.3189V16.2714H15.2881V13.5421C15.2881 13.1174 15.2014 12.7208 14.9832 12.4236C14.7555 12.1132 14.4091 11.945 13.9741 11.945C13.2763 11.945 12.8938 12.4163 12.7279 12.8251C12.6835 12.9308 12.67 13.0422 12.6649 13.1341C12.661 13.2047 12.6615 13.2818 12.6619 13.3491V13.3491V13.3491V13.3492L12.6621 13.4053V16.2714H11.1553L11.1578 15.7086C11.1599 15.2021 11.1624 14.5217 11.164 13.8262C11.1667 12.722 11.1673 11.5665 11.1604 11.0168H12.6621V11.4542C12.6621 11.5694 12.7338 11.6723 12.8419 11.7122C12.9499 11.7521 13.0713 11.7204 13.1461 11.6329ZM10.6841 16.7403C10.6324 16.6885 10.6036 16.6181 10.604 16.545L10.6078 15.7063C10.6099 15.2 10.6124 14.52 10.614 13.8248C10.6174 12.4268 10.6172 10.9885 10.6044 10.757C10.6002 10.6815 10.6273 10.6077 10.6793 10.5528C10.7312 10.4979 10.8034 10.4668 10.879 10.4668H12.9371C13.089 10.4668 13.2121 10.5899 13.2121 10.7418V10.804C13.3015 10.7384 13.3981 10.6795 13.5055 10.6289C13.8285 10.4766 14.2218 10.4113 14.7654 10.4113C15.4755 10.4113 16.1338 10.64 16.614 11.1372C17.094 11.6342 17.3654 12.3678 17.3654 13.3189V16.5464C17.3654 16.6982 17.2423 16.8214 17.0904 16.8214H15.0131C14.8613 16.8214 14.7381 16.6982 14.7381 16.5464V13.5421C14.7381 13.1808 14.6626 12.9163 14.5398 12.749C14.4267 12.5948 14.2535 12.495 13.9741 12.495C13.5793 12.495 13.3531 12.746 13.237 13.0333L13.2351 13.0377C13.2268 13.0573 13.218 13.095 13.2141 13.1647C13.2112 13.2168 13.2115 13.2696 13.2118 13.3325V13.3325V13.3325V13.3325L13.2121 13.4053V16.5464C13.2121 16.6982 13.089 16.8214 12.9371 16.8214H10.879C10.8058 16.8214 10.7357 16.7922 10.6841 16.7403ZM7.15635 10.4669C7.00447 10.4669 6.88135 10.59 6.88135 10.7419V16.5462C6.88135 16.6981 7.00447 16.8212 7.15635 16.8212H8.98784C9.13972 16.8212 9.26284 16.6981 9.26284 16.5462V10.7419C9.26284 10.59 9.13972 10.4669 8.98784 10.4669H7.15635ZM7.43135 16.2712V11.0169H8.71284V16.2712H7.43135Z" fill="black"/>
</svg>
