<svg viewBox="0 0 24 24" xmlns="http://www.w3.org/2000/svg"><path d="m14.65031 12.37476a2.29435 2.29435 0 0 0 -2.292-2.29151 2.266 2.266 0 0 0 -1.70862.78882l-4.94177-2.895-.37892.64647 13.71289 8.0332.37891-.64648-4.91614-2.87989a2.281 2.281 0 0 0 .14565-.75561zm-2.292-1.54151a1.53649 1.53649 0 0 1 1.49457 1.91529l-2.55274-1.49561a1.53462 1.53462 0 0 1 1.05818-.41968z"/><path d="m16.04093 16.0398-9.39746-5.50537c.05072-.05909.11029-.10889.16272-.166l-.65777-.3855a8.30715 8.30715 0 0 0 -1.461 2.33325l-.05859.14209.05859.14209a8.2502 8.2502 0 0 0 7.43713 5.13184l-1.741-1.00488a7.52954 7.52954 0 0 1 -4.78992-3.93848l6.80456 3.98633 1.44806.83594c.0437-.00806.08863-.011.13214-.01954a8.183 8.183 0 0 0 .89954-.24707l-.9-.51953-.00739.00244-8.29582-4.86041a7.54823 7.54823 0 0 1 .50489-.83447l8.84814 5.18311.98883.5708c.06256-.03077.12946-.051.19135-.0835.1994-.105.39258-.21948.58178-.3396l-.74188-.42822z"/><path d="m20.0341 12.31592a8.26748 8.26748 0 0 0 -7.67383-5.14941h-.00195a8.27026 8.27026 0 0 0 -4.38745 1.26635l1.26654.742a4.51639 4.51639 0 0 1 3.1214-1.2583h.00146a4.54711 4.54711 0 0 1 4.54 4.542 4.49146 4.49146 0 0 1 -.15485 1.11474l.6684.39161a5.16934 5.16934 0 0 0 -.94666-4.83741 7.52852 7.52852 0 0 1 2.813 3.33106 7.58271 7.58271 0 0 1 -1.18744 1.904l.656.38428a8.33666 8.33666 0 0 0 1.2854-2.14575l.0581-.14258z"/></svg>
