<svg viewBox="0 0 24 24" xmlns="http://www.w3.org/2000/svg"><path d="m5.86988 4.0835h2.77783v.75h-2.77783z"/><path d="m16.11255 4.0835h2.79883v.75h-2.79883z"/><path d="m16.11743 14.146a3.73218 3.73218 0 1 1 -7.46435 0v-8.60449h-2.78858v8.60449a6.521 6.521 0 0 0 13.042 0v-8.60449h-2.78907zm-8.21435-7.85449v2.00488h-1.28858v-2.00488zm4.48242 13.625a5.77745 5.77745 0 0 1 -5.771-5.77051v-5.09961h1.28858v5.09961a4.48218 4.48218 0 1 0 8.96435 0v-5.09961h1.28907v5.09961a5.77745 5.77745 0 0 1 -5.771 5.77051zm5.771-13.625v2.00488h-1.28907v-2.00488z"/></svg>
