<svg viewBox="0 0 24 24" xmlns="http://www.w3.org/2000/svg"><path d="m12.33538 13.71729a2.60162 2.60162 0 0 0 2.59862-2.59864v-4.44726a2.59839 2.59839 0 1 0 -5.19678 0v4.44726a2.60152 2.60152 0 0 0 2.59816 2.59864zm-1.84814-7.0459a1.84839 1.84839 0 1 1 3.69678 0v4.44726a1.84839 1.84839 0 1 1 -3.69678 0z"/><path d="m12.69946 19.92725.01019-4.65991a4.17753 4.17753 0 0 0 3.81226-4.14869h-.75a3.43653 3.43653 0 1 1 -6.873 0h-.75a4.1774 4.1774 0 0 0 3.81079 4.14844l-.01019 4.66016h-4.80114v.75h10.39893v-.75z"/></svg>
