<svg viewBox="0 0 24 24" xmlns="http://www.w3.org/2000/svg"><path d="m14.62432 12.32276-2.36602 1.38624c.02618.00048.05066.00781.07708.00781a2.59061 2.59061 0 0 0 2.28894-1.39405z"/><path d="m10.72174 12.001a1.82309 1.82309 0 0 1 -.2345-.88184v-4.44728a1.84839 1.84839 0 1 1 3.69678 0v3.30078l.75-.43946v-2.86132a2.59839 2.59839 0 1 0 -5.19678 0v4.44726a2.56393 2.56393 0 0 0 .34009 1.25928z"/><path d="m12.70941 15.28906a4.18759 4.18759 0 0 0 3.80316-4.07275l-.79779.46729a3.43463 3.43463 0 0 1 -3.3794 2.87207 3.39492 3.39492 0 0 1 -1.15619-.21485l-.801.46924a4.13608 4.13608 0 0 0 1.58124.479l-.00977 4.63868h-4.80129v.75h10.39893v-.75h-4.84766z"/><path d="m9.357 12.80078a3.395 3.395 0 0 1 -.45819-1.68164h-.75a4.146 4.146 0 0 0 .55884 2.062z"/><path d="m4.95912 11.97152h14.79843v.74934h-14.79843z" transform="matrix(.86283198 -.50549083 .50549083 .86283198 -4.54572 7.94053)"/></svg>
