<svg viewBox="0 0 24 24" xmlns="http://www.w3.org/2000/svg"><path d="m12.38574 8.66716a2.292 2.292 0 1 1 2.29151-2.292 2.29476 2.29476 0 0 1 -2.29151 2.292zm0-3.834a1.542 1.542 0 1 0 1.54151 1.542 1.54363 1.54363 0 0 0 -1.54151-1.54199z"/><path d="m12.38574 14.66716a2.292 2.292 0 1 1 2.29151-2.292 2.29476 2.29476 0 0 1 -2.29151 2.292zm0-3.834a1.542 1.542 0 1 0 1.54151 1.542 1.54363 1.54363 0 0 0 -1.54151-1.54199z"/><path d="m12.38574 20.66618a2.29151 2.29151 0 1 1 2.29151-2.291 2.29393 2.29393 0 0 1 -2.29151 2.291zm0-3.833a1.54151 1.54151 0 1 0 1.54151 1.542 1.54363 1.54363 0 0 0 -1.54151-1.54201z"/></svg>
