<svg viewBox="0 0 24 24" xmlns="http://www.w3.org/2000/svg"><path d="m17.59383 19.90057a2.20469 2.20469 0 0 1 -.773-.14062l-.00293.00293-.24121-.10156a23.79852 23.79852 0 0 1 -11.34028-11.19922 3.79761 3.79761 0 0 1 -.40185-1.32031 2.29435 2.29435 0 0 1 2.2915-2.292h2.96143l1.666 2.80274-1.15282 2.10747a23.52986 23.52986 0 0 0 4.34766 4.38086l2.17578-1.17386 2.79345 1.68262-.03222 2.96289a2.29353 2.29353 0 0 1 -2.29151 2.28806zm-.93554-1.03808.24755.11719a1.55038 1.55038 0 0 0 2.2295-1.3711l.02783-2.53711-2.05957-1.24121-2.22412 1.2002-.19239-.14551a24.27475 24.27475 0 0 1 -4.83251-4.86816l-.14358-.19336 1.1792-2.15528-1.22947-2.06836h-2.53467a1.54321 1.54321 0 0 0 -1.5415 1.542 3.17515 3.17515 0 0 0 .3247.98828 23.0736 23.0736 0 0 0 10.74174 10.73925z"/></svg>
