<svg viewBox="0 0 24 24" xmlns="http://www.w3.org/2000/svg"><path d="m7.68419 20.47912-.64941-.375 2.54834-4.41407-4.11573-2.376.1875-.32471a3.78733 3.78733 0 0 1 3.3418-1.88184c.46484-.80468 2.1543-3.73144 2.61231-4.52392a2.36737 2.36737 0 0 1 .02343-2.313l.1875-.32471 7.43506 4.293-.1875.32471a2.36755 2.36755 0 0 1 -1.99072 1.17676c-.45752.79248-2.14746 3.71923-2.61182 4.52392a3.78227 3.78227 0 0 1 .041 3.83545l-.1875.3252-4.08594-2.35987zm-1.17187-7.42774 7.51123 4.33643a3.02694 3.02694 0 0 0 -.30616-2.897l-.13671-.1958.11962-.20654c.11524-.19971 2.81446-4.87451 2.83838-4.916l.11866-.20654.23779.01953a1.62687 1.62687 0 0 0 1.29639-.49463l-6.05811-3.498a1.61378 1.61378 0 0 0 .22021 1.3706l.13623.19629-.1206.20654c-.03418.05909-2.72315 4.71583-2.8374 4.915l-.11963.207-.23779-.02051a3.023 3.023 0 0 0 -2.66211 1.18363z"/></svg>
