<svg viewBox="0 0 24 24" xmlns="http://www.w3.org/2000/svg"><path d="m17.24261 12.771a.875.875 0 1 0 -.875-.875.87606.87606 0 0 0 .875.875zm0-1a.12492.12492 0 0 1 .125.125c0 .13867-.25.13867-.25 0a.12492.12492 0 0 1 .125-.125z"/><path d="m19.11761 10.021h-2.80371v-6.02051h-7.93262v6.02051h-2.78222v8.667h2.78271v2.06152h7.93213v-2.06152h2.80371zm-9.98633-5.27051h6.43262v5.27051h-6.43262zm.00049 15.249v-4.27049h6.43213v4.2705zm9.23584-2.06149h-2.05371v-2.209h.64844v-.75h-9.1875v.75h.60693v2.209h-2.03271v-7.167h12.01855z"/><path d="m9.58197 16.9292h5.53125v.75h-5.53125z"/><path d="m9.58197 18.31201h5.53125v.75h-5.53125z"/></svg>
