<svg viewBox="0 0 24 24" xmlns="http://www.w3.org/2000/svg"><path d="m12.35184 19.91675a7.553 7.553 0 0 1 -7.12091-5.12061l2.42639.00965.00232-.75073-3.29578-.0116-1.65838 2.84766.64856.37817 1.20324-2.06848a8.29251 8.29251 0 0 0 15.902-1.078l-.7334-.1582a7.57653 7.57653 0 0 1 -7.37404 5.95214z"/><path d="m12.35184 4.83277a7.56913 7.56913 0 0 1 7.118 5.10656l-2.34774.00267.00153.75073 3.29584-.00537 1.64367-2.85606-.65051-.37488-1.24451 2.16492a8.2896 8.2896 0 0 0 -15.92077.99266l.7334.1582a7.579 7.579 0 0 1 7.37109-5.93943z"/></svg>
