<svg viewBox="0 0 24 24" xmlns="http://www.w3.org/2000/svg"><path d="m17.76929 4.84992h-10.80078a2.12722 2.12722 0 0 0 -2.125 2.125v10.80078a2.12721 2.12721 0 0 0 2.125 2.125h10.80078a2.12722 2.12722 0 0 0 2.125-2.125v-10.80078a2.12723 2.12723 0 0 0 -2.125-2.125zm1.375 12.92578a1.37671 1.37671 0 0 1 -1.375 1.375h-10.80078a1.37671 1.37671 0 0 1 -1.375-1.375v-10.80078a1.37671 1.37671 0 0 1 1.375-1.375h10.80078a1.37671 1.37671 0 0 1 1.375 1.375z"/><path d="m7.66382 10.60871h-.52393v.75h.52393a5.71566 5.71566 0 0 1 5.7085 5.709v.36429h.75v-.3643a6.46616 6.46616 0 0 0 -6.4585-6.45899z"/><path d="m7.13989 7.26106v.75a9.43161 9.43161 0 0 1 9.42041 9.42094h.75a10.18212 10.18212 0 0 0 -10.17041-10.17094z"/><path d="m8.62866 13.6507a2.292 2.292 0 1 0 2.292 2.292 2.29435 2.29435 0 0 0 -2.292-2.292zm0 3.834a1.542 1.542 0 1 1 1.542-1.542 1.54322 1.54322 0 0 1 -1.542 1.54199z"/></svg>
