<svg viewBox="0 0 24 24" xmlns="http://www.w3.org/2000/svg"><path d="m20.65552 10.336h-16.58301v4.125h16.583zm-.74952 3.375h-15.08349v-2.625h15.08349z"/><path d="m18.43988 13.06208a.66456.66456 0 1 0 -.69324-.66394.67954.67954 0 0 0 .69324.66394zm0-.78882a.128.128 0 0 1 .13037.12488c0 .1383-.26111.13684-.26111 0a.1281.1281 0 0 1 .13074-.12488z"/><path d="m20.65552 5.63874h-16.58301v4.125h16.583zm-.74952 3.375h-15.08349v-2.625h15.08349z"/><path d="m18.43988 8.3653a.66462.66462 0 1 0 -.69324-.66406.67957.67957 0 0 0 .69324.66406zm0-.78894a.128.128 0 0 1 .13037.12488c0 .1383-.26111.137-.26111 0a.1281.1281 0 0 1 .13074-.12488z"/><path d="m4.08325 15.03229v4.125h16.583v-4.125zm15.8335 3.375h-15.0835v-2.625h15.0835z"/><path d="m18.45056 17.75886a.66456.66456 0 1 0 -.69324-.66394.67954.67954 0 0 0 .69324.66394zm0-.78882a.128.128 0 0 1 .13037.12488c0 .1383-.26111.13684-.26111 0a.12811.12811 0 0 1 .13074-.12492z"/></svg>
