<svg viewBox="0 0 24 24" xmlns="http://www.w3.org/2000/svg"><path d="m17.59222 15.3169a2.28292 2.28292 0 0 0 -1.82794.92419l-6.36695-3.67639c.00531-.06348.01911-.12451.01911-.18921 0-.0625-.01349-.12134-.01843-.18262l6.45361-3.72558a2.27525 2.27525 0 1 0 -.38953-.64209l-6.25287 3.60974a2.29165 2.29165 0 1 0 -.00293 1.88635l6.2146 3.58838a2.26178 2.26178 0 0 0 -.12066.69922 2.29175 2.29175 0 1 0 2.292-2.292zm0-9.86524a1.542 1.542 0 1 1 -1.542 1.542 1.54321 1.54321 0 0 1 1.542-1.542zm-10.46777 8.46485a1.54151 1.54151 0 1 1 1.542-1.541 1.543 1.543 0 0 1 -1.542 1.541zm10.46777 5.23437a1.542 1.542 0 1 1 1.5415-1.542 1.54363 1.54363 0 0 1 -1.5415 1.542z"/></svg>
