<svg viewBox="0 0 24 24" xmlns="http://www.w3.org/2000/svg"><path d="m7.76642 16.76811a.92383.92383 0 1 0 .92383.92382.92482.92482 0 0 0 -.92383-.92382zm-.17432.92382a.17408.17408 0 0 1 .34815 0c0 .19239-.34815.19043-.34815 0z"/><path d="m16.92834 16.76811a.92383.92383 0 1 0 .92383.92382.92482.92482 0 0 0 -.92383-.92382zm-.17431.92382a.17407.17407 0 0 1 .34814 0c0 .19239-.34817.19043-.34817 0z"/><path d="m16.92822 13.98087a.37482.37482 0 0 0 .31446-.17089l3.36181-5.18653a.37535.37535 0 0 0 -.31494-.5791h-12.09375v-2.19726a.37509.37509 0 0 0 -.375-.375h-3.3628v.75h2.9878v9.95605a.3751.3751 0 0 0 .375.375h11.03565v-.75h-10.66065v-1.82227zm2.67139-5.18652-2.875 4.43652h-8.52881v-4.43652z"/></svg>
