<svg viewBox="0 0 24 24" xmlns="http://www.w3.org/2000/svg"><path d="m18.94134 14.5249a3.03532 3.03532 0 0 0 -.23346-.44531c.01361-.02759.03247-.05664.0445-.084a9.32316 9.32316 0 0 0 .3413-3.375c-.06591-.82324-.49218-3.167-.51269-3.27735a1.09958 1.09958 0 0 0 -2.15625.43164l.32178 2.26856a.33292.33292 0 0 0 -.03467.084.34124.34124 0 0 1 -.061-.04882l-3.47513-5.46192a1.09994 1.09994 0 0 0 -2.00977.30078 1.06777 1.06777 0 0 0 .10938.80567l.04.081-.70556-.88476a1.09983 1.09983 0 0 0 -1.72751 1.36137l.73584 1.07524-.38086-.36035a1.10015 1.10015 0 0 0 -1.57224 1.53902l.811.9209a1.12671 1.12671 0 0 0 -1.01807.2959 1.09772 1.09772 0 0 0 -.01367 1.541s.19086.21.48877.52759a1.09789 1.09789 0 0 0 -.12793 2.14331l.0835.02832-1.1211-.12695a1.09966 1.09966 0 0 0 -1.209.97949 1.09283 1.09283 0 0 0 .94873 1.2041l1.28277.24122-.52539.01465a1.09975 1.09975 0 0 0 -.02539 2.19922h.00147l1.22461.0791a1.09957 1.09957 0 0 0 .56884 2.02832h.001c.43408.02149 1.4458.06543 2.64893.06543 2.4375-.001 5.65869-.17871 6.44287-1.07617a6.66578 6.66578 0 0 0 .8144-5.0752zm-10.95361-4.24218c.13281-.13282.31787-.1709.53955.03808l2.00244 1.457a.3754.3754 0 0 0 .50244-.55175l-2.82031-3.20505a.35.35 0 1 1 .50244-.48731l2.93164 2.77149a.37514.37514 0 0 0 .56738-.48438l-2.73-3.9873a.35043.35043 0 0 1 .542-.44434l2.86669 3.59571a.37511.37511 0 0 0 .62989-.39942l-1.58889-3.22168a.35066.35066 0 0 1 .11963-.48047.35272.35272 0 0 1 .48535.12793l3.49072 5.48633a.75339.75339 0 0 0 .90576.31934.917.917 0 0 0 .56153-.68262.36383.36383 0 0 0 .00293-.124l-.33639-2.36628a.35008.35008 0 0 1 .68262-.15527c.00439.02344.438 2.40527.50049 3.19141a10.193 10.193 0 0 1 -.16986 2.65771 12.19016 12.19016 0 0 0 -1.379-1.43994c-.62842-.53613-2.58789-1.8916-2.67969-1.95508a1.09958 1.09958 0 0 0 -1.21921 1.83017l1.83057 1.375c.01221.03418.01514.07422.03516.085-.01758.00781-.07471.01758-.07715.00879l-5.53382-1.23068c-.68573-.70569-1.1499-1.21924-1.16491-1.23523a.34775.34775 0 0 1 0-.49316zm9.5747 8.82324c-.72168.82812-5.59082.90332-8.5083.75488a.3506.3506 0 0 1 -.35009-.34961.3739.3739 0 0 1 .4082-.35547l2.44676-.38476a.37469.37469 0 0 0 -.03418-.74414l-4.26024-.27246a.35018.35018 0 1 1 .01075-.7002l4.03271-.11328a.37486.37486 0 0 0 .05859-.74316l-4.751-.89063a.3503.3503 0 0 1 -.1836-.62012.34289.34289 0 0 1 .21827-.07812.21853.21853 0 0 1 .03564.00195l4.56934.51563a.3754.3754 0 0 0 .16259-.72852l-3.40087-1.15332a.35036.35036 0 1 1 .17774-.67773l6.34865 1.4111a.75652.75652 0 0 0 .86572-.41406.92045.92045 0 0 0 -.08349-.87793.38418.38418 0 0 0 -.0874-.09278l-1.91114-1.43457a.35058.35058 0 0 1 -.103-.48437.34586.34586 0 0 1 .22119-.15137.3351.3351 0 0 1 .2539.043c.02.01367 2.01075 1.39062 2.61133 1.90234a8.6287 8.6287 0 0 1 1.9336 2.332 6.14465 6.14465 0 0 1 -.68167 4.30574z"/></svg>