<svg viewBox="0 0 24 24" xmlns="http://www.w3.org/2000/svg"><path d="m18.03613 6.79505v-1.35938h-1.09863v-1.36035h-7.8833v.05774l-3.38983 4.66494h-.0506v9.13867h1.09863v1.36033h1.09815v1.35938h11.32373v-13.86133zm-.75 0h-6.03513v.05774l-.34766.47845v-1.14557h6.38281zm-7.13281-.02637v1.59467l-1.30432 1.79498h-1.159zm1.09768 1.36011v3.38891h-2.46261zm4.9365-3.30347v.61035h-6.03418v.05707l-.34912.48041v-1.14783zm-7.1333.58374v1.59619l-1.3028 1.79275h-1.15979zm-2.69043 11.77759v-7.63865h.84259l-.44354.61035h-.05042v7.02832zm1.09863 1.36035v-7.63867h.8416l-.44281.60937h-.0506v7.0293zm10.92188 1.35938h-9.82373v-7.63868h3.44045v-4.72265h6.3833z"/></svg>
