<svg viewBox="0 0 24 24" xmlns="http://www.w3.org/2000/svg"><path d="m10.168 20.0559-.82324-.82422c-.48488-.48744-.82449-.82447-.82449-.82447s.17819-.17554.27078-.2683a1.54267 1.54267 0 0 0 -.00488-2.17481 1.57936 1.57936 0 0 0 -2.18018-.001l-.26465.26514-.24462-.24464-1.14357-1.14352-.26562-.26465 9.89013-9.88965 1.65283 1.65235-.26513.26464a1.5419 1.5419 0 0 0 0 2.18067 1.578 1.578 0 0 0 2.18066.001l.26514-.26563 1.647 1.64746zm-.60645-1.6699c.17627.17773.4209.42383.60644.60937l8.82959-8.8291-.60791-.6084a2.34253 2.34253 0 0 1 -2.95459-.24414 2.292 2.292 0 0 1 -.24365-2.9541l-.61377-.61328-8.8291 8.8291c.186.18652.43262.43359.61377.61426a2.3421 2.3421 0 0 1 2.9541.24414 2.2961 2.2961 0 0 1 .24512 2.95215z"/><path d="m12.06643 15.93578-1.01123-1.42968-1.751.02246 1.04737-1.40332-.56297-1.65824 1.65869.5625 1.40332-1.04687-.02246 1.751 1.43018 1.01075-1.67237.51953zm-.62643-2.18359.36084.50976.18554-.59765.59717-.18555-.51025-.36035.00781-.626-.501.375-.59228-.20117.20068.5918-.37451.501z"/><path d="m11.87751 8.58636h.74992v.75061h-.74992z" transform="matrix(.70775699 -.70645597 .70645597 .70775699 -2.75032 11.27481)"/><path d="m12.7613 9.47015h.74992v.75061h-.74992z" transform="matrix(.70775699 -.70645597 .70645597 .70775699 -3.1164 12.15745)"/><path d="m13.64509 10.35393h.74992v.75061h-.74992z" transform="matrix(.70775699 -.70645597 .70645597 .70775699 -3.48248 13.04009)"/><path d="m14.52895 11.23772h.75027v.75061h-.75027z" transform="matrix(.70775699 -.70645597 .70645597 .70775699 -3.84848 13.9229)"/><path d="m15.41281 12.12235h.75061v.74992h-.75061z" transform="matrix(.70580332 -.70840784 .70840784 .70580332 -4.20838 14.86109)"/></svg>
