<svg viewBox="0 0 24 24" xmlns="http://www.w3.org/2000/svg"><path d="m16.17962 12.92139a2.292 2.292 0 1 0 2.29151 2.292 2.29476 2.29476 0 0 0 -2.29151-2.292zm0 3.834a1.542 1.542 0 1 1 1.54151-1.542 1.54362 1.54362 0 0 1 -1.54151 1.54198z"/><path d="m6.769 12.92139a2.292 2.292 0 1 0 2.2915 2.292 2.29476 2.29476 0 0 0 -2.2915-2.292zm0 3.834a1.542 1.542 0 1 1 1.5415-1.542 1.54362 1.54362 0 0 1 -1.5415 1.54198z"/><path d="m8.95343 13.83838a2.56633 2.56633 0 0 1 .31836.75h4.40466a2.56606 2.56606 0 0 1 .31836-.75z"/><path d="m4.81634 7.99463h9.98828v5.03412a2.56551 2.56551 0 0 1 .75-.3183v-5.46582h-11.48828v7.34375h.19946a2.5659 2.5659 0 0 1 .55054-1.05591z"/><path d="m17.88324 7.99365h-2.07862v4.67a1.88 1.88 0 0 1 .75 0v-3.92h1.06592l.18946.15135h-1.00538v2.74121h3.11475v3.20215h-1.19a1.88 1.88 0 0 1 0 .75h1.94049v-5.36814zm2.03613 2.89258h-2.36475v-1.24123h1.19338l1.17139.93653z"/><path d="m9.31872 14.83838a1.88 1.88 0 0 1 0 .75h4.31079a1.88 1.88 0 0 1 0-.75z"/></svg>
