<svg viewBox="0 0 24 24" xmlns="http://www.w3.org/2000/svg"><path d="m9.312 18.744a11.758 11.758 0 0 1 -5.694-1.844.35.35 0 0 1 .178-.645 12.242 12.242 0 0 0 3.525-.679 3.826 3.826 0 0 1 -1.75-2.155l-.194-.6a.356.356 0 0 1 0-.212 3.809 3.809 0 0 1 -.924-2.49v-.679a.352.352 0 0 1 .172-.3.422.422 0 0 1 .053-.025 3.827 3.827 0 0 1 .322-3.141l.27-.474a.35.35 0 0 1 .574-.045l.343.422a8.006 8.006 0 0 0 5 2.876 3.819 3.819 0 0 1 6.288-2.8 5.445 5.445 0 0 0 1.376-.579l1.449-.906a.246.246 0 0 1 .36.286l-.743 1.467q-.015.049-.033.1l1.5-.311a.245.245 0 0 1 .3.36s-2.309 2.363-2.855 2.806v.048a9.428 9.428 0 0 1 -9.517 9.52zm-4.346-1.886a10.578 10.578 0 0 0 4.346 1.186 8.736 8.736 0 0 0 8.821-8.821v-.206a.35.35 0 0 1 .136-.287c.545-.419 2.17-1.983 2.17-1.983s-1.637.516-1.762.563c-.142.055-.109-.11-.023-.236.172-.249.966-1.495.966-1.495a12.349 12.349 0 0 1 -2.156 1.1.346.346 0 0 1 -.318-.086 3.118 3.118 0 0 0 -5.255 2.271c0 .088 0 .175.01.262a.348.348 0 0 1 -.1.28.354.354 0 0 1 -.282.1 8.706 8.706 0 0 1 -5.875-3.183l-.024-.03-.02.034a3.123 3.123 0 0 0 .063 3.239.35.35 0 0 1 -.453.5l-.058-.032v.045a3.136 3.136 0 0 0 1.117 2.43.35.35 0 0 1 -.071.582l.039.119a3.124 3.124 0 0 0 2.02 2.019.35.35 0 0 1 .072.634 9.276 9.276 0 0 1 -3.363.995z"/></svg>
