<svg viewBox="0 0 24 24" xmlns="http://www.w3.org/2000/svg"><path d="m5.2077 19.00724h14.30078v.75h-14.30078z"/><path d="m6.40984 17.50724h12.01465v.75h-12.01465z"/><path d="m6.40984 10.33634h12.01465v.75h-12.01465z"/><path d="m10.51824 11.82755h.75v4.92676h-.75z"/><path d="m16.62567 11.82755h.75v4.92676h-.75z"/><path d="m13.57195 11.82755h.75v4.92676h-.75z"/><path d="m7.46453 11.82365h.75v4.92676h-.75z"/><path d="m19.696 8.88615-1.915-1.10547-5.43366-3.13668-4.69534 2.7109-2.6318 1.51953a.37526.37526 0 0 0 .1875.70019l1.20214.00086v.01086h12.01465v-.001l1.084.001a.37517.37517 0 0 0 .1875-.70019zm-11.669-.88086 4.32031-2.4961 5.0586 2.92188.70019.4043-1.62793-.002v.00293h-8.541v-.00972l-1.332-.001z"/></svg>
