<svg viewBox="0 0 24 24" xmlns="http://www.w3.org/2000/svg"><path d="m12.37493 4.0835a8.29151 8.29151 0 1 0 8.292 8.292 8.30132 8.30132 0 0 0 -8.292-8.292zm0 15.833a7.54151 7.54151 0 1 1 7.542-7.541 7.55 7.55 0 0 1 -7.542 7.54101z"/><path d="m12.35852 8.41272a1.01993 1.01993 0 1 0 -1.01952-1.02032 1.02161 1.02161 0 0 0 1.01952 1.02032zm0-1.43988a.41992.41992 0 1 1 -.4195.41956.42031.42031 0 0 1 .4195-.41956z"/><path d="m18.01867 8.61267h-11.32031a.7.7 0 0 0 0 1.4h3.6203v3.51953h.2345l-.40479 2.29846-.41637 2.36014v.00079a.89112.89112 0 0 0 .73358 1.02265.91168.91168 0 0 0 .15857.01409.88956.88956 0 0 0 .88049-.72424l.41559-2.36017.439-2.48816.43683 2.47571.41644 2.3609a.86265.86265 0 0 0 .37109.56952.90381.90381 0 0 0 .50543.15473.94727.94727 0 0 0 .16175-.01484.90262.90262 0 0 0 .58825-.37188.86309.86309 0 0 0 .14533-.65082l-.41569-2.36008-.40338-2.28674h.23309v-3.51956h3.6203a.7.7 0 0 0 0-1.4zm-7.70467.80005h-3.61564a.1.1 0 0 1 0-.2h3.61564zm1.01563 6.62653-.41563 2.36017a.30094.30094 0 0 1 -.59137-.10437l.41638-2.35968.42322-2.40314h.60968zm-.411-3.107v-3.71954h2.8797v3.71954zm3.475 5.35157a.26675.26675 0 0 1 -.04608.20153.31492.31492 0 0 1 -.4281.07892.26754.26754 0 0 1 -.11645-.17657l-.41639-2.361-.44018-2.49451h.60974l.42187 2.39142zm3.625-8.8711h-3.6203v-.2h3.6203a.1.1 0 1 1 0 .2z"/></svg>
