<svg viewBox="0 0 24 24" xmlns="http://www.w3.org/2000/svg"><path d="m10.24219 12.96228h-3.22559a2.93659 2.93659 0 0 0 -2.9336 2.93262v2.86426h.75v-2.86426a2.18577 2.18577 0 0 1 2.1836-2.18262h3.22559a2.18577 2.18577 0 0 1 2.18359 2.18262v2.86426h.75v-2.86426a2.93659 2.93659 0 0 0 -2.93359-2.93262z"/><path d="m8.62988 12.18591a3.28516 3.28516 0 1 0 -3.28515-3.28515 3.28877 3.28877 0 0 0 3.28515 3.28515zm0-5.82031a2.53516 2.53516 0 1 1 -2.53515 2.53516 2.53859 2.53859 0 0 1 2.53515-2.53516z"/><path d="m13.757 8.428 2.374 1.412v-.92l-1.674-.847 1.674-.864v-.92l-2.374 1.409z"/><path d="m16.536 10.935h.541l1.625-5.986h-.541z"/><path d="m19.19 6.289v.905l1.752.859-1.752.879v.904l2.451-1.408v-.73z"/></svg>
