<svg viewBox="0 0 24 24" xmlns="http://www.w3.org/2000/svg"><path d="m19.23828 4.03626-5.55957 5.583-.33887 1.79981 1.80616-.332 5.562-5.58597zm.002 1.06054.40772.40625-.61273.6153-.40927-.40479zm-4.46044 5.29493-.50049.09179.09375-.499 3.72376-3.73952.40924.40472z"/><path d="m10.24219 12.962h-3.2251a2.93711 2.93711 0 0 0 -2.93359 2.93363v2.86328h.75v-2.86328a2.186 2.186 0 0 1 2.18359-2.18363h3.2251a2.186 2.186 0 0 1 2.18359 2.18359v2.86328h.75v-2.86324a2.93711 2.93711 0 0 0 -2.93359-2.93363z"/><path d="m8.62939 12.18567a3.28516 3.28516 0 1 0 -3.28515-3.28516 3.28877 3.28877 0 0 0 3.28515 3.28516zm0-5.82031a2.53516 2.53516 0 1 1 -2.53515 2.53515 2.53826 2.53826 0 0 1 2.53515-2.53515z"/></svg>
