<svg viewBox="0 0 24 24" xmlns="http://www.w3.org/2000/svg"><path d="m17.73992 10.76258h-.62567a2.375 2.375 0 1 0 -.96545 0h-.62519a2.12839 2.12839 0 0 0 -.80474.16095 2.55215 2.55215 0 0 0 -4.02973-.87714 2.11288 2.11288 0 0 0 -1.51709-.64416h-.62567a2.375 2.375 0 1 0 -.96545 0h-.62519a2.13577 2.13577 0 0 0 -2.13374 2.13277v3.1416h.75v-3.1416a1.38463 1.38463 0 0 1 1.38379-1.38281h2.21626a1.37383 1.37383 0 0 1 1.029.45819 2.55083 2.55083 0 0 0 -.40105 1.36607 2.575 2.575 0 1 0 5.1499 0 2.52656 2.52656 0 0 0 -.03094-.30579 1.365 1.365 0 0 1 .60467-.15808h2.21631a1.38536 1.38536 0 0 1 1.3833 1.38379v3.14163h.75v-3.1416a2.13587 2.13587 0 0 0 -2.13332-2.13382zm-2.7334-2.3252a1.625 1.625 0 1 1 1.625 1.625 1.62657 1.62657 0 0 1 -1.625-1.625zm-8.56787-1.36038a1.625 1.625 0 1 1 1.625 1.625 1.62657 1.62657 0 0 1 -1.625-1.625zm5.936 6.72461a1.82471 1.82471 0 1 1 1.82519-1.82519 1.82662 1.82662 0 0 1 -1.82515 1.82522z"/><path d="m13.59393 14.57215h-2.438a2.311 2.311 0 0 0 -2.30908 2.30859v2.64453h.75v-2.64453a1.56051 1.56051 0 0 1 1.55908-1.55859h2.438a1.56093 1.56093 0 0 1 1.55957 1.55859v2.64453h.75v-2.64453a2.31144 2.31144 0 0 0 -2.30957-2.30859z"/></svg>
