<svg viewBox="0 0 24 24" xmlns="http://www.w3.org/2000/svg"><path d="m17.07684 6.05481a1.72119 1.72119 0 1 0 1.72116 1.72168 1.72337 1.72337 0 0 0 -1.72116-1.72168zm0 2.69238a.97119.97119 0 1 1 .9712-.9707.972.972 0 0 1 -.9712.9707z"/><path d="m20.67011 8.90247v-2.30762h-.86036a3.02066 3.02066 0 0 0 -.38232-.64355l.4292-.74414-1.999-1.15333-.43848.76368a2.90114 2.90114 0 0 0 -.73.00683l-.436-.76074-2.0039 1.15723.4497.76562a2.96321 2.96321 0 0 0 -.36474.62891h-.87549v2.30764h.86914a2.93469 2.93469 0 0 0 .37256.64453l-.42871.74316 1.998 1.15332.42382-.73633a2.78848 2.78848 0 0 0 .76514.001l.41846.72363 1.99757-1.15331-.42237-.73047a2.93318 2.93318 0 0 0 .38135-.666zm-1.37989-.75-.08007.2666a2.20182 2.20182 0 0 1 -.49024.85742l-.18506.20313.31543.54589-.69873.40332-.313-.542-.26953.06153a2.1825 2.1825 0 0 1 -.98584-.002l-.27-.06054-.31884.55273-.69825-.40332.32129-.55664-.18457-.20313a2.21043 2.21043 0 0 1 -.48486-.83886l-.08155-.2636h-.65772v-.80764l.65967.0039.08349-.26464a2.22713 2.22713 0 0 1 .48145-.82911l.18506-.2041-.33985-.5791.69825-.40332.33154.5791.271-.0625a2.20429 2.20429 0 0 1 .958-.00879l.26709.05664.32959-.57421.69825.40332-.32622.56445.19141.20312a2.24878 2.24878 0 0 1 .49756.83594l.08447.25879h.64014v.80762z"/><path d="m10.25311 12.962h-3.22511a2.93712 2.93712 0 0 0 -2.9336 2.93359v2.86328h.75v-2.86324a2.186 2.186 0 0 1 2.1836-2.18363h3.22509a2.186 2.186 0 0 1 2.1836 2.18359v2.86328h.75v-2.86324a2.93712 2.93712 0 0 0 -2.93358-2.93363z"/><path d="m8.64032 12.18567a3.28516 3.28516 0 1 0 -3.28516-3.28516 3.28878 3.28878 0 0 0 3.28516 3.28516zm0-5.82031a2.53516 2.53516 0 1 1 -2.53516 2.53515 2.53826 2.53826 0 0 1 2.53516-2.53515z"/></svg>
