<svg viewBox="0 0 24 24" xmlns="http://www.w3.org/2000/svg"><path d="m10.24219 12.962h-3.2251a2.93711 2.93711 0 0 0 -2.93359 2.93363v2.86328h.75v-2.86328a2.186 2.186 0 0 1 2.18359-2.18363h3.2251a2.186 2.186 0 0 1 2.18359 2.18359v2.86328h.75v-2.86324a2.93711 2.93711 0 0 0 -2.93359-2.93363z"/><path d="m8.62939 12.18567a3.28516 3.28516 0 1 0 -3.28515-3.28516 3.28877 3.28877 0 0 0 3.28515 3.28516zm0-5.82031a2.53516 2.53516 0 1 1 -2.53515 2.53515 2.53826 2.53826 0 0 1 2.53515-2.53515z"/><path d="m21.646 5.182-5.239 5.239-2.332-2.333-.531.531 2.863 2.863 5.77-5.769z"/></svg>
