<svg viewBox="0 0 24 24" xmlns="http://www.w3.org/2000/svg"><path d="m4.06633 5.61536v13.51855h16.584v-13.51855zm14.80945.75h.81781v.99316h-.81781zm-1.979 0h.81781v.99316h-.81781zm-1.979 0h.81781v.99316h-.81781zm-1.979 0h.81781v.99316h-.81781zm-1.979 0h.81781v.99316h-.81781zm-1.979 0h.81781v.99316h-.81783zm-1.979 0h.81781v.99316h-.81784zm-1.979 0h.81781v.99316h-.81784zm.81781 12.01855h-.81784v-.99841h.81781zm1.979 0h-.81784v-.99841h.81781zm1.979 0h-.81783v-.99841h.81781zm1.979 0h-.81781v-.99841h.81781zm1.979 0h-.81781v-.99841h.81781zm1.979 0h-.81781v-.99841h.81781zm1.979 0h-.81781v-.99841h.81781zm1.979 0h-.81781v-.99841h.81781zm.20672-1.613h-15.08398v-8.79184h15.084z"/><path d="m10.99357 8.76184v7.22461l3.61182-3.61133zm.75 1.81153 1.80127 1.80175-1.80127 1.80079z"/></svg>
