<svg viewBox="0 0 24 24" xmlns="http://www.w3.org/2000/svg"><path d="m16.583 12.118-.53 2.47-2.47.53 2.47.53.53 2.47.53-2.47 2.47-.53-2.47-.53z"/><path d="m7.761 11.652.398-1.852 1.852-.398-1.852-.398-.398-1.852-.398 1.852-1.852.398 1.852.398z"/><path d="m10.81 9.577.398-1.852 1.852-.398-1.852-.398-.398-1.852-.398 1.852-1.852.398 1.852.398z"/><path d="m17.59222 4.54151-12.98877 12.98925 2.5249 2.52539 12.98926-12.98925zm-11.92822 12.98925 9.56231-9.56268 1.46479 1.46478-9.56275 9.56275z"/></svg>
