<svg viewBox="0 0 24 24" xmlns="http://www.w3.org/2000/svg"><path d="m12.39812 15.97119a.69225.69225 0 0 0 -.54688.207.74214.74214 0 0 0 -.18457.51172.66617.66617 0 0 0 .73145.70508.72171.72171 0 0 0 .55029-.20117.7061.7061 0 0 0 .1875-.50391.73529.73529 0 0 0 -.1875-.51172.70341.70341 0 0 0 -.55029-.207z"/><path d="m12.922 14.551.093-7.002h-1.301l.087 7.002z"/><path d="m12.37517 4.0835a8.29151 8.29151 0 1 0 8.291 8.292 8.30132 8.30132 0 0 0 -8.291-8.292zm0 15.833a7.54151 7.54151 0 1 1 7.5415-7.541 7.55 7.55 0 0 1 -7.5415 7.54101z"/></svg>
