<svg viewBox="0 0 24 24" xmlns="http://www.w3.org/2000/svg"><path d="m5.22283 15.74162a10.79521 10.79521 0 0 0 10.78317-10.78321h-.75a10.0447 10.0447 0 0 1 -10.03317 10.03321z"/><path d="m5.22283 11.91642a6.96587 6.96587 0 0 0 6.958-6.958h-.75a6.21505 6.21505 0 0 1 -6.208 6.208z"/><path d="m19.12322 4.933a13.8518 13.8518 0 0 1 -13.92578 14.07424v.75a14.59368 14.59368 0 0 0 14.67578-14.82424z"/><path d="m6.12115 6.78141a.92407.92407 0 1 0 -.92383-.92383.92472.92472 0 0 0 .92383.92383zm0-1.09814a.17407.17407 0 0 1 0 .34814c-.19238 0-.19043-.34814 0-.34814z"/></svg>
