<svg viewBox="0 0 96 24" xmlns="http://www.w3.org/2000/svg"><path d="m7.2666 9.96159a2.04093 2.04093 0 0 1 1.71973-.79981 1.98023 1.98023 0 0 1 2.06445 1.93457h.78613a2.64543 2.64543 0 0 0 -.84375-1.90722 2.85749 2.85749 0 0 0 -2.00683-.72461 3.03176 3.03176 0 0 0 -1.6709.458 2.94876 2.94876 0 0 0 -1.09766 1.29883 4.63109 4.63109 0 0 0 -.38277 1.93457v.2461a4.08325 4.08325 0 0 0 .85156 2.7207 2.85412 2.85412 0 0 0 2.30664 1.01172 3.12185 3.12185 0 0 0 1.38473-.31444 2.65685 2.65685 0 0 0 1.03516-.8711 2.31681 2.31681 0 0 0 .42382-1.23437h-.78613a1.69588 1.69588 0 0 1 -.626 1.248 2.15841 2.15841 0 0 1 -1.43164.48145 2.0528 2.0528 0 0 1 -1.72656-.793 3.5415 3.5415 0 0 1 -.61133-2.208v-.23926a3.62425 3.62425 0 0 1 .61135-2.24213z"/><path d="m14.48828 8.92252a2.94868 2.94868 0 0 0 -1.09765 1.29883 4.63094 4.63094 0 0 0 -.38282 1.93457v.2461a4.08326 4.08326 0 0 0 .85157 2.7207 2.85409 2.85409 0 0 0 2.30662 1.01172 3.12184 3.12184 0 0 0 1.38478-.31444 2.65685 2.65685 0 0 0 1.03516-.8711 2.3169 2.3169 0 0 0 .42383-1.23437h-.78614a1.69587 1.69587 0 0 1 -.626 1.248 2.15845 2.15845 0 0 1 -1.43163.48147 2.05282 2.05282 0 0 1 -1.72657-.793 3.5415 3.5415 0 0 1 -.61132-2.208v-.23926a3.62425 3.62425 0 0 1 .61132-2.24218 2.04094 2.04094 0 0 1 1.71973-.79981 1.98022 1.98022 0 0 1 2.06445 1.93457h.78614a2.64547 2.64547 0 0 0 -.84375-1.90719 2.85754 2.85754 0 0 0 -2.00684-.72461 3.03176 3.03176 0 0 0 -1.67088.458z"/><path d="m12.38525 4.08366a8.2915 8.2915 0 1 0 8.29151 8.292 8.30132 8.30132 0 0 0 -8.29151-8.292zm0 15.833a7.5415 7.5415 0 1 1 7.542-7.541 7.55 7.55 0 0 1 -7.542 7.541z"/><path d="m36.38477 5.49967a3.81547 3.81547 0 0 0 -3.81934 3.708 3.81564 3.81564 0 0 0 3.81934 3.709 3.7085 3.7085 0 1 0 0-7.417zm0 6.667a3.05617 3.05617 0 0 1 -3.06934-2.959 3.05535 3.05535 0 0 1 3.06934-2.958 2.9585 2.9585 0 1 1 0 5.917z"/><path d="m36.38574 4.08366a8.35752 8.35752 0 0 0 -8.40332 8.292 8.35732 8.35732 0 0 0 8.40332 8.291 8.29226 8.29226 0 0 0 0-16.583zm-4.51465 14.36718v-1.8125a2.64875 2.64875 0 0 1 2.667-2.55566h3.69433a2.47523 2.47523 0 0 1 2.44434 2.55566v1.92481a7.3786 7.3786 0 0 1 -4.291 1.35351 7.67757 7.67757 0 0 1 -4.51467-1.46582zm9.55567-.502v-1.3105a3.217 3.217 0 0 0 -3.19434-3.30566h-3.69433a3.40746 3.40746 0 0 0 -3.417 3.30566v1.19629a7.46313 7.46313 0 0 1 -2.38867-5.459 7.60676 7.60676 0 0 1 7.65332-7.542 7.40671 7.40671 0 0 1 7.42969 7.542 7.54777 7.54777 0 0 1 -2.38867 5.57326z"/><path d="m60.38525 4.08366a8.2915 8.2915 0 1 0 8.292 8.292 8.30132 8.30132 0 0 0 -8.292-8.292zm0 .75a7.5381 7.5381 0 0 1 6.30175 3.40918l-12.9879 7.6084a7.53077 7.53077 0 0 1 6.68615-11.01758zm0 15.083a7.5378 7.5378 0 0 1 -6.30706-3.418l12.98881-7.60836a7.53108 7.53108 0 0 1 -6.68177 11.02636z"/><path d="m58.70886 12.04752.78424-.459a2.88834 2.88834 0 0 1 -.54339-.373 1.65981 1.65981 0 0 1 -.499-1.2832 1.77854 1.77854 0 0 1 .543-1.35938 2.12916 2.12916 0 0 1 1.51465-.50976 1.92333 1.92333 0 0 1 1.52051.63184 2.2193 2.2193 0 0 1 .50354 1.1123l.74347-.43555a2.73433 2.73433 0 0 0 -.53607-1.12109 2.61352 2.61352 0 0 0 -1.86231-.89844v-1.38089h-.69726v1.38086a2.83291 2.83291 0 0 0 -1.85938.78906 2.46565 2.46565 0 0 0 -.68359 1.8086 2.42624 2.42624 0 0 0 .62207 1.72558 2.732 2.732 0 0 0 .44952.37207z"/><path d="m62.39209 12.86491c-.08984-.06153-.19342-.123-.30981-.18653l-.82862.48536a3.38315 3.38315 0 0 1 .90894.57617 1.66181 1.66181 0 0 1 .49219 1.24121 1.69173 1.69173 0 0 1 -.61231 1.35351 2.36044 2.36044 0 0 1 -1.582.51953 2.38619 2.38619 0 0 1 -1.73633-.60546 2.06609 2.06609 0 0 1 -.59021-1.25684l-.75116.43945a2.59953 2.59953 0 0 0 .65094 1.26856 3.11971 3.11971 0 0 0 2.126.86523v1.292h.69043v-1.29883a2.98686 2.98686 0 0 0 1.9248-.78321 2.41883 2.41883 0 0 0 .7002-1.80761 2.5663 2.5663 0 0 0 -.27051-1.22071 2.498 2.498 0 0 0 -.81255-.88183z"/><path d="m84.38574 4.08366a8.2915 8.2915 0 1 0 8.291 8.291 8.30111 8.30111 0 0 0 -8.291-8.291zm0 15.833a7.5415 7.5415 0 1 1 7.541-7.542 7.5505 7.5505 0 0 1 -7.541 7.542z"/><path d="m87.11133 11.66276 1.9414-.02149.95215-1.6914-.65429-.36817-.49555.88086a4.79037 4.79037 0 1 0 .36176 2.58106l-.74219-.10352a4.08977 4.08977 0 1 1 -.25269-2.04l-1.1184.0127z"/></svg>
