<svg fill="none" height="64" viewBox="0 0 259 64" width="259" xmlns="http://www.w3.org/2000/svg"><g clip-rule="evenodd" fill-rule="evenodd"><g fill="#000"><path d="m49.6457 10.9089c.5486.3636 1.0972.5455 1.9201.5455 1.0971 0 1.92-.5455 1.92-1.81821 0-1.72728-4.0229-1.90909-4.0229-4.18182 0-1.36364 1.1886-2.27273 2.7428-2.27273.4572 0 1.0972.09091 1.7372.27273l-.1829.81818c-.3657-.27273-.9143-.36364-1.5543-.36364-.9142 0-1.92.36364-1.92 1.54546 0 1.72727 4.0229 1.72727 4.0229 4.27272 0 1.72731-1.4629 2.45451-2.8343 2.45451-.8228 0-1.4628-.1818-2.0114-.3636z"/><path d="m61.0744 6.5451c-.4572-.18182-.9143-.36364-1.3715-.36364-1.5543 0-2.3771 1.09091-2.3771 2.63637 0 1.45457.9143 2.63637 2.2857 2.63637.4571 0 1.0057-.0909 1.4629-.2727l.0914.7272c-.5486.1819-1.0057.1819-1.6457.1819-2.0115 0-3.0172-1.5455-3.0172-3.36368 0-2 1.28-3.36364 3.1086-3.36364.7314 0 1.28.18182 1.5543.27273z"/><path d="m63.4512 2.63574h.8228v4.09091c.3657-.72727 1.0057-1.18182 2.0115-1.18182 1.7371 0 2.1942 1.18182 2.1942 2.72728v3.81819h-.8228v-3.81819c0-1.09091-.1829-2.09091-1.4629-2.09091-1.3714 0-1.92 1.36363-1.92 2.45454v3.45456h-.8228z"/><path d="m77.8969 12.0902h-.9143l-1.7371-5.54546-1.8286 5.54546h-.9143l-2.0114-6.36364h.8229l1.6457 5.54544 1.7371-5.54544h.9143l1.6457 5.54544 1.7372-5.54544h.8228z"/><path d="m85.8515 8.4541c0-1.09091-.4572-2.18182-1.6458-2.18182-1.1885 0-1.8285 1.18182-1.8285 2.18182zm.3657 3.3636c-.5486.1819-1.28.3637-1.8286.3637-2.1028 0-2.9257-1.4546-2.9257-3.36366 0-1.90909 1.0971-3.36364 2.6514-3.36364 1.8286 0 2.56 1.45455 2.56 3.18182v.36364h-4.3886c0 1.36364.7315 2.45454 2.1029 2.45454.5486 0 1.3714-.2727 1.7371-.4545v.8181z"/><path d="m89.2344 12.09h.8228v-6.36362h-.8228zm0-8.09089h.8228v-1.09091h-.8228z"/><path d="m92.3428 11.363 3.84-4.99999h-3.6572v-.72727h4.5715v.63637l-3.84 4.99999h3.84v.8182h-4.7543z"/><path d="m103.314 8.4541c0-1.09091-.457-2.18182-1.645-2.18182-1.189 0-1.8289 1.18182-1.8289 2.18182zm.366 3.3636c-.548.1819-1.28.3637-1.828.3637-2.1034 0-2.9262-1.4546-2.9262-3.36366 0-1.90909 1.0972-3.36364 2.6512-3.36364 1.829 0 2.56 1.45455 2.56 3.18182v.36364h-4.3884c0 1.36364.7314 2.45454 2.1034 2.45454.548 0 1.371-.2727 1.737-.4545v.8181z"/><path d="m106.605 7.09047c0-.72728 0-1-.091-1.45455h.823v1.18182c.274-.72727.822-1.36364 1.645-1.36364.183 0 .366 0 .549.09091v.81818c-.183-.09091-.366-.09091-.549-.09091-1.28 0-1.554 1.36364-1.554 2.54546v3.27276h-.823z"/><path d="m111.726 12.09h.822v-6.36362h-.822zm0-8.09089h.822v-1.09091h-.822z"/><path d="m115.017 11.0905c.457.2727 1.005.3636 1.645.3636.732 0 1.372-.4545 1.372-1.1818 0-1.54547-3.017-1.27274-3.017-3.09093 0-1.27272 1.005-1.72727 2.102-1.72727.366 0 1.006.09091 1.555.27273l-.092.72727c-.365-.18182-1.005-.27273-1.371-.27273-.823 0-1.372.27273-1.372 1.09091 0 1.18182 3.109 1 3.109 3.09092 0 1.3636-1.28 1.8182-2.194 1.8182-.64 0-1.189-.0909-1.737-.2728z"/><path d="m125.44 6.5451c-.458-.18182-.915-.36364-1.372-.36364-1.554 0-2.377 1.09091-2.377 2.63637 0 1.45457.914 2.63637 2.286 2.63637.457 0 .914-.0909 1.463-.2727l.091.7272c-.549.1819-1.006.1819-1.646.1819-2.011 0-3.017-1.5455-3.017-3.36368 0-2 1.28-3.36364 3.109-3.36364.731 0 1.28.18182 1.554.27273z"/><path d="m127.816 2.63574h.823v4.09091c.366-.72727 1.006-1.18182 2.012-1.18182 1.737 0 2.194 1.18182 2.194 2.72728v3.81819h-.823v-3.81819c0-1.09091-.183-2.09091-1.463-2.09091-1.371 0-1.92 1.36363-1.92 2.45454v3.45456h-.823z"/><path d="m139.519 8.4541c0-1.09091-.457-2.18182-1.645-2.18182-1.189 0-1.829 1.18182-1.829 2.18182zm.366 3.3636c-.548.1819-1.28.3637-1.828.3637-2.103 0-2.926-1.4546-2.926-3.36366 0-1.90909 1.097-3.36364 2.651-3.36364 1.829 0 2.56 1.45455 2.56 3.18182v.36364h-4.388c0 1.36364.731 2.45454 2.103 2.45454.548 0 1.371-.2727 1.737-.4545v.8181z"/><path d="m147.017 3.36328h4.297v.72727h-3.383v3.09091h3.2v.72728h-3.2v3.36366h3.566v.8182h-4.389v-8.72732z"/><path d="m154.148 12.09h.823v-6.36362h-.823zm0-8.09089h.823v-1.09091h-.823z"/><path d="m160.183 11.5448c1.371 0 1.92-1.54542 1.92-2.63633 0-1.18182-.457-2.63636-1.92-2.63636s-1.92 1.45454-1.92 2.63636c.091 1.18183.457 2.63633 1.92 2.63633zm2.651.5455h-.823v-1c-.457.8182-1.097 1.1818-2.011 1.1818-1.737 0-2.651-1.4545-2.651-3.36363 0-1.90909.731-3.36364 2.651-3.36364 1.28 0 1.829.90909 2.011 1.18182v-4.09091h.823z"/><path d="m168.045 11.3632c1.463 0 1.92-1.36364 1.92-2.54546 0-1.54546-.457-2.63637-1.92-2.63637s-1.92 1.45455-1.92 2.63637c.091 1.27276.549 2.54546 1.92 2.54546zm2.743.1818c0 1.8182-.823 3.1818-3.017 3.1818-.823 0-1.555-.2727-1.92-.3636l.091-.8182c.457.2727 1.189.4546 1.829.4546 2.011 0 2.194-1.4546 2.194-3.2728-.457.9091-1.097 1.2728-1.92 1.2728-2.011 0-2.651-1.8182-2.651-3.18186 0-1.90909.731-3.36364 2.651-3.36364.823 0 1.371.09091 2.011.90909v-.72727h.823v5.90908z"/><path d="m177.462 8.4541c0-1.09091-.457-2.18182-1.646-2.18182-1.188 0-1.828 1.18182-1.828 2.18182zm.457 3.3636c-.548.1819-1.28.3637-1.828.3637-2.103 0-2.926-1.4546-2.926-3.36366 0-1.90909 1.097-3.36364 2.651-3.36364 1.829 0 2.56 1.45455 2.56 3.18182v.36364h-4.388c0 1.36364.731 2.45454 2.103 2.45454.548 0 1.371-.2727 1.737-.4545v.8181z"/><path d="m180.845 7.18129c0-.45455 0-1-.091-1.54546h.731v1.18182c.274-.54546.731-1.27273 2.011-1.27273 1.555 0 2.195 1.09091 2.195 2.45455v4.09093h-.823v-3.90911c0-1.18182-.457-2-1.463-2-1.463 0-1.92 1.27272-1.92 2.36363v3.54548h-.823v-4.90911z"/><path d="m191.177 11.5449c1.371 0 2.103-1.1818 2.103-2.63634 0-1.45455-.732-2.63637-2.103-2.63637-1.372 0-2.103 1.18182-2.103 2.63637 0 1.45454.731 2.63634 2.103 2.63634zm0-5.99998c2.011 0 2.925 1.63637 2.925 3.36364 0 1.72724-.914 3.36364-2.925 3.36364-2.012 0-2.926-1.6364-2.926-3.36364 0-1.81818.914-3.36364 2.926-3.36364z"/><path d="m196.114 11.0905c.457.2727 1.006.3636 1.646.3636.731 0 1.371-.4545 1.371-1.1818 0-1.54547-3.017-1.27274-3.017-3.09093 0-1.27272 1.006-1.72727 2.103-1.72727.366 0 1.006.09091 1.554.27273l-.091.72727c-.366-.18182-1.006-.27273-1.371-.27273-.823 0-1.372.27273-1.372 1.09091 0 1.18182 3.109 1 3.109 3.09092 0 1.3636-1.28 1.8182-2.195 1.8182-.64 0-1.188-.0909-1.737-.2728z"/><path d="m201.966 11.0905c.457.2727 1.006.3636 1.646.3636.731 0 1.371-.4545 1.371-1.1818 0-1.54547-3.017-1.27274-3.017-3.09093 0-1.27272 1.006-1.72727 2.103-1.72727.365 0 1.005.09091 1.554.27273l-.091.72727c-.366-.18182-1.006-.27273-1.372-.27273-.823 0-1.371.27273-1.371 1.09091 0 1.18182 3.108 1 3.108 3.09092 0 1.3636-1.28 1.8182-2.194 1.8182-.64 0-1.189-.0909-1.737-.2728z"/><path d="m212.114 8.4541c0-1.09091-.457-2.18182-1.646-2.18182-1.188 0-1.828 1.18182-1.828 2.18182zm.366 3.3636c-.549.1819-1.28.3637-1.829.3637-2.103 0-2.925-1.4546-2.925-3.36366 0-1.90909 1.097-3.36364 2.651-3.36364 1.829 0 2.56 1.45455 2.56 3.18182v.36364h-4.389c0 1.36364.732 2.45454 2.103 2.45454.549 0 1.372-.2727 1.737-.4545v.8181z"/><path d="m215.406 7.18129c0-.45455 0-1-.092-1.54546h.732v1.18182c.274-.54546.731-1.27273 2.011-1.27273 1.554 0 2.194 1.09091 2.194 2.45455v4.09093h-.823v-3.90911c0-1.18182-.457-2-1.462-2-1.463 0-1.92 1.27272-1.92 2.36363v3.54548h-.823v-4.90911z"/><path d="m222.812 11.0905c.457.2727 1.005.3636 1.645.3636.732 0 1.372-.4545 1.372-1.1818 0-1.54547-3.017-1.27274-3.017-3.09093 0-1.27272 1.005-1.72727 2.102-1.72727.366 0 1.006.09091 1.555.27273l-.092.72727c-.365-.18182-1.005-.27273-1.371-.27273-.823 0-1.372.27273-1.372 1.09091 0 1.18182 3.109 1 3.109 3.09092 0 1.3636-1.28 1.8182-2.194 1.8182-.64 0-1.189-.0909-1.737-.2728z"/><path d="m233.234 6.5451c-.458-.18182-.915-.36364-1.372-.36364-1.554 0-2.377 1.09091-2.377 2.63637 0 1.45457.914 2.63637 2.286 2.63637.457 0 .914-.0909 1.463-.2727l.091.7272c-.549.1819-1.006.1819-1.646.1819-2.011 0-3.017-1.5455-3.017-3.36368 0-2 1.28-3.36364 3.109-3.36364.731 0 1.28.18182 1.554.27273z"/><path d="m235.611 2.63574h.823v4.09091c.366-.72727 1.006-1.18182 2.012-1.18182 1.737 0 2.194 1.18182 2.194 2.72728v3.81819h-.823v-3.81819c0-1.09091-.183-2.09091-1.463-2.09091-1.371 0-1.92 1.36363-1.92 2.45454v3.45456h-.823z"/><path d="m247.039 8.81765h-.182c-1.372 0-3.018.18182-3.018 1.54545 0 .8182.64 1.1818 1.28 1.1818 1.829 0 1.92-1.63634 1.92-2.27271zm.092 2.18185c-.366.7272-1.28 1.1818-2.012 1.1818-1.828 0-2.102-1.1818-2.102-1.8182 0-2.18181 2.285-2.27272 3.931-2.27272h.183v-.36364c0-1.09091-.366-1.63636-1.463-1.63636-.64 0-1.28.18181-1.829.54545v-.63636c.458-.27273 1.28-.45455 1.829-.45455 1.554 0 2.194.72727 2.194 2.36364v2.81814c0 .5455 0 .9091.092 1.3637h-.732v-1.0909z"/><path d="m251.246 6.36319h-1.28v-.72727h1.28v-.45455c0-1.36363.091-2.72727 1.646-2.72727.274 0 .548 0 .731.09091l-.091.72727c-.183-.09091-.366-.18181-.64-.18181-1.098 0-.915 1.18181-.915 1.90909v.54545h1.463v.63636h-1.463v5.90913h-.823v-5.72731z"/><path d="m258.559 6.36275h-1.463v4.09095c0 .5454.183 1.0909.823 1.0909.275 0 .457-.0909.732-.1819l.091.6364c-.183.0909-.548.1818-.914.1818-1.372 0-1.463-1-1.463-2.0909v-3.72725h-1.28v-.72727h1.28v-1.45455l.823-.27273v1.81818h1.463v.63637z"/><path d="m55.6797 21.5452c-.5486-.2727-1.3715-.3636-1.92-.3636-2.2857 0-3.5657 1.6363-3.5657 3.7272 0 2.1818 1.1885 3.7273 3.5657 3.7273.5485 0 1.4628-.0909 1.92-.3636l.0914.7272c-.4571.2728-1.4629.3637-2.0114.3637-2.7429 0-4.3886-1.8182-4.3886-4.5455 0-2.6363 1.7371-4.5454 4.3886-4.5454.5485 0 1.5543.0909 2.0114.3636z"/><path d="m61.0742 28.8174c1.3714 0 2.1028-1.1818 2.1028-2.6364 0-1.4545-.7314-2.6363-2.1028-2.6363-1.3715 0-2.1029 1.1818-2.1029 2.6363 0 1.4546.7314 2.6364 2.1029 2.6364zm0-6c2.0114 0 2.9257 1.6363 2.9257 3.3636s-.9143 3.3637-2.9257 3.3637c-2.0115 0-2.9258-1.6364-2.9258-3.3637s.9143-3.3636 2.9258-3.3636z"/><path d="m66.5598 24.4537c0-.4545 0-1-.0914-1.5454h.7314v1.1818c.2743-.5454.7314-1.2727 2.0114-1.2727 1.5543 0 2.1943 1.0909 2.1943 2.4545v4.0909h-.8228v-3.9091c0-1.1818-.4572-2-1.4629-2-1.4628 0-1.92 1.2728-1.92 2.3637v3.5454h-.8228v-4.9091z"/><path d="m74.9714 23.6356h-1.28v-.6364h1.28v-.4545c0-1.3637.0914-2.7273 1.6457-2.7273.2743 0 .5486 0 .7314.0909l-.0914.7273c-.1828-.0909-.3657-.1819-.64-.1819-1.0971 0-.9143 1.1819-.9143 1.9091v.5455h1.4629v.6364h-1.4629v5.7272h-.7314z"/><path d="m82.1027 20.4541h1.0057l-1.5543 1.8182h-.5485zm1.28 5.1818c0-1.0909-.4571-2.1818-1.6457-2.1818s-1.8286 1.1818-1.8286 2.1818zm.3657 3.4546c-.5485.1818-1.28.3636-1.8285.3636-2.1029 0-2.9258-1.4545-2.9258-3.3636s1.0972-3.3637 2.6515-3.3637c1.8285 0 2.56 1.4546 2.56 3.1818v.3637h-4.3886c0 1.3636.7314 2.4545 2.1029 2.4545.5485 0 1.3714-.2727 1.7371-.4545v.8182z"/><path d="m89.0511 28.8174c1.3714 0 1.92-1.5455 1.92-2.6364 0-1.1818-.4572-2.6363-1.92-2.6363-1.4629 0-1.92 1.4545-1.92 2.6363.0914 1.1818.4571 2.6364 1.92 2.6364zm2.6514.4545h-.8229v-1c-.4571.8182-1.0971 1.1818-2.0114 1.1818-1.7371 0-2.6514-1.4545-2.6514-3.3636s.7314-3.3636 2.6514-3.3636c1.28 0 1.8286.9091 2.0114 1.1818v-4.0909h.8229z"/><path d="m97.1887 20.4541h1.0057l-1.5543 1.8182h-.64zm1.2799 5.1818c0-1.0909-.4571-2.1818-1.6457-2.1818-1.1885 0-1.8285 1.1818-1.8285 2.1818zm.3658 3.4546c-.5486.1818-1.28.3636-1.8286.3636-2.1029 0-2.9257-1.4545-2.9257-3.3636s1.0971-3.3637 2.6514-3.3637c1.8286 0 2.56 1.4546 2.56 3.1818v.3637h-4.3886c0 1.3636.7315 2.4545 2.1029 2.4545.5486 0 1.3714-.2727 1.7371-.4545v.8182z"/><path d="m101.759 24.3629c0-.7272 0-1-.091-1.4545h.823v1.1818c.274-.7273.823-1.3636 1.646-1.3636.182 0 .365 0 .548.0909v.8182c-.183-.091-.366-.091-.548-.091-1.28 0-1.555 1.3637-1.555 2.5455v3.1818h-.823z"/><path d="m110.446 26.0902h-.183c-1.372 0-3.017.1818-3.017 1.5455 0 .8181.64 1.1818 1.28 1.1818 1.828 0 1.92-1.6364 1.92-2.2728zm.091 2.1818c-.366.7273-1.28 1.1818-2.011 1.1818-1.829 0-2.103-1.1818-2.103-1.8181 0-2.1819 2.286-2.2728 3.931-2.2728h.183v-.3636c0-1.0909-.366-1.6364-1.463-1.6364-.64 0-1.28.1818-1.828.5455v-.7273c.457-.2727 1.28-.4545 1.828-.4545 1.555 0 2.195.7272 2.195 2.3636v2.8182c0 .5454 0 .9091.091 1.3636h-.731v-1z"/><path d="m116.845 23.6362h-1.462v4.0909c0 .5455.182 1.0909.822 1.0909.275 0 .458-.0909.732-.1818l.091.6364c-.183.0909-.548.1818-.914.1818-1.371 0-1.463-1-1.463-2.0909v-3.7273h-1.28v-.6364h1.28v-1.5454l.823-.2728v1.8182h1.463v.6364z"/><path d="m119.223 29.2726h.823v-6.3636h-.823zm0-8.0909h.823v-1.0909h-.823z"/><path d="m125.439 28.8174c1.372 0 2.103-1.1818 2.103-2.6364 0-1.4545-.731-2.6363-2.103-2.6363-1.371 0-2.102 1.1818-2.102 2.6363 0 1.4546.731 2.6364 2.102 2.6364zm0-6c2.012 0 2.926 1.6363 2.926 3.3636s-.914 3.3637-2.926 3.3637c-2.011 0-2.925-1.6364-2.925-3.3637s.823-3.3636 2.925-3.3636z"/><path d="m130.834 24.4537c0-.4545 0-1-.091-1.5454h.731v1.1818c.275-.5454.732-1.2727 2.012-1.2727 1.554 0 2.194 1.0909 2.194 2.4545v4.0909h-.823v-3.9091c0-1.1818-.457-2-1.463-2-1.463 0-1.92 1.2728-1.92 2.3637v3.5454h-.823v-4.9091z"/><path d="m142.537 28.3629c.457.2728 1.006.3637 1.646.3637.731 0 1.371-.4546 1.371-1.1819 0-1.5454-3.017-1.2727-3.017-3.0909 0-1.2727 1.006-1.7272 2.103-1.7272.366 0 1.006.0909 1.554.2727l-.091.7273c-.366-.1819-1.006-.2728-1.372-.2728-.822 0-1.371.2728-1.371 1.0909 0 1.1819 3.109 1 3.109 3.091 0 1.3636-1.28 1.8181-2.195 1.8181-.64 0-1.188-.0909-1.737-.2727z"/><path d="m153.782 27.8173c0 .4545 0 1 .092 1.5454h-.732v-1.1818c-.274.5455-.731 1.2728-2.011 1.2728-1.554 0-2.194-1.091-2.194-2.4546v-4.0909h.822v3.9091c0 1.1818.458 2 1.463 2 1.463 0 1.92-1.2727 1.92-2.3636v-3.5455h.823v4.9091z"/><path d="m156.708 29.2726h.823v-6.3636h-.823zm0-8.0909h.823v-1.0909h-.823z"/><path d="m160 28.3629c.457.2728 1.006.3637 1.646.3637.731 0 1.371-.4546 1.371-1.1819 0-1.5454-3.017-1.2727-3.017-3.0909 0-1.2727 1.006-1.7272 2.103-1.7272.366 0 1.006.0909 1.554.2727l-.091.7273c-.366-.1819-1.006-.2728-1.372-.2728-.823 0-1.371.2728-1.371 1.0909 0 1.1819 3.108 1 3.108 3.091 0 1.3636-1.28 1.8181-2.194 1.8181-.64 0-1.188-.0909-1.737-.2727z"/><path d="m165.852 28.3629c.457.2728 1.005.3637 1.645.3637.732 0 1.372-.4546 1.372-1.1819 0-1.5454-3.017-1.2727-3.017-3.0909 0-1.2727 1.005-1.7272 2.102-1.7272.366 0 1.006.0909 1.555.2727l-.092.7273c-.365-.1819-1.005-.2728-1.371-.2728-.823 0-1.372.2728-1.372 1.0909 0 1.1819 3.109 1 3.109 3.091 0 1.3636-1.28 1.8181-2.194 1.8181-.64 0-1.189-.0909-1.737-.2727z"/><path d="m176 25.6357c0-1.091-.457-2.1819-1.646-2.1819-1.188 0-1.828 1.1819-1.828 2.1819zm.366 3.4545c-.549.1818-1.28.3636-1.829.3636-2.103 0-2.926-1.4545-2.926-3.3636s1.097-3.3636 2.652-3.3636c1.828 0 2.56 1.4545 2.56 3.1818v.3636h-4.389c0 1.3637.732 2.4546 2.103 2.4546.549 0 1.371-.2728 1.737-.4546v.8182z"/><path d="m55.6797 38.8177c-.5486-.2728-1.3715-.3637-1.92-.3637-2.2857 0-3.5657 1.6364-3.5657 3.7273 0 2.1818 1.1885 3.7273 3.5657 3.7273.5485 0 1.4628-.0909 1.92-.3637l.0914.7273c-.4571.2727-1.4629.3636-2.0114.3636-2.7429 0-4.3886-1.8181-4.3886-4.5454 0-2.6364 1.7371-4.5455 4.3886-4.5455.5485 0 1.5543.0909 2.0114.3637z"/><path d="m61.0742 46c1.3714 0 2.1028-1.1818 2.1028-2.6364 0-1.4545-.7314-2.6363-2.1028-2.6363-1.3715 0-2.1029 1.1818-2.1029 2.6363 0 1.4546.7314 2.6364 2.1029 2.6364zm0-6c2.0114 0 2.9257 1.6364 2.9257 3.3636 0 1.7273-.9143 3.3637-2.9257 3.3637-2.0115 0-2.9258-1.6364-2.9258-3.3637 0-1.7272.9143-3.3636 2.9258-3.3636z"/><path d="m66.5598 41.6364c0-.4546 0-1-.0914-1.5455h.7314v1.1818c.2743-.5454.7314-1.2727 2.0114-1.2727 1.5543 0 2.1943 1.0909 2.1943 2.4545v4.091h-.8228v-3.9091c0-1.1819-.4572-2-1.4629-2-1.4628 0-1.92 1.2727-1.92 2.3636v3.5455h-.8228v-4.9091z"/><path d="m74.9714 40.8182h-1.28v-.6364h1.28v-.4545c0-1.3637.0914-2.7273 1.6457-2.7273.2743 0 .5486 0 .7314.0909l-.0914.7273c-.1828-.0909-.3657-.1818-.64-.1818-1.0971 0-.9143 1.1818-.9143 1.9091v.5454h1.4629v.6364h-1.4629v5.7272h-.7314z"/><path d="m83.3827 42.9091c0-1.0909-.4571-2.1818-1.6457-2.1818s-1.8286 1.1818-1.8286 2.1818zm.3657 3.4545c-.5485.1819-1.28.3637-1.8285.3637-2.1029 0-2.9258-1.4546-2.9258-3.3637s1.0972-3.3636 2.6515-3.3636c1.8285 0 2.56 1.4545 2.56 3.1818v.3637h-4.3886c0 1.3636.7314 2.4545 2.1029 2.4545.5485 0 1.3714-.2727 1.7371-.4545v.8181z"/><path d="m89.0511 45.9999c1.3714 0 1.92-1.5454 1.92-2.6363 0-1.1819-.4572-2.6364-1.92-2.6364-1.4629 0-1.92 1.4545-1.92 2.6364.0914 1.2727.4571 2.6363 1.92 2.6363zm2.6514.5455h-.8229v-1c-.4571.8181-1.0971 1.1818-2.0114 1.1818-1.7371 0-2.6514-1.4546-2.6514-3.3636 0-1.9091.7314-3.3637 2.6514-3.3637 1.28 0 1.8286.9091 2.0114 1.1818v-4.0909h.8229z"/><path d="m98.4686 42.9091c0-1.0909-.4571-2.1818-1.6457-2.1818-1.1885 0-1.8285 1.1818-1.8285 2.1818zm.3658 3.4545c-.5486.1819-1.28.3637-1.8286.3637-2.1029 0-2.9257-1.4546-2.9257-3.3637s1.0971-3.3636 2.6514-3.3636c1.8286 0 2.56 1.4545 2.56 3.1818v.3637h-4.3886c0 1.3636.7315 2.4545 2.1029 2.4545.5486 0 1.3714-.2727 1.7371-.4545v.8181z"/><path d="m101.759 41.6364c0-.7273 0-1-.091-1.4546h.823v1.1818c.274-.7272.823-1.3636 1.646-1.3636.182 0 .365 0 .548.0909v.8182c-.183-.0909-.366-.0909-.548-.0909-1.28 0-1.555 1.3636-1.555 2.5454v3.1819h-.823z"/><path d="m110.446 43.3636h-.183c-1.372 0-3.017.1819-3.017 1.5455 0 .8182.64 1.1818 1.28 1.1818 1.828 0 1.92-1.6364 1.92-2.2727zm.091 2.1819c-.366.7272-1.28 1.1818-2.011 1.1818-1.829 0-2.103-1.1818-2.103-1.8182 0-2.1818 2.286-2.2727 3.931-2.2727h.183v-.3637c0-1.0909-.366-1.6363-1.463-1.6363-.64 0-1.28.1818-1.828.5454v-.7273c.457-.2727 1.28-.4545 1.828-.4545 1.555 0 2.195.7273 2.195 2.3636v2.8182c0 .5455 0 .9091.091 1.3637h-.731v-1z"/><path d="m113.554 45.9088 3.84-5h-3.657v-.6363h4.571v.6363l-3.84 5h3.84v.6364h-4.754z"/><path d="m120.594 46.5451h.823v-6.3636h-.823zm0-8.0909h.823v-1.0909h-.823z"/><path d="m126.811 46c1.372 0 2.103-1.1818 2.103-2.6364 0-1.4545-.731-2.6363-2.103-2.6363-1.371 0-2.102 1.1818-2.102 2.6363 0 1.4546.731 2.6364 2.102 2.6364zm0-6c2.012 0 2.926 1.6364 2.926 3.3636 0 1.7273-.914 3.3637-2.926 3.3637-2.011 0-2.925-1.6364-2.925-3.3637 0-1.7272.914-3.3636 2.925-3.3636z"/><path d="m132.205 41.6364c0-.4546 0-1-.091-1.5455h.731v1.1818c.275-.5454.732-1.2727 2.012-1.2727 1.554 0 2.194 1.0909 2.194 2.4545v4.091h-.823v-3.9091c0-1.1819-.457-2-1.463-2-1.463 0-1.92 1.2727-1.92 2.3636v3.5455h-.823v-4.9091z"/><path d="m144 42.9091c0-1.0909-.457-2.1818-1.646-2.1818-1.188 0-1.828 1.1818-1.828 2.1818zm.366 3.4545c-.549.1819-1.28.3637-1.829.3637-2.103 0-2.926-1.4546-2.926-3.3637s1.097-3.3636 2.652-3.3636c1.828 0 2.56 1.4545 2.56 3.1818v.3637h-4.389c0 1.3636.732 2.4545 2.103 2.4545.549 0 1.371-.2727 1.737-.4545v.8181z"/><path d="m151.496 45.4538c.549.3637 1.097.5455 1.92.5455 1.097 0 1.92-.5455 1.92-1.8182 0-1.7273-4.023-1.9091-4.023-4.1818 0-1.3636 1.189-2.2727 2.743-2.2727.457 0 1.097.0909 1.737.2727l-.091.8182c-.366-.1818-1.006-.3637-1.554-.3637-.915 0-1.92.3637-1.92 1.4546 0 1.7273 4.023 1.7273 4.023 4.2727 0 1.7273-1.463 2.4546-2.835 2.4546-.823 0-1.463-.1819-2.011-.3637z"/><path d="m161.005 46.5453h-.914l-2.195-6.3637h.823l1.737 5.5455 1.829-5.5455h.823z"/><path d="m165.303 46.5451h.823v-6.3636h-.823zm0-8.0909h.823v-1.0909h-.823z"/><path d="m168.503 45.9088 3.84-5h-3.657v-.6363h4.571v.6363l-3.84 5h3.84v.6364h-4.754z"/><path d="m174.994 45.9088 3.84-5h-3.657v-.6363h4.571v.6363l-3.84 5h3.84v.6364h-4.754z"/><path d="m185.874 42.9091c0-1.0909-.457-2.1818-1.645-2.1818-1.189 0-1.829 1.1818-1.829 2.1818zm.457 3.4545c-.548.1819-1.28.3637-1.828.3637-2.103 0-2.926-1.4546-2.926-3.3637s1.097-3.3636 2.652-3.3636c1.828 0 2.56 1.4545 2.56 3.1818v.3637h-4.389c0 1.3636.731 2.4545 2.103 2.4545.548 0 1.371-.2727 1.737-.4545v.8181z"/><path d="m189.256 41.6364c0-.7273 0-1-.091-1.4546h.823v1.1818c.274-.7272.823-1.3636 1.646-1.3636.182 0 .365 0 .548.0909v.8182c-.183-.0909-.366-.0909-.548-.0909-1.28 0-1.555 1.3636-1.555 2.5454v3.1819h-.823z"/><path d="m197.943 43.3636h-.183c-1.372 0-3.017.1819-3.017 1.5455 0 .8182.64 1.1818 1.28 1.1818 1.828 0 1.92-1.6364 1.92-2.2727zm.091 2.1819c-.366.7272-1.28 1.1818-2.011 1.1818-1.829 0-2.103-1.1818-2.103-1.8182 0-2.1818 2.286-2.2727 3.931-2.2727h.183v-.3637c0-1.0909-.366-1.6363-1.463-1.6363-.64 0-1.28.1818-1.828.5454v-.7273c.457-.2727 1.28-.4545 1.828-.4545 1.555 0 2.195.7273 2.195 2.3636v2.8182c0 .5455 0 .9091.091 1.3637h-.731v-1z"/><path d="m55.6797 56.0901c-.5486-.2727-1.3715-.3636-1.92-.3636-2.2857 0-3.5657 1.6363-3.5657 3.7272 0 2.1819 1.1885 3.7273 3.5657 3.7273.5485 0 1.4628-.0909 1.92-.3636l.0914.7273c-.4571.2727-1.4629.3636-2.0114.3636-2.7429 0-4.3886-1.8182-4.3886-4.5455 0-2.6363 1.7371-4.5454 4.3886-4.5454.5485 0 1.5543.0909 2.0114.3636z"/><path d="m61.0742 63.2725c1.3714 0 2.1028-1.1819 2.1028-2.6364s-.7314-2.6364-2.1028-2.6364c-1.3715 0-2.1029 1.1819-2.1029 2.6364s.7314 2.6364 2.1029 2.6364zm0-6c2.0114 0 2.9257 1.6363 2.9257 3.3636s-.9143 3.3636-2.9257 3.3636c-2.0115 0-2.9258-1.6363-2.9258-3.3636s.9143-3.3636 2.9258-3.3636z"/><path d="m66.5598 58.9088c0-.4545 0-1-.0914-1.5454h.7314v1.1818c.2743-.5455.7314-1.2727 2.0114-1.2727 1.5543 0 2.1943 1.0909 2.1943 2.4545v4.0909h-.8228v-3.9091c0-1.1818-.4572-2-1.4629-2-1.4628 0-1.92 1.2728-1.92 2.3637v3.5454h-.8228v-4.9091z"/><path d="m74.9714 58.0906h-1.28v-.6363h1.28v-.4546c0-1.3636.0914-2.7272 1.6457-2.7272.2743 0 .5486 0 .7314.0909l-.0914.7272c-.1828-.0909-.3657-.1818-.64-.1818-1.0971 0-.9143 1.1818-.9143 1.9091v.5455h1.4629v.6363h-1.4629v5.7273h-.7314z"/><path d="m83.3827 60.1816c0-1.091-.4571-2.1819-1.6457-2.1819s-1.8286 1.1819-1.8286 2.1819zm.3657 3.4545c-.5485.1818-1.28.3636-1.8285.3636-2.1029 0-2.9258-1.4545-2.9258-3.3636s1.0972-3.3636 2.6515-3.3636c1.8285 0 2.56 1.4545 2.56 3.1818v.3636h-4.3886c0 1.3637.7314 2.4546 2.1029 2.4546.5485 0 1.3714-.2728 1.7371-.4546v.8182z"/><path d="m89.0511 63.2724c1.3714 0 1.92-1.5455 1.92-2.6364 0-1.1818-.4572-2.6364-1.92-2.6364-1.4629 0-1.92 1.4546-1.92 2.6364.0914 1.1818.4571 2.6364 1.92 2.6364zm2.6514.5454h-.8229v-1c-.4571.8182-1.0971 1.1818-2.0114 1.1818-1.7371 0-2.6514-1.4545-2.6514-3.3636s.7314-3.3636 2.6514-3.3636c1.28 0 1.8286.9091 2.0114 1.1818v-4.0909h.8229z"/><path d="m98.4686 60.1816c0-1.091-.4571-2.1819-1.6457-2.1819-1.1885 0-1.8285 1.1819-1.8285 2.1819zm.3658 3.4545c-.5486.1818-1.28.3636-1.8286.3636-2.1029 0-2.9257-1.4545-2.9257-3.3636s1.0971-3.3636 2.6514-3.3636c1.8286 0 2.56 1.4545 2.56 3.1818v.3636h-4.3886c0 1.3637.7315 2.4546 2.1029 2.4546.5486 0 1.3714-.2728 1.7371-.4546v.8182z"/><path d="m101.759 58.818c0-.7273 0-1-.091-1.4545h.823v1.1818c.274-.7273.823-1.3637 1.646-1.3637.182 0 .365 0 .548.0909v.8182c-.183-.0909-.366-.0909-.548-.0909-1.28 0-1.555 1.3637-1.555 2.5455v3.1818h-.823z"/><path d="m110.446 60.5452h-.183c-1.372 0-3.017.1818-3.017 1.5454 0 .8182.64 1.1819 1.28 1.1819 1.828 0 1.92-1.6364 1.92-2.2728zm.091 2.2727c-.366.7273-1.28 1.1818-2.011 1.1818-1.829 0-2.103-1.1818-2.103-1.8181 0-2.1819 2.286-2.2728 3.931-2.2728h.183v-.3636c0-1.0909-.366-1.6364-1.463-1.6364-.64 0-1.28.1818-1.828.5455v-.7273c.457-.2727 1.28-.4545 1.828-.4545 1.555 0 2.195.7272 2.195 2.3636v2.8182c0 .5454 0 .9091.091 1.3636h-.731v-1z"/><path d="m113.554 63.1813 3.84-5h-3.657v-.6364h4.571v.6364l-3.84 5h3.84v.6364h-4.754z"/><path d="m120.594 63.8176h.823v-6.3637h-.823zm0-8.0909h.823v-1.091h-.823z"/><path d="m129.279 62.2724c0 .4545 0 1 .092 1.5454h-.732v-1.1818c-.274.5455-.731 1.2727-2.011 1.2727-1.554 0-2.194-1.0909-2.194-2.4545v-4.0909h.822v3.9091c0 1.1818.458 2 1.463 2 1.463 0 1.92-1.2728 1.92-2.3637v-3.5454h.823v4.9091z"/><path d="m132.205 58.9088c0-.4545 0-1-.091-1.5454h.731v1.1818c.275-.5455.732-1.2727 2.012-1.2727 1.554 0 2.194 1.0909 2.194 2.4545v4.0909h-.823v-3.9091c0-1.1818-.457-2-1.463-2-1.463 0-1.92 1.2728-1.92 2.3637v3.5454h-.823v-4.9091z"/><path d="m143.908 62.9088c.457.2728 1.006.3637 1.646.3637.731 0 1.371-.4546 1.371-1.1819 0-1.5454-3.017-1.2727-3.017-3.0909 0-1.2727 1.006-1.7272 2.103-1.7272.366 0 1.006.0909 1.554.2727l-.091.7273c-.366-.1819-1.006-.2728-1.371-.2728-.823 0-1.372.2728-1.372 1.0909 0 1.1819 3.109 1 3.109 3.091 0 1.3636-1.28 1.8181-2.195 1.8181-.64 0-1.188-.0909-1.737-.2727z"/><path d="m152.411 63.8177h-.914l-2.194-6.3636h.823l1.737 5.5455 1.828-5.5455h.823z"/><path d="m156.708 63.8176h.823v-6.3637h-.823zm0-8.0909h.823v-1.091h-.823z"/><path d="m159.908 63.1813 3.84-5h-3.657v-.6364h4.571v.6364l-3.84 5h3.84v.6364h-4.754z"/><path d="m166.948 58.818c0-.7273 0-1-.092-1.4545h.823v1.1818c.275-.7273.823-1.3637 1.646-1.3637.183 0 .366 0 .549.0909v.8182c-.183-.0909-.366-.0909-.549-.0909-1.28 0-1.554 1.3637-1.554 2.5455v3.1818h-.823z"/></g><path d="m35.2711 2.90909s-6.5828-2.90909-17.6457-2.90909c-10.97143 0-17.5542889 2.90909-17.5542889 2.90909s-.6400001 12.81821 1.9199989 20.09091c4.38857 12.7273 15.72569 16.3636 15.72569 16.3636s11.2457-3.5454 15.7257-16.3636c2.3772-7.2727 1.8286-20.09091 1.8286-20.09091z" fill="#d8232a"/><path d="m29.3282 14.0003v7.0909h-8.2286v8.2727h-7.04v-8.2727h-8.22855v-7.0909h8.22855v-8.27276h7.04v8.27276z" fill="#fffffe"/></g></svg>