<svg viewBox="0 0 24 24" xmlns="http://www.w3.org/2000/svg"><path d="m12.375 14.66691a2.29187 2.29187 0 1 1 2.2915-2.292 2.2946 2.2946 0 0 1 -2.2915 2.292zm0-3.83374a1.54187 1.54187 0 1 0 1.5415 1.54175 1.54373 1.54373 0 0 0 -1.5415-1.54175z"/><path d="m7.14111 9.433a2.29175 2.29175 0 1 1 2.292-2.29175 2.29414 2.29414 0 0 1 -2.292 2.29175zm0-3.8335a1.54175 1.54175 0 1 0 1.542 1.54175 1.54332 1.54332 0 0 0 -1.542-1.54172z"/><path d="m12.375 9.433a2.29175 2.29175 0 1 1 2.292-2.29175 2.29456 2.29456 0 0 1 -2.292 2.29175zm0-3.8335a1.54175 1.54175 0 1 0 1.542 1.54175 1.54373 1.54373 0 0 0 -1.542-1.54172z"/><path d="m17.60889 9.433a2.29175 2.29175 0 1 1 2.2915-2.29175 2.29456 2.29456 0 0 1 -2.2915 2.29175zm0-3.8335a1.54175 1.54175 0 1 0 1.5415 1.54175 1.54374 1.54374 0 0 0 -1.5415-1.54172z"/><path d="m7.14111 14.66691a2.29187 2.29187 0 1 1 2.292-2.292 2.29418 2.29418 0 0 1 -2.292 2.292zm0-3.83374a1.54187 1.54187 0 1 0 1.542 1.54175 1.54332 1.54332 0 0 0 -1.542-1.54175z"/><path d="m17.60889 14.66691a2.29187 2.29187 0 1 1 2.2915-2.292 2.2946 2.2946 0 0 1 -2.2915 2.292zm0-3.83374a1.54187 1.54187 0 1 0 1.5415 1.54175 1.54374 1.54374 0 0 0 -1.5415-1.54175z"/><path d="m7.14111 19.90056a2.29188 2.29188 0 1 1 2.292-2.29175 2.29414 2.29414 0 0 1 -2.292 2.29175zm0-3.83375a1.54188 1.54188 0 1 0 1.542 1.542 1.54338 1.54338 0 0 0 -1.542-1.542z"/><path d="m12.375 19.90056a2.29188 2.29188 0 1 1 2.292-2.29175 2.29456 2.29456 0 0 1 -2.292 2.29175zm0-3.83375a1.54188 1.54188 0 1 0 1.542 1.542 1.54379 1.54379 0 0 0 -1.542-1.542z"/><path d="m17.60889 19.90056a2.29188 2.29188 0 1 1 2.2915-2.29175 2.29456 2.29456 0 0 1 -2.2915 2.29175zm0-3.83375a1.54188 1.54188 0 1 0 1.5415 1.542 1.5438 1.5438 0 0 0 -1.5415-1.542z"/></svg>
