<svg viewBox="0 0 24 24" xmlns="http://www.w3.org/2000/svg"><path d="m18.83148 20.20459-7.20478-7.31152a.9087.9087 0 0 0 .19745-.48242.80378.80378 0 0 0 -.228-.62305l-.00013.001-1.97841-1.97854-1.10547-1.10547v-1.75195h-2.91308v6.3125h.28955v6.29394a1.148 1.148 0 0 0 2.29541 0v-.25293a1.102 1.102 0 0 0 .6416-.55078l1.47363-2.96289-1.78711-2.55176v-2.01953l1.8252 1.8252a.79172.79172 0 0 0 .56494.22949.909.909 0 0 0 .54754-.207l7.20392 7.31055zm-11.06934-12.25-.25146-.25195h.25146zm-1.41308-.25195h.78173l-.34033.34082 2.29688 2.29687 1.97839 1.97852-.19812.19727-1.978-1.97754-1.56887-1.56934-.53028.53027.97168.97168v2.044h-1.41308zm.6875 12.22851a.38627.38627 0 0 1 -.39795-.37207v-6.29394h.79539v6.29394a.38584.38584 0 0 1 -.39744.37207zm1.14744-1.57031v-1.78418l.32324-.64941-.32324-.46192v-1.38574l1.24511 1.77832z"/><path d="m7.0556 6.67237a1.30176 1.30176 0 1 0 -1.30225-1.30176 1.30326 1.30326 0 0 0 1.30225 1.30176zm0-1.85352a.55176.55176 0 1 1 -.55225.55176.55275.55275 0 0 1 .55225-.55176z"/></svg>
