<svg viewBox="0 0 24 24" xmlns="http://www.w3.org/2000/svg"><path d="m12.34173 4.0835a8.29151 8.29151 0 1 0 8.292 8.291 8.30111 8.30111 0 0 0 -8.292-8.291zm7.523 7.916h-2.26891a5.26835 5.26835 0 0 0 -4.87909-4.8789v-2.26855a7.53952 7.53952 0 0 1 7.14801 7.14746zm-7.523 1.917a1.54151 1.54151 0 1 1 1.542-1.542 1.54363 1.54363 0 0 1 -1.542 1.54201zm-.375-3.7959a2.28805 2.28805 0 0 0 -1.87909 1.8789h-2.25a4.52047 4.52047 0 0 1 4.12909-4.1289zm-1.87909 2.6289a2.288 2.288 0 0 0 1.87909 1.87989v2.25a4.52057 4.52057 0 0 1 -4.12909-4.12989zm2.62909 1.87989a2.28794 2.28794 0 0 0 1.87909-1.87989h2.25a4.52057 4.52057 0 0 1 -4.12909 4.12989zm1.87909-2.62989a2.288 2.288 0 0 0 -1.87909-1.8789v-2.25a4.52047 4.52047 0 0 1 4.12909 4.1289zm-2.62909-7.14745v2.26856a5.26835 5.26835 0 0 0 -4.87909 4.8789h-2.26892a7.53952 7.53952 0 0 1 7.14801-7.14746zm-7.148 7.89746h2.26891a5.26849 5.26849 0 0 0 4.87909 4.87989v2.2686a7.53967 7.53967 0 0 1 -7.14801-7.14849zm7.898 7.14844v-2.26855a5.26849 5.26849 0 0 0 4.87909-4.87989h2.26892a7.53967 7.53967 0 0 1 -7.14801 7.14849z"/></svg>
