<svg viewBox="0 0 72 24" xmlns="http://www.w3.org/2000/svg"><path d="m7.26709 9.96143a2.04093 2.04093 0 0 1 1.71973-.79981 1.98023 1.98023 0 0 1 2.06445 1.93457h.78613a2.64545 2.64545 0 0 0 -.84375-1.90719 2.85749 2.85749 0 0 0 -2.00683-.72461 3.03166 3.03166 0 0 0 -1.6709.458 2.94861 2.94861 0 0 0 -1.09766 1.29882 4.63109 4.63109 0 0 0 -.38281 1.93457v.2461a4.08324 4.08324 0 0 0 .85156 2.7207 2.85409 2.85409 0 0 0 2.30664 1.01172 3.12185 3.12185 0 0 0 1.38477-.31445 2.65675 2.65675 0 0 0 1.03515-.8711 2.31391 2.31391 0 0 0 .42383-1.23437h-.78613a1.69586 1.69586 0 0 1 -.626 1.248 2.15841 2.15841 0 0 1 -1.43164.48145 2.0528 2.0528 0 0 1 -1.72656-.793 3.54144 3.54144 0 0 1 -.61133-2.208v-.23925a3.6242 3.6242 0 0 1 .61135-2.24215z"/><path d="m14.48877 8.92237a2.94868 2.94868 0 0 0 -1.09766 1.29882 4.63109 4.63109 0 0 0 -.38281 1.93457v.2461a4.08324 4.08324 0 0 0 .85156 2.7207 2.85409 2.85409 0 0 0 2.30664 1.01172 3.12185 3.12185 0 0 0 1.38477-.31445 2.65685 2.65685 0 0 0 1.03516-.8711 2.314 2.314 0 0 0 .42382-1.23437h-.78613a1.69586 1.69586 0 0 1 -.626 1.248 2.15841 2.15841 0 0 1 -1.43164.48145 2.0528 2.0528 0 0 1 -1.72656-.793 3.54144 3.54144 0 0 1 -.61133-2.208v-.23925a3.6242 3.6242 0 0 1 .61133-2.24219 2.04093 2.04093 0 0 1 1.71973-.79981 1.98023 1.98023 0 0 1 2.06445 1.93457h.78613a2.64545 2.64545 0 0 0 -.84373-1.90713 2.85749 2.85749 0 0 0 -2.00683-.72461 3.03168 3.03168 0 0 0 -1.6709.45798z"/><path d="m12.38525 4.0835a8.29151 8.29151 0 1 0 8.29151 8.292 8.30132 8.30132 0 0 0 -8.29151-8.292zm0 15.833a7.54151 7.54151 0 1 1 7.542-7.541 7.55 7.55 0 0 1 -7.542 7.54101z"/><path d="m36.38477 5.49951a3.81547 3.81547 0 0 0 -3.81934 3.708 3.81564 3.81564 0 0 0 3.81934 3.709 3.7085 3.7085 0 1 0 0-7.417zm0 6.667a3.05617 3.05617 0 0 1 -3.06934-2.959 3.05535 3.05535 0 0 1 3.06934-2.958 2.9585 2.9585 0 1 1 0 5.917z"/><path d="m36.38574 4.0835a8.35752 8.35752 0 0 0 -8.40332 8.292 8.35733 8.35733 0 0 0 8.40332 8.291 8.29227 8.29227 0 0 0 0-16.583zm-4.51465 14.36719v-1.8125a2.64875 2.64875 0 0 1 2.667-2.55567h3.69433a2.47523 2.47523 0 0 1 2.44434 2.55567v1.92481a7.37854 7.37854 0 0 1 -4.291 1.35352 7.67764 7.67764 0 0 1 -4.51467-1.46583zm9.55567-.502v-1.3105a3.217 3.217 0 0 0 -3.19434-3.30567h-3.69433a3.40747 3.40747 0 0 0 -3.417 3.30567v1.19628a7.46313 7.46313 0 0 1 -2.38867-5.459 7.60676 7.60676 0 0 1 7.65332-7.542 7.40671 7.40671 0 0 1 7.42969 7.542 7.54777 7.54777 0 0 1 -2.38867 5.57326z"/><path d="m60.39563 4.0835a8.29151 8.29151 0 1 0 8.292 8.292 8.30132 8.30132 0 0 0 -8.292-8.292zm0 .75a7.538 7.538 0 0 1 6.30151 3.40918l-12.98767 7.6084a7.53078 7.53078 0 0 1 6.68616-11.01758zm0 15.083a7.53772 7.53772 0 0 1 -6.307-3.418l12.98858-7.60934a7.5316 7.5316 0 0 1 -6.68158 11.02735z"/><path d="m58.71924 12.04737.78424-.459a2.88844 2.88844 0 0 1 -.5434-.37305 1.65984 1.65984 0 0 1 -.499-1.2832 1.7785 1.7785 0 0 1 .543-1.35937 2.12912 2.12912 0 0 1 1.5146-.50975 1.92331 1.92331 0 0 1 1.5205.63184 2.21921 2.21921 0 0 1 .50354 1.1123l.74347-.43555a2.73421 2.73421 0 0 0 -.53607-1.12109 2.61348 2.61348 0 0 0 -1.8623-.89844v-1.38087h-.69727v1.38086a2.83282 2.83282 0 0 0 -1.85937.78907 2.46559 2.46559 0 0 0 -.6836 1.80859 2.42624 2.42624 0 0 0 .62207 1.72558 2.733 2.733 0 0 0 .44959.37208z"/><path d="m62.40247 12.86475c-.08985-.06153-.19342-.12305-.30982-.18653l-.82861.48536a3.38316 3.38316 0 0 1 .90893.57617 1.66177 1.66177 0 0 1 .49219 1.24121 1.69172 1.69172 0 0 1 -.6123 1.35351 2.36045 2.36045 0 0 1 -1.582.51954 2.38617 2.38617 0 0 1 -1.73633-.60547 2.066 2.066 0 0 1 -.59021-1.25684l-.75116.43945a2.59945 2.59945 0 0 0 .65094 1.26856 3.11968 3.11968 0 0 0 2.126.86523v1.292h.69043v-1.29883a2.98691 2.98691 0 0 0 1.92481-.78321 2.41883 2.41883 0 0 0 .70019-1.80761 2.5663 2.5663 0 0 0 -.2705-1.22071 2.4981 2.4981 0 0 0 -.81256-.88183z"/></svg>
