<svg viewBox="0 0 48 24" xmlns="http://www.w3.org/2000/svg"><path d="m7.2666 9.9624a2.04094 2.04094 0 0 1 1.71973-.7998 1.98022 1.98022 0 0 1 2.06445 1.93457h.78613a2.642 2.642 0 0 0 -.84375-1.90723 2.85313 2.85313 0 0 0 -2.00683-.72461 3.02365 3.02365 0 0 0 -1.6709.458 2.94333 2.94333 0 0 0 -1.09766 1.29883 4.62791 4.62791 0 0 0 -.38277 1.93458v.24609a4.0868 4.0868 0 0 0 .85156 2.72071 2.857 2.857 0 0 0 2.30664 1.01172 3.1351 3.1351 0 0 0 1.38477-.31446 2.65912 2.65912 0 0 0 1.03516-.87207 2.31077 2.31077 0 0 0 .42382-1.2334h-.78613a1.69552 1.69552 0 0 1 -.626 1.24707 2.159 2.159 0 0 1 -1.43164.48243 2.0554 2.0554 0 0 1 -1.72656-.793 3.54344 3.54344 0 0 1 -.61133-2.208v-.23926a3.62235 3.62235 0 0 1 .61131-2.24217z"/><path d="m14.48828 8.92334a2.94324 2.94324 0 0 0 -1.09765 1.29883 4.62775 4.62775 0 0 0 -.38282 1.93457v.24609a4.0868 4.0868 0 0 0 .85157 2.72071 2.857 2.857 0 0 0 2.30662 1.01172 3.13509 3.13509 0 0 0 1.38476-.31446 2.65912 2.65912 0 0 0 1.03516-.87207 2.31087 2.31087 0 0 0 .42383-1.2334h-.78614a1.69551 1.69551 0 0 1 -.626 1.24707 2.15909 2.15909 0 0 1 -1.43164.48243 2.05542 2.05542 0 0 1 -1.72657-.793 3.54344 3.54344 0 0 1 -.61132-2.208v-.23926a3.62235 3.62235 0 0 1 .61132-2.24219 2.041 2.041 0 0 1 1.71973-.7998 1.9802 1.9802 0 0 1 2.06445 1.93457h.78614a2.64206 2.64206 0 0 0 -.84372-1.90721 2.85317 2.85317 0 0 0 -2.00684-.72461 3.02365 3.02365 0 0 0 -1.67088.45801z"/><path d="m12.38525 4.0835a8.29151 8.29151 0 1 0 8.29151 8.292 8.30132 8.30132 0 0 0 -8.29151-8.292zm0 15.833a7.54151 7.54151 0 1 1 7.542-7.541 7.55 7.55 0 0 1 -7.542 7.54101z"/><path d="m36.38477 5.49951a3.7085 3.7085 0 1 0 3.709 3.708 3.7118 3.7118 0 0 0 -3.709-3.708zm0 6.667a2.9585 2.9585 0 1 1 2.959-2.959 2.96182 2.96182 0 0 1 -2.959 2.959z"/><path d="m36.38574 4.0835a8.29151 8.29151 0 1 0 8.291 8.292 8.30132 8.30132 0 0 0 -8.291-8.292zm-4.40332 14.40137v-1.84668a2.55859 2.55859 0 0 1 2.55567-2.55567h3.69433a2.55859 2.55859 0 0 1 2.55567 2.55567v1.84765a7.48806 7.48806 0 0 1 -8.80567-.001zm9.55567-.61817v-1.22851a3.31 3.31 0 0 0 -3.30567-3.30567h-3.69433a3.31 3.31 0 0 0 -3.30567 3.30567v1.22753a7.541 7.541 0 1 1 10.30567.001z"/></svg>
