<svg viewBox="0 0 24 24" xmlns="http://www.w3.org/2000/svg"><path d="m12.64014 13.17725-.26514-.26563-5.07959 5.084.31982.26172a7.53753 7.53753 0 0 0 9.52051 0l.31983-.26172-.291-.293c-.35793-.35936-4.52443-4.52537-4.52443-4.52537zm-4.22071 4.75293 3.95557-3.958c.78564.78613 3.09863 3.09863 3.95654 3.958a6.79012 6.79012 0 0 1 -7.91211 0z"/><path d="m18.24512 7.62354-.26221-.32032-5.09326 5.09278 5.08252 5.083.26269-.31934a7.53362 7.53362 0 0 0 .01026-9.53612zm-.33594 8.73146-3.959-3.959 3.96826-3.96778a6.78516 6.78516 0 0 1 -.00926 7.92678z"/><path d="m11.82373 12.38819-.001-7.52149-.41357.044a7.16559 7.16559 0 0 0 -4.3877 2.168 7.48362 7.48362 0 0 0 -1.05273 9.32519l.00049.001a7.47614 7.47614 0 0 0 .52246.72851l.26172.32129.29346-.292c.39208-.38965 4.667-4.66406 4.667-4.66406zm-5.00244 3.94043c-.07617-.10645-.14893-.21485-.21826-.32422a6.73843 6.73843 0 0 1 .94873-8.39551 6.50254 6.50254 0 0 1 3.52148-1.89551l.00049 6.36426c-.58057.58105-3.29932 3.29883-4.25244 4.25098z"/><path d="m17.105 6.522a7.49409 7.49409 0 0 0 -4.11719-1.64941l-.40576-.0332v6.791l4.84619-4.84668zm-3.773 3.29783v-4.15528a6.75847 6.75847 0 0 1 2.9678 1.18653z"/></svg>
