<svg viewBox="0 0 24 24" xmlns="http://www.w3.org/2000/svg"><path d="m4.42873 11.94205h15.89238v.75018h-15.89238z" transform="matrix(.86285924 -.50544429 .50544429 .86285924 -4.52852 7.94401)"/><path d="m10.06736 12.36475.84009-.49219a1.53978 1.53978 0 0 1 1.45087-1.03956 1.55616 1.55616 0 0 1 .27582.02783l.82531-.4834a2.26472 2.26472 0 0 0 -1.10113-.29443 2.29377 2.29377 0 0 0 -2.29096 2.28175z"/><path d="m12.35832 13.91651a1.5277 1.5277 0 0 1 -.39179-.05664l-.79492.46582a2.26989 2.26989 0 0 0 1.18671.34082 2.29435 2.29435 0 0 0 2.2915-2.292c0-.02783-.00726-.05371-.00824-.08154l-.79626.46631a1.54 1.54 0 0 1 -1.487 1.15723z"/><path d="m20.0341 12.31592a8.293 8.293 0 0 0 -1.458-2.32764l-.65973.38623a7.5474 7.5474 0 0 1 1.36383 2.0835 7.52531 7.52531 0 0 1 -2.813 3.331 5.263 5.263 0 0 0 .88123-5.08154l-.67737.39649a4.48065 4.48065 0 0 1 .22925 1.354 4.5467 4.5467 0 0 1 -4.54 4.5415h-.00146a4.519 4.519 0 0 1 -3.29785-1.43746l-1.33381.78125a8.28337 8.28337 0 0 0 4.63111 1.40625h.00195a8.26624 8.26624 0 0 0 7.67385-5.1494l.0581-.14209z"/><path d="m6.636 14.37451a7.55967 7.55967 0 0 1 -1.19956-1.91651 7.53054 7.53054 0 0 1 2.814-3.332 5.17493 5.17493 0 0 0 -.94269 4.855l.669-.3916a4.48782 4.48782 0 0 1 -.15994-1.1314 4.54723 4.54723 0 0 1 4.542-4.542h.00146a4.51942 4.51942 0 0 1 3.13318 1.27l1.26941-.74366a8.27335 8.27335 0 0 0 -4.40259-1.27634h-.00195a8.26638 8.26638 0 0 0 -7.67578 5.1499l-.05811.14209.05811.14209a8.327 8.327 0 0 0 1.29746 2.15871z"/></svg>
