<svg viewBox="0 0 24 24" xmlns="http://www.w3.org/2000/svg"><path d="m17.73992 10.76246h-.62408a2.375 2.375 0 1 0 -.96863 0h-.6236a2.12794 2.12794 0 0 0 -1.40264.52978 1.88956 1.88956 0 0 0 -2.81562.56641v-.32373a2.13576 2.13576 0 0 0 -2.1333-2.1333h-.62405a2.375 2.375 0 1 0 -.96863 0h-.6236a2.13587 2.13587 0 0 0 -2.13377 2.1333v3.14208h.75v-3.14208a1.385 1.385 0 0 1 1.38379-1.3833h2.21626a1.38494 1.38494 0 0 1 1.3833 1.3833v3.14208h.75v-.92529a1.91668 1.91668 0 0 0 .79871.75732 1.73032 1.73032 0 0 0 -1.72644 1.72852v1.85107h.75v-1.85106a.97984.97984 0 0 1 .979-.979h1.707a.97974.97974 0 0 1 .97852.979v1.85107h.75v-1.85107a1.73022 1.73022 0 0 0 -1.726-1.72852 1.885 1.885 0 0 0 .79858-2.65039 1.37793 1.37793 0 0 1 .90881-.34619h2.21631a1.38494 1.38494 0 0 1 1.3833 1.3833v3.1416h.75v-3.1416a2.13576 2.13576 0 0 0 -2.13322-2.1333zm-2.7334-2.3252a1.625 1.625 0 1 1 1.625 1.62549 1.62689 1.62689 0 0 1 -1.625-1.62549zm-8.56787-1.36035a1.625 1.625 0 1 1 1.625 1.625 1.62688 1.62688 0 0 1 -1.625-1.625zm6.52149 6.89309a1.165 1.165 0 1 1 1.165-1.165 1.16613 1.16613 0 0 1 -1.165 1.165z"/></svg>
