<svg viewBox="0 0 24 24" xmlns="http://www.w3.org/2000/svg"><path d="m8.40765 4.70166h-3.57471v3.64063h3.57471zm-.75 2.89063h-2.07471v-2.14063h2.07471z"/><path d="m5.87054 5.77197h1.5v1.5h-1.5z"/><path d="m4.77435 19.90088h3.57471v-3.64062h-3.57471zm.75-2.89062h2.07471v2.14062h-2.07471z"/><path d="m5.81195 17.33057h1.5v1.5h-1.5z"/><path d="m16.309 4.70166v3.64063h3.5747v-3.64063zm2.8247 2.89063h-2.0747v-2.14063h2.0747z"/><path d="m17.34613 5.77197h1.5v1.5h-1.5z"/><path d="m7.224 10.045h-1.412v1.454.046 1.407.047 1.453h1.5v-1.453-.047-1.407h1.358.054 1.446v-1.453h1.428.025 1.475v-1.5h-1.475v-1.406h1.443.032 1.468v-1.5h-1.468-.032-1.443-.025-1.475v1.453.047 1.406.047 1.406h-1.399-.054-1.358z"/><path d="m17.49896 10.04541h1.5v1.5h-1.5z"/><path d="m17.54583 14.45166v-1.5h-1.46338v-2.90625h-2.98437v1.45313h-1.46875v1.45312h-2.95947v2.95313h1.5v-1.45313h2.92822v1.40625h-1.46875v1.5h1.46875v1.45309h2.98437v-1.5h-1.48437v-2.85934h1.44775v1.45313h1.45317v1.45312h1.5v-1.5h-1.45317zm-2.96338-1.5v1.45313h-1.45312v-2.85938h1.45312z"/><path d="m10.12298 17.31104h1.5v1.5h-1.5z"/></svg>
