<svg enable-background="new 0 0 120 120" viewBox="0 0 120 120" xmlns="http://www.w3.org/2000/svg"><path d="m38.3 46c-.2 4.8.4 9 1.8 12.8.3.8-.4 2.1-1.9 3.7l-9.2 10.6h4l7.5-8.6c1.5-1.6 3.4-4.1 2.5-6.8-1.3-3.5-1.8-7.3-1.6-11.8 0-.1 0-.2 0-.3l-2.9-18.1c1.6-.5 3.3-.1 4.6 1 .7.6 1.2 1.3 1.5 2.2.3 1 .5 2.1.7 3.2s.4 2.3.7 3.4c.7 2.7 2.5 4.4 4.7 4.5 2 .1 3.8-1.1 4.6-3l1.4-3.8c1.6-4.4 7.6-20.8 7.6-20.8.2-.6.6-.9.9-1 .5-.2 1-.2 1.5-.1.8.3 1.4 1.3 1.1 2.3 0 .1 0 .2-.1.3l-2.2 13.1c-.1.7.3 1.4 1 1.7.2.1.5.2.8.4s.6.3.8.4c.6.2 1.3.1 1.8-.5l9.5-12.5c.6-.9 1.8-1.1 2.7-.5.8.7 1 1.8.5 2.7 0 0 0 .1-.1.1l-7.5 13.9c-.3.6-.2 1.4.4 1.9.2.2.4.3.5.5.2.2.5.5.8.7.5.4 1.3.4 1.8.1l11.7-8.3s.1-.1.1-.1c.5-.4 1-.4 1.3-.4.5.1 1 .3 1.3.7.6.8.4 1.9-.4 2.7l-10.2 10c-.5.5-.6 1.4-.1 2 .1.1.2.3.4.6s.4.7.6 1c.4.5 1 .7 1.6.5l8.5-2.5c.1 0 .1 0 .2-.1.6-.3 1.5.2 1.8.8.3.7 0 1.5-.7 1.9l-14.5 7.2-2.7 1.3c-.3.2-.6.4-.7.8-1.1 2.5-2.6 5-4.7 7.4-.5.6-1 1.2-1.6 1.7 1.7-.6 3.7-1.4 5.7-2.1 1.3-1.8 2.3-3.6 3.2-5.4l2.3-1.1 14.4-7.1c2.1-1.1 3-3.6 2.1-5.7-.9-2.2-3.6-3.3-5.7-2.4l-6.4 1.9 8.7-8.6c1.9-1.8 2.2-4.6.7-6.7 0 0 0-.1-.1-.1-.8-1-2-1.6-3.3-1.7-1.3-.2-2.6.2-3.6 1l-9.6 6.8 6.1-11.7c1.3-2.2.8-5-1.3-6.7-2.2-1.5-5.3-1-6.8 1.1l-8.2 10.8 1.8-10.9c.8-2.4-.6-5.1-3-6-1.2-.4-2.6-.4-3.7.2-1.2.5-2.1 1.5-2.5 2.8 0 0-6 16.4-7.6 20.8l-1.4 3.8c-.3.7-.9 1.1-1.6 1-.9 0-1.6-.9-2-2.3-.3-1-.5-2.1-.7-3.2s-.4-2.3-.8-3.5c-.5-1.6-1.3-2.8-2.4-3.6-2.4-2.1-6-2.5-8.9-1-.6.3-.9.9-.8 1.6z"/><path d="m84.5 111.8c-.6 0-1.2-.1-1.7-.4l-17.2-7.4c-7.1 1.9-13.4 1.7-20.8-1.1-3.1-1.1-6.5-1.3-9.7-1.3l-15.3-.1c-.8 0-1.5-.7-1.5-1.5s.7-1.5 1.5-1.5l15.2.2c3.5 0 7.2.2 10.7 1.5 3.8 1.4 7.3 2.1 10.8 2.1 2.8 0 5.7-.4 8.7-1.2.3-.1.7-.1 1 .1l17.7 7.6c.7.3 1.5 0 1.9-.7.3-.7 0-1.6-.7-2l-8.4-5.4c-.6-.4-.8-1.1-.6-1.7l.6-1.8c.2-.7.9-1.1 1.6-1l15.3 1.4c1.1.1 2-.6 2.2-1.6.1-.5 0-1-.2-1.4-.3-.5-.8-.8-1.4-.9h-.1l-14-4.2c-.6-.2-1.1-.8-1.1-1.4 0-.7 0-1.3.1-2 .1-.6.6-1.1 1.2-1.2l15.5-2.9c1.1-.1 1.8-1 1.8-2.1 0-.6-.4-1-.6-1.2-.4-.3-1-.5-1.5-.5l-16.5.4c-.7 0-1.4-.5-1.5-1.3-.1-.5-.2-1-.4-1.4-.4-.7-.1-1.6.7-2l12-6.1s.1 0 .1-.1c.9-.4 1.4-1.4 1.1-2.4-.4-1.1-1.6-1.4-2.5-1.1-.1 0-16.4 6.1-20.8 7.7l-3.8 1.4c-1.7.7-3.8.2-5.1-1.3-1.5-1.8-1.4-4.3.3-6.8.6-.8 1.2-1.5 1.7-2.2.9-1.1 1.7-2 2.3-3.1.6-1 .9-1.9.9-2.7 0-1.7-.8-3.2-2.1-4.1l-11.9 14.2c-.1.1-.2.2-.3.2-3.2 2.4-5.9 5.3-7.9 8.7-1.4 2.3-4.4 2.5-6.6 2.5l-15.6-.1c-.8 0-1.5-.7-1.5-1.5s.7-1.5 1.5-1.5l15.6.1c2.8 0 3.7-.6 4-1.1 2.1-3.7 5-6.9 8.5-9.5l12.6-14.9c.4-.5 1.1-.7 1.7-.4 3 1.3 4.9 4.1 4.9 7.4 0 1.4-.4 2.8-1.3 4.3-.8 1.2-1.7 2.3-2.5 3.4-.6.7-1.1 1.4-1.6 2.1-.9 1.3-1 2.4-.4 3.2.4.5 1.1.6 1.6.4l3.9-1.4c4.3-1.6 20.6-7.6 20.8-7.7 2.7-.9 5.5.4 6.3 2.9.9 2.4-.3 5.1-2.7 6.1l-9.8 5 13.9-.3c1.3-.1 2.5.3 3.5 1.1s1.7 2.1 1.7 3.4c.1 2.7-1.7 5-4.3 5.3l-13 2.2 11.6 3.5c1.4.3 2.5 1.1 3.2 2.2s.9 2.4.7 3.6c-.4 2.5-2.8 4.3-5.4 4l-13.2-1.2 6.5 4.3c2 1.2 2.9 3.8 1.8 5.9-.5 1.4-2.1 2.3-3.7 2.3z"/></svg>
