<svg viewBox="0 0 24 24" xmlns="http://www.w3.org/2000/svg"><path d="m12.35833 5.61572a8.30133 8.30133 0 0 0 -8.292 8.292 8.20035 8.20035 0 0 0 1.79737 5.15528l.58692-.4668a7.4582 7.4582 0 0 1 -1.63428-4.68847 7.54175 7.54175 0 1 1 15.0835 0 7.46018 7.46018 0 0 1 -1.63428 4.68847l.58691.4668a8.20388 8.20388 0 0 0 1.79688-5.15527 8.30081 8.30081 0 0 0 -8.29102-8.29201z"/><path d="m5.86663 12.98371a.92383.92383 0 1 0 .92383.92382.92482.92482 0 0 0 -.92383-.92382zm-.17431.92382a.17407.17407 0 0 1 .34814 0c0 .19239-.34814.19047-.34814 0z"/><path d="m7.77728 8.40033a.92383.92383 0 1 0 .92383.92383.92482.92482 0 0 0 -.92383-.92383zm-.17428.92383a.17408.17408 0 0 1 .34815 0c-.00004.19238-.34815.19043-.34815 0z"/><path d="m12.37524 8.33948a.92383.92383 0 1 0 -.92432-.92383.92472.92472 0 0 0 .92432.92383zm0-1.09766a.17422.17422 0 0 1 .17383.17383c0 .19238-.34815.19043-.34815 0a.17432.17432 0 0 1 .17432-.17383z"/><path d="m16.94348 8.40033a.92383.92383 0 1 0 .92383.92383.92482.92482 0 0 0 -.92383-.92383zm-.17432.92383a.17408.17408 0 0 1 .34815 0c0 .19238-.34815.19043-.34815 0z"/><path d="m19.774 13.83368a.92407.92407 0 1 0 -.92382.92383.92472.92472 0 0 0 .92382-.92383zm-1.09814 0a.17407.17407 0 0 1 .34814 0c0 .19238-.3481.19043-.3481 0z"/><path d="m15.38079 10.356-2.69165 2.69122a.90832.90832 0 0 0 -.3139-.06347.92383.92383 0 1 0 .92383.92382.91466.91466 0 0 0 -.06879-.34l2.68079-2.68036zm-3.17987 3.55157a.17408.17408 0 0 1 .34815 0c0 .19235-.34815.19043-.34815-.00004z"/></svg>
