<svg viewBox="0 0 24 24" xmlns="http://www.w3.org/2000/svg"><path d="m16.197 5.611-.724-.194-.777 2.899.724.193z"/><path d="m19.291 16.05322-3.3418-3.34375a2.28334 2.28334 0 0 0 -1.56885-.62109v.75a1.5311 1.5311 0 0 1 1.04688.40918l3.32129 3.32324a1.54221 1.54221 0 0 1 -2.16211 2.19336l-3.2212-3.22265a1.54329 1.54329 0 0 1 -.52685-1.16114h-.75a2.27428 2.27428 0 0 0 .76465 1.708l3.21631 3.21777a2.29133 2.29133 0 0 0 3.22168-3.25292z"/><path d="m12.05176 8.814-3.34131-3.34281a2.2913 2.2913 0 1 0 -3.09619 3.37793l3.21582 3.21778a2.28549 2.28549 0 0 0 1.53955.59472v-.75a1.531 1.531 0 0 1 -1.02246-.38672l-3.22071-3.22265a1.542 1.542 0 1 1 2.062-2.293l3.3208 3.32226a1.53785 1.53785 0 0 1 .40234 1.03809h.75a2.2948 2.2948 0 0 0 -.60984-1.5556z"/><path d="m16.46452 6.46112h2.99968v.75061h-2.99968z" transform="matrix(.70775699 -.70645597 .70645597 .70775699 .42032 14.68892)"/><path d="m16.27654 9.0038h3.00014v.75022h-3.00014z" transform="matrix(.96586667 -.25903972 .25903972 .96586667 -1.82273 4.92498)"/><path d="m7.86493 17.41164h3.00061v.74996h-3.00061z" transform="matrix(.25782476 -.9661917 .9661917 .25782476 -10.23464 22.2494)"/><path d="m5.34782 17.53827h2.99968v.75061h-2.99968z" transform="matrix(.70775699 -.70645597 .70645597 .70775699 -10.65397 10.07268)"/><path d="m5.53533 14.99599h3.00014v.75022h-3.00014z" transform="matrix(.96586667 -.25903972 .25903972 .96586667 -3.74158 2.34711)"/></svg>
