<svg viewBox="0 0 24 24" xmlns="http://www.w3.org/2000/svg"><path d="m10.24219 12.962h-3.2251a2.93711 2.93711 0 0 0 -2.93359 2.93363v2.86328h.75v-2.86328a2.186 2.186 0 0 1 2.18359-2.18363h3.2251a2.186 2.186 0 0 1 2.18359 2.18359v2.86328h.75v-2.86324a2.93711 2.93711 0 0 0 -2.93359-2.93363z"/><path d="m8.62939 12.18567a3.28516 3.28516 0 1 0 -3.28515-3.28516 3.28877 3.28877 0 0 0 3.28515 3.28516zm0-5.82031a2.53516 2.53516 0 1 1 -2.53515 2.53515 2.53826 2.53826 0 0 1 2.53515-2.53515z"/><path d="m19.36133 4.03528-4.4375 4.4502a1.46509 1.46509 0 0 0 -1.00147 1.46484c-.00244.07226-.00439.14258-.01806.26172-.00049.10156-.106.332-.09473.36133l-.01367.75c.04639.00195.1001.00293.16015.00293a2.78376 2.78376 0 0 0 1.96875-.65723 1.36733 1.36733 0 0 0 .37012-.94727l4.36719-4.38086zm-3.9834 6.12012a1.43311 1.43311 0 0 1 -.76611.35937.9212.9212 0 0 0 .03857-.24707 2.64784 2.64784 0 0 0 .02149-.28906.69888.69888 0 0 1 .3955-.72363l.47754.48047a.60382.60382 0 0 1 -.16699.41992zm.53564-1.11328-.24267-.24412 3.69043-3.7002.24219.24316z"/></svg>
