<svg viewBox="0 0 24 24" xmlns="http://www.w3.org/2000/svg"><path d="m10.10784 19.24125a3.60137 3.60137 0 0 1 -.831-7.10547l-.17285-.73047a4.35155 4.35155 0 1 0 5.35449 4.23536h-.75a3.60468 3.60468 0 0 1 -3.60064 3.60058z"/><path d="m11.2304 7.68656a1.46387 1.46387 0 1 0 -1.46386-1.46386 1.46528 1.46528 0 0 0 1.46386 1.46386zm0-2.17773a.71387.71387 0 1 1 -.71386.71387.71477.71477 0 0 1 .71386-.71387z"/><path d="m18.89788 18.003-1.36474-5.1377h-4.65723v-1.39l1.26709.49646 2.76074-.04492a.84616.84616 0 0 0 .79883-.8877.91192.91192 0 0 0 -.27051-.63867.85026.85026 0 0 0 -.55664-.22266s-2.00342.03223-2.41455.03907l-1.585-.62659v-1.44377h-3.29097v7.28418h5.98437l.84863 3.22559a1.23175 1.23175 0 0 0 .5752.75391 1.2766 1.2766 0 0 0 .64648.1748 1.33121 1.33121 0 0 0 .33741-.04394 1.26893 1.26893 0 0 0 .92089-1.53806zm-1.1123.81348a.53869.53869 0 0 1 -.41455-.05371.48347.48347 0 0 1 -.22754-.29688l-.99609-3.78519h-5.8125v-5.78418h1.791v.39722l-.75781-.29956-.27539.69727 3.16162 1.25.13769.02636c.01172-.001 2.49219-.04687 2.51954-.02734a.15882.15882 0 0 1 .041.11035c.00147.082-.04443.126-.061.126l-2.6128.043-2.91308-1.14258-.27344.69922 1.03369.405v2.43383h4.83008l1.2168 4.58008a.51844.51844 0 0 1 -.38722.62108z"/></svg>
