<svg viewBox="0 0 24 24" xmlns="http://www.w3.org/2000/svg"><path d="m16.72339 13.05184a3.59122 3.59122 0 0 0 -.45227.04565l-4.62226-4.62255a3.5992 3.5992 0 0 0 .04523-.44751 3.66554 3.66554 0 0 0 -3.66109-3.66114 3.58231 3.58231 0 0 0 -1.03662.166l-.6045.17871 2.28121 2.28127-1.60351 1.60352-2.30078-2.29979-.19287.57324a3.59135 3.59135 0 0 0 -.20362 1.15821 3.66512 3.66512 0 0 0 3.66069 3.66111c.109 0 .21179-.02283.31842-.03223l4.74267 4.74219c-.00915.10547-.0318.20679-.0318.31445a3.66554 3.66554 0 0 0 3.66114 3.66114 3.58242 3.58242 0 0 0 1.03662-.166l.60449-.17871-2.28076-2.28125 1.60351-1.60352 2.30127 2.30078.19239-.57421a3.61248 3.61248 0 0 0 .20305-1.1582 3.66512 3.66512 0 0 0 -3.66061-3.66116zm-11.60108-5.02441a2.491 2.491 0 0 1 .01856-.29883l1.92871 1.92773 2.66406-2.66406-1.86964-1.86914a2.87522 2.87522 0 0 1 3.08008 2.9043 2.91089 2.91089 0 1 1 -5.82178 0zm4.10569 3.44409a3.65932 3.65932 0 0 0 2.2153-2.14063l3.97265 3.973a3.66013 3.66013 0 0 0 -2.13769 2.2174zm10.38748 5.54028-1.92823-1.92773-2.66406 2.66406 1.86914 1.86914a2.8766 2.8766 0 0 1 -3.08008-2.9043 2.91089 2.91089 0 1 1 5.82178 0 2.50557 2.50557 0 0 1 -.01855.29883z"/></svg>
