<svg viewBox="0 0 24 24" xmlns="http://www.w3.org/2000/svg"><path fill-rule="evenodd" clip-rule="evenodd" d="M15.8337 4.175C15.717 4.175 15.6092 4.23758 15.5514 4.33896L10.4054 13.3593C10.3491 13.4579 10.3484 13.5787 10.4035 13.678L13.7217 19.6577C13.779 19.761 13.8878 19.825 14.0059 19.825H17.2348C17.3503 19.825 17.4572 19.7637 17.5154 19.6639C17.5737 19.5641 17.5746 19.4409 17.5178 19.3403L14.2334 13.5213L19.2938 4.66119C19.3513 4.5606 19.3508 4.43703 19.2927 4.33685C19.2345 4.23666 19.1274 4.175 19.0116 4.175H15.8337ZM11.0606 13.5225L16.0225 4.825H18.4517L13.5775 13.3591C13.5207 13.4585 13.5204 13.5804 13.5766 13.6801L16.6781 19.175H14.1972L11.0606 13.5225ZM5.87392 7.07051C5.75819 7.07051 5.65118 7.13206 5.59299 7.23211C5.5348 7.33215 5.5342 7.4556 5.59143 7.5562L7.28256 10.5293L4.70698 14.9914C4.64893 15.092 4.64894 15.2159 4.707 15.3164C4.76506 15.417 4.87235 15.4789 4.98845 15.4789H8.17272C8.2892 15.4789 8.39678 15.4166 8.4547 15.3155L11.1042 10.6921C11.1614 10.5923 11.1616 10.4698 11.1048 10.3698L9.32155 7.23482C9.26378 7.13325 9.15591 7.07051 9.03906 7.07051H5.87392ZM7.93963 10.3698L6.43268 7.72051H8.85002L10.448 10.5299L7.98438 14.8289H5.5513L7.93861 10.693C7.99627 10.5931 7.99666 10.4701 7.93963 10.3698Z"/></svg>
